<?xml version="1.0" encoding="utf-8" standalone="no"?>
<!DOCTYPE svg PUBLIC "-//W3C//DTD SVG 1.1//EN"
  "http://www.w3.org/Graphics/SVG/1.1/DTD/svg11.dtd">
<svg xmlns:xlink="http://www.w3.org/1999/xlink" width="504pt" height="360pt" viewBox="0 0 504 360" xmlns="http://www.w3.org/2000/svg" version="1.1">
 <metadata>
  <rdf:RDF xmlns:dc="http://purl.org/dc/elements/1.1/" xmlns:cc="http://creativecommons.org/ns#" xmlns:rdf="http://www.w3.org/1999/02/22-rdf-syntax-ns#">
   <cc:Work>
    <dc:type rdf:resource="http://purl.org/dc/dcmitype/StillImage"/>
    <dc:date>2026-06-14T09:57:08.219108</dc:date>
    <dc:format>image/svg+xml</dc:format>
    <dc:creator>
     <cc:Agent>
      <dc:title>Matplotlib v3.11.0, https://matplotlib.org/</dc:title>
     </cc:Agent>
    </dc:creator>
   </cc:Work>
  </rdf:RDF>
 </metadata>
 <defs>
  <style type="text/css">*{stroke-linejoin: round; stroke-linecap: butt}</style>
 </defs>
 <g id="figure_1">
  <g id="patch_1">
   <path d="M 0 360 
L 504 360 
L 504 0 
L 0 0 
z
" style="fill: #ffffff"/>
  </g>
  <g id="axes_1">
   <g id="patch_2">
    <path d="M 70.56 252 
L 483.84 252 
L 483.84 36 
L 70.56 36 
z
" style="fill: #ffffff"/>
   </g>
   <g id="matplotlib.axis_1">
    <g id="xtick_1">
     <g id="line2d_1">
      <defs>
       <path id="md2d71b33e5" d="M 0 0 
L 0 3 
" style="stroke: #444444; stroke-width: 0.8"/>
      </defs>
      <g>
       <use xlink:href="#md2d71b33e5" x="89.345455" y="252" style="fill: #444444; stroke: #444444; stroke-width: 0.8"/>
      </g>
     </g>
     <g id="text_1">
      <!-- 06/26 -->
      <g style="fill: #444444" transform="translate(68.274361 269.136719) scale(0.14 -0.14)">
       <defs>
        <path id="DejaVuSansMono-13" d="M 1509 2344 
Q 1509 2516 1629 2641 
Q 1750 2766 1919 2766 
Q 2094 2766 2219 2641 
Q 2344 2516 2344 2344 
Q 2344 2169 2220 2047 
Q 2097 1925 1919 1925 
Q 1744 1925 1626 2044 
Q 1509 2163 1509 2344 
z
M 1925 4250 
Q 1484 4250 1267 3775 
Q 1050 3300 1050 2328 
Q 1050 1359 1267 884 
Q 1484 409 1925 409 
Q 2369 409 2586 884 
Q 2803 1359 2803 2328 
Q 2803 3300 2586 3775 
Q 2369 4250 1925 4250 
z
M 1925 4750 
Q 2672 4750 3055 4137 
Q 3438 3525 3438 2328 
Q 3438 1134 3055 521 
Q 2672 -91 1925 -91 
Q 1178 -91 797 521 
Q 416 1134 416 2328 
Q 416 3525 797 4137 
Q 1178 4750 1925 4750 
z
" transform="scale(0.015625)"/>
        <path id="DejaVuSansMono-19" d="M 3097 4563 
L 3097 3981 
Q 2900 4097 2678 4158 
Q 2456 4219 2216 4219 
Q 1616 4219 1306 3767 
Q 997 3316 997 2438 
Q 1147 2750 1412 2917 
Q 1678 3084 2022 3084 
Q 2697 3084 3067 2670 
Q 3438 2256 3438 1497 
Q 3438 741 3056 325 
Q 2675 -91 1984 -91 
Q 1172 -91 794 492 
Q 416 1075 416 2328 
Q 416 3509 870 4129 
Q 1325 4750 2188 4750 
Q 2419 4750 2650 4701 
Q 2881 4653 3097 4563 
z
M 1972 2591 
Q 1569 2591 1337 2300 
Q 1106 2009 1106 1497 
Q 1106 984 1337 693 
Q 1569 403 1972 403 
Q 2391 403 2603 679 
Q 2816 956 2816 1497 
Q 2816 2041 2603 2316 
Q 2391 2591 1972 2591 
z
" transform="scale(0.015625)"/>
        <path id="DejaVuSansMono-12" d="M 2778 4666 
L 3372 4666 
L 916 -594 
L 319 -594 
L 2778 4666 
z
" transform="scale(0.015625)"/>
        <path id="DejaVuSansMono-15" d="M 1166 531 
L 3309 531 
L 3309 0 
L 475 0 
L 475 531 
Q 1059 1147 1496 1619 
Q 1934 2091 2100 2284 
Q 2413 2666 2522 2902 
Q 2631 3138 2631 3384 
Q 2631 3775 2401 3997 
Q 2172 4219 1772 4219 
Q 1488 4219 1175 4116 
Q 863 4013 513 3803 
L 513 4441 
Q 834 4594 1145 4672 
Q 1456 4750 1759 4750 
Q 2444 4750 2861 4386 
Q 3278 4022 3278 3431 
Q 3278 3131 3139 2831 
Q 3000 2531 2688 2169 
Q 2513 1966 2180 1606 
Q 1847 1247 1166 531 
z
" transform="scale(0.015625)"/>
       </defs>
       <use xlink:href="#DejaVuSansMono-13"/>
       <use xlink:href="#DejaVuSansMono-19" transform="translate(60.203125 0)"/>
       <use xlink:href="#DejaVuSansMono-12" transform="translate(120.40625 0)"/>
       <use xlink:href="#DejaVuSansMono-15" transform="translate(180.609375 0)"/>
       <use xlink:href="#DejaVuSansMono-19" transform="translate(240.8125 0)"/>
      </g>
     </g>
    </g>
    <g id="xtick_2">
     <g id="line2d_2">
      <g>
       <use xlink:href="#md2d71b33e5" x="277.2" y="252" style="fill: #444444; stroke: #444444; stroke-width: 0.8"/>
      </g>
     </g>
     <g id="text_2">
      <!-- 06/26 -->
      <g style="fill: #444444" transform="translate(256.128906 269.136719) scale(0.14 -0.14)">
       <use xlink:href="#DejaVuSansMono-13"/>
       <use xlink:href="#DejaVuSansMono-19" transform="translate(60.203125 0)"/>
       <use xlink:href="#DejaVuSansMono-12" transform="translate(120.40625 0)"/>
       <use xlink:href="#DejaVuSansMono-15" transform="translate(180.609375 0)"/>
       <use xlink:href="#DejaVuSansMono-19" transform="translate(240.8125 0)"/>
      </g>
     </g>
    </g>
    <g id="xtick_3">
     <g id="line2d_3">
      <g>
       <use xlink:href="#md2d71b33e5" x="465.054545" y="252" style="fill: #444444; stroke: #444444; stroke-width: 0.8"/>
      </g>
     </g>
     <g id="text_3">
      <!-- 06/26 -->
      <g style="fill: #444444" transform="translate(443.983452 269.136719) scale(0.14 -0.14)">
       <use xlink:href="#DejaVuSansMono-13"/>
       <use xlink:href="#DejaVuSansMono-19" transform="translate(60.203125 0)"/>
       <use xlink:href="#DejaVuSansMono-12" transform="translate(120.40625 0)"/>
       <use xlink:href="#DejaVuSansMono-15" transform="translate(180.609375 0)"/>
       <use xlink:href="#DejaVuSansMono-19" transform="translate(240.8125 0)"/>
      </g>
     </g>
    </g>
   </g>
   <g id="matplotlib.axis_2">
    <g id="ytick_1">
     <g id="line2d_4">
      <defs>
       <path id="mc7b9bfb487" d="M 0 0 
L -3 0 
" style="stroke: #444444; stroke-width: 0.8"/>
      </defs>
      <g>
       <use xlink:href="#mc7b9bfb487" x="70.56" y="252" style="fill: #444444; stroke: #444444; stroke-width: 0.8"/>
      </g>
     </g>
     <g id="text_4">
      <!-- 0 -->
      <g style="fill: #444444" transform="translate(55.631563 257.318359) scale(0.14 -0.14)">
       <use xlink:href="#DejaVuSansMono-13"/>
      </g>
     </g>
    </g>
    <g id="ytick_2">
     <g id="line2d_5">
      <g>
       <use xlink:href="#mc7b9bfb487" x="70.56" y="217.714286" style="fill: #444444; stroke: #444444; stroke-width: 0.8"/>
      </g>
     </g>
     <g id="text_5">
      <!-- 2 -->
      <g style="fill: #444444" transform="translate(55.631563 223.032645) scale(0.14 -0.14)">
       <use xlink:href="#DejaVuSansMono-15"/>
      </g>
     </g>
    </g>
    <g id="ytick_3">
     <g id="line2d_6">
      <g>
       <use xlink:href="#mc7b9bfb487" x="70.56" y="183.428571" style="fill: #444444; stroke: #444444; stroke-width: 0.8"/>
      </g>
     </g>
     <g id="text_6">
      <!-- 4 -->
      <g style="fill: #444444" transform="translate(55.631563 188.746931) scale(0.14 -0.14)">
       <defs>
        <path id="DejaVuSansMono-17" d="M 2297 4091 
L 825 1625 
L 2297 1625 
L 2297 4091 
z
M 2194 4666 
L 2925 4666 
L 2925 1625 
L 3547 1625 
L 3547 1113 
L 2925 1113 
L 2925 0 
L 2297 0 
L 2297 1113 
L 319 1113 
L 319 1709 
L 2194 4666 
z
" transform="scale(0.015625)"/>
       </defs>
       <use xlink:href="#DejaVuSansMono-17"/>
      </g>
     </g>
    </g>
    <g id="ytick_4">
     <g id="line2d_7">
      <g>
       <use xlink:href="#mc7b9bfb487" x="70.56" y="149.142857" style="fill: #444444; stroke: #444444; stroke-width: 0.8"/>
      </g>
     </g>
     <g id="text_7">
      <!-- 6 -->
      <g style="fill: #444444" transform="translate(55.631563 154.461217) scale(0.14 -0.14)">
       <use xlink:href="#DejaVuSansMono-19"/>
      </g>
     </g>
    </g>
    <g id="ytick_5">
     <g id="line2d_8">
      <g>
       <use xlink:href="#mc7b9bfb487" x="70.56" y="114.857143" style="fill: #444444; stroke: #444444; stroke-width: 0.8"/>
      </g>
     </g>
     <g id="text_8">
      <!-- 8 -->
      <g style="fill: #444444" transform="translate(55.631563 120.175502) scale(0.14 -0.14)">
       <defs>
        <path id="DejaVuSansMono-1b" d="M 1925 2216 
Q 1503 2216 1273 1980 
Q 1044 1744 1044 1313 
Q 1044 881 1276 642 
Q 1509 403 1925 403 
Q 2350 403 2579 639 
Q 2809 875 2809 1313 
Q 2809 1741 2576 1978 
Q 2344 2216 1925 2216 
z
M 1375 2478 
Q 972 2581 745 2862 
Q 519 3144 519 3541 
Q 519 4097 897 4423 
Q 1275 4750 1925 4750 
Q 2578 4750 2956 4423 
Q 3334 4097 3334 3541 
Q 3334 3144 3107 2862 
Q 2881 2581 2478 2478 
Q 2947 2375 3195 2062 
Q 3444 1750 3444 1253 
Q 3444 622 3041 265 
Q 2638 -91 1925 -91 
Q 1213 -91 811 264 
Q 409 619 409 1247 
Q 409 1747 657 2061 
Q 906 2375 1375 2478 
z
M 1147 3481 
Q 1147 3106 1347 2909 
Q 1547 2713 1925 2713 
Q 2306 2713 2506 2909 
Q 2706 3106 2706 3481 
Q 2706 3863 2507 4063 
Q 2309 4263 1925 4263 
Q 1547 4263 1347 4061 
Q 1147 3859 1147 3481 
z
" transform="scale(0.015625)"/>
       </defs>
       <use xlink:href="#DejaVuSansMono-1b"/>
      </g>
     </g>
    </g>
    <g id="ytick_6">
     <g id="line2d_9">
      <g>
       <use xlink:href="#mc7b9bfb487" x="70.56" y="80.571429" style="fill: #444444; stroke: #444444; stroke-width: 0.8"/>
      </g>
     </g>
     <g id="text_9">
      <!-- 10 -->
      <g style="fill: #444444" transform="translate(47.203125 85.889788) scale(0.14 -0.14)">
       <defs>
        <path id="DejaVuSansMono-14" d="M 844 531 
L 1825 531 
L 1825 4097 
L 769 3859 
L 769 4434 
L 1819 4666 
L 2450 4666 
L 2450 531 
L 3419 531 
L 3419 0 
L 844 0 
L 844 531 
z
" transform="scale(0.015625)"/>
       </defs>
       <use xlink:href="#DejaVuSansMono-14"/>
       <use xlink:href="#DejaVuSansMono-13" transform="translate(60.203125 0)"/>
      </g>
     </g>
    </g>
    <g id="ytick_7">
     <g id="line2d_10">
      <g>
       <use xlink:href="#mc7b9bfb487" x="70.56" y="46.285714" style="fill: #444444; stroke: #444444; stroke-width: 0.8"/>
      </g>
     </g>
     <g id="text_10">
      <!-- 12 -->
      <g style="fill: #444444" transform="translate(47.203125 51.604074) scale(0.14 -0.14)">
       <use xlink:href="#DejaVuSansMono-14"/>
       <use xlink:href="#DejaVuSansMono-15" transform="translate(60.203125 0)"/>
      </g>
     </g>
    </g>
    <g id="text_11">
     <!-- Downloads -->
     <g style="fill: #333333" transform="translate(39.599609 185.187891) rotate(-90) scale(0.15 -0.15)">
      <defs>
       <path id="DejaVuSans-27" d="M 1259 4147 
L 1259 519 
L 2022 519 
Q 2988 519 3436 956 
Q 3884 1394 3884 2338 
Q 3884 3275 3436 3711 
Q 2988 4147 2022 4147 
L 1259 4147 
z
M 628 4666 
L 1925 4666 
Q 3281 4666 3915 4102 
Q 4550 3538 4550 2338 
Q 4550 1131 3912 565 
Q 3275 0 1925 0 
L 628 0 
L 628 4666 
z
" transform="scale(0.015625)"/>
       <path id="DejaVuSans-52" d="M 1959 3097 
Q 1497 3097 1228 2736 
Q 959 2375 959 1747 
Q 959 1119 1226 758 
Q 1494 397 1959 397 
Q 2419 397 2687 759 
Q 2956 1122 2956 1747 
Q 2956 2369 2687 2733 
Q 2419 3097 1959 3097 
z
M 1959 3584 
Q 2709 3584 3137 3096 
Q 3566 2609 3566 1747 
Q 3566 888 3137 398 
Q 2709 -91 1959 -91 
Q 1206 -91 779 398 
Q 353 888 353 1747 
Q 353 2609 779 3096 
Q 1206 3584 1959 3584 
z
" transform="scale(0.015625)"/>
       <path id="DejaVuSans-5a" d="M 269 3500 
L 844 3500 
L 1563 769 
L 2278 3500 
L 2956 3500 
L 3675 769 
L 4391 3500 
L 4966 3500 
L 4050 0 
L 3372 0 
L 2619 2869 
L 1863 0 
L 1184 0 
L 269 3500 
z
" transform="scale(0.015625)"/>
       <path id="DejaVuSans-51" d="M 3513 2113 
L 3513 0 
L 2938 0 
L 2938 2094 
Q 2938 2591 2744 2837 
Q 2550 3084 2163 3084 
Q 1697 3084 1428 2787 
Q 1159 2491 1159 1978 
L 1159 0 
L 581 0 
L 581 3500 
L 1159 3500 
L 1159 2956 
Q 1366 3272 1645 3428 
Q 1925 3584 2291 3584 
Q 2894 3584 3203 3211 
Q 3513 2838 3513 2113 
z
" transform="scale(0.015625)"/>
       <path id="DejaVuSans-4f" d="M 603 4863 
L 1178 4863 
L 1178 0 
L 603 0 
L 603 4863 
z
" transform="scale(0.015625)"/>
       <path id="DejaVuSans-44" d="M 2194 1759 
Q 1497 1759 1228 1600 
Q 959 1441 959 1056 
Q 959 750 1161 570 
Q 1363 391 1709 391 
Q 2188 391 2477 730 
Q 2766 1069 2766 1631 
L 2766 1759 
L 2194 1759 
z
M 3341 1997 
L 3341 0 
L 2766 0 
L 2766 531 
Q 2569 213 2275 61 
Q 1981 -91 1556 -91 
Q 1019 -91 701 211 
Q 384 513 384 1019 
Q 384 1609 779 1909 
Q 1175 2209 1959 2209 
L 2766 2209 
L 2766 2266 
Q 2766 2663 2505 2880 
Q 2244 3097 1772 3097 
Q 1472 3097 1187 3025 
Q 903 2953 641 2809 
L 641 3341 
Q 956 3463 1253 3523 
Q 1550 3584 1831 3584 
Q 2591 3584 2966 3190 
Q 3341 2797 3341 1997 
z
" transform="scale(0.015625)"/>
       <path id="DejaVuSans-47" d="M 2906 2969 
L 2906 4863 
L 3481 4863 
L 3481 0 
L 2906 0 
L 2906 525 
Q 2725 213 2448 61 
Q 2172 -91 1784 -91 
Q 1150 -91 751 415 
Q 353 922 353 1747 
Q 353 2572 751 3078 
Q 1150 3584 1784 3584 
Q 2172 3584 2448 3432 
Q 2725 3281 2906 2969 
z
M 947 1747 
Q 947 1113 1208 752 
Q 1469 391 1925 391 
Q 2381 391 2643 752 
Q 2906 1113 2906 1747 
Q 2906 2381 2643 2742 
Q 2381 3103 1925 3103 
Q 1469 3103 1208 2742 
Q 947 2381 947 1747 
z
" transform="scale(0.015625)"/>
       <path id="DejaVuSans-56" d="M 2834 3397 
L 2834 2853 
Q 2591 2978 2328 3040 
Q 2066 3103 1784 3103 
Q 1356 3103 1142 2972 
Q 928 2841 928 2578 
Q 928 2378 1081 2264 
Q 1234 2150 1697 2047 
L 1894 2003 
Q 2506 1872 2764 1633 
Q 3022 1394 3022 966 
Q 3022 478 2636 193 
Q 2250 -91 1575 -91 
Q 1294 -91 989 -36 
Q 684 19 347 128 
L 347 722 
Q 666 556 975 473 
Q 1284 391 1588 391 
Q 1994 391 2212 530 
Q 2431 669 2431 922 
Q 2431 1156 2273 1281 
Q 2116 1406 1581 1522 
L 1381 1569 
Q 847 1681 609 1914 
Q 372 2147 372 2553 
Q 372 3047 722 3315 
Q 1072 3584 1716 3584 
Q 2034 3584 2315 3537 
Q 2597 3491 2834 3397 
z
" transform="scale(0.015625)"/>
      </defs>
      <use xlink:href="#DejaVuSans-27"/>
      <use xlink:href="#DejaVuSans-52" transform="translate(77 0)"/>
      <use xlink:href="#DejaVuSans-5a" transform="translate(138.1875 0)"/>
      <use xlink:href="#DejaVuSans-51" transform="translate(219.96875 0)"/>
      <use xlink:href="#DejaVuSans-4f" transform="translate(283.34375 0)"/>
      <use xlink:href="#DejaVuSans-52" transform="translate(311.125 0)"/>
      <use xlink:href="#DejaVuSans-44" transform="translate(372.3125 0)"/>
      <use xlink:href="#DejaVuSans-47" transform="translate(433.59375 0)"/>
      <use xlink:href="#DejaVuSans-56" transform="translate(497.078125 0)"/>
     </g>
    </g>
   </g>
   <g id="line2d_11">
    <path d="M 89.345455 166.285714 
L 465.054545 46.285714 
" clip-path="url(#pf13cb660f6)" style="fill: none; stroke: #1f77b4; stroke-width: 1.5; stroke-linecap: square"/>
    <defs>
     <path id="mf46849ae1e" d="M 0 1.5 
C 0.397805 1.5 0.77937 1.341951 1.06066 1.06066 
C 1.341951 0.77937 1.5 0.397805 1.5 0 
C 1.5 -0.397805 1.341951 -0.77937 1.06066 -1.06066 
C 0.77937 -1.341951 0.397805 -1.5 0 -1.5 
C -0.397805 -1.5 -0.77937 -1.341951 -1.06066 -1.06066 
C -1.341951 -0.77937 -1.5 -0.397805 -1.5 0 
C -1.5 0.397805 -1.341951 0.77937 -1.06066 1.06066 
C -0.77937 1.341951 -0.397805 1.5 0 1.5 
z
" style="stroke: #1f77b4"/>
    </defs>
    <g clip-path="url(#pf13cb660f6)">
     <use xlink:href="#mf46849ae1e" x="89.345455" y="166.285714" style="fill: #1f77b4; stroke: #1f77b4"/>
     <use xlink:href="#mf46849ae1e" x="465.054545" y="46.285714" style="fill: #1f77b4; stroke: #1f77b4"/>
    </g>
   </g>
   <g id="line2d_12">
    <path d="M 89.345455 200.571429 
L 465.054545 166.285714 
" clip-path="url(#pf13cb660f6)" style="fill: none; stroke: #aec7e8; stroke-width: 1.5; stroke-linecap: square"/>
    <defs>
     <path id="m4209e9127c" d="M 0 1.5 
C 0.397805 1.5 0.77937 1.341951 1.06066 1.06066 
C 1.341951 0.77937 1.5 0.397805 1.5 0 
C 1.5 -0.397805 1.341951 -0.77937 1.06066 -1.06066 
C 0.77937 -1.341951 0.397805 -1.5 0 -1.5 
C -0.397805 -1.5 -0.77937 -1.341951 -1.06066 -1.06066 
C -1.341951 -0.77937 -1.5 -0.397805 -1.5 0 
C -1.5 0.397805 -1.341951 0.77937 -1.06066 1.06066 
C -0.77937 1.341951 -0.397805 1.5 0 1.5 
z
" style="stroke: #aec7e8"/>
    </defs>
    <g clip-path="url(#pf13cb660f6)">
     <use xlink:href="#m4209e9127c" x="89.345455" y="200.571429" style="fill: #aec7e8; stroke: #aec7e8"/>
     <use xlink:href="#m4209e9127c" x="465.054545" y="166.285714" style="fill: #aec7e8; stroke: #aec7e8"/>
    </g>
   </g>
   <g id="line2d_13">
    <path d="M 89.345455 217.714286 
L 465.054545 114.857143 
" clip-path="url(#pf13cb660f6)" style="fill: none; stroke: #ff7f0e; stroke-width: 1.5; stroke-linecap: square"/>
    <defs>
     <path id="me263e545ac" d="M 0 1.5 
C 0.397805 1.5 0.77937 1.341951 1.06066 1.06066 
C 1.341951 0.77937 1.5 0.397805 1.5 0 
C 1.5 -0.397805 1.341951 -0.77937 1.06066 -1.06066 
C 0.77937 -1.341951 0.397805 -1.5 0 -1.5 
C -0.397805 -1.5 -0.77937 -1.341951 -1.06066 -1.06066 
C -1.341951 -0.77937 -1.5 -0.397805 -1.5 0 
C -1.5 0.397805 -1.341951 0.77937 -1.06066 1.06066 
C -0.77937 1.341951 -0.397805 1.5 0 1.5 
z
" style="stroke: #ff7f0e"/>
    </defs>
    <g clip-path="url(#pf13cb660f6)">
     <use xlink:href="#me263e545ac" x="89.345455" y="217.714286" style="fill: #ff7f0e; stroke: #ff7f0e"/>
     <use xlink:href="#me263e545ac" x="465.054545" y="114.857143" style="fill: #ff7f0e; stroke: #ff7f0e"/>
    </g>
   </g>
   <g id="line2d_14">
    <path d="M 89.345455 217.714286 
L 465.054545 114.857143 
" clip-path="url(#pf13cb660f6)" style="fill: none; stroke: #ffbb78; stroke-width: 1.5; stroke-linecap: square"/>
    <defs>
     <path id="mc45f09f007" d="M 0 1.5 
C 0.397805 1.5 0.77937 1.341951 1.06066 1.06066 
C 1.341951 0.77937 1.5 0.397805 1.5 0 
C 1.5 -0.397805 1.341951 -0.77937 1.06066 -1.06066 
C 0.77937 -1.341951 0.397805 -1.5 0 -1.5 
C -0.397805 -1.5 -0.77937 -1.341951 -1.06066 -1.06066 
C -1.341951 -0.77937 -1.5 -0.397805 -1.5 0 
C -1.5 0.397805 -1.341951 0.77937 -1.06066 1.06066 
C -0.77937 1.341951 -0.397805 1.5 0 1.5 
z
" style="stroke: #ffbb78"/>
    </defs>
    <g clip-path="url(#pf13cb660f6)">
     <use xlink:href="#mc45f09f007" x="89.345455" y="217.714286" style="fill: #ffbb78; stroke: #ffbb78"/>
     <use xlink:href="#mc45f09f007" x="465.054545" y="114.857143" style="fill: #ffbb78; stroke: #ffbb78"/>
    </g>
   </g>
   <g id="line2d_15">
    <path d="M 89.345455 234.857143 
L 465.054545 200.571429 
" clip-path="url(#pf13cb660f6)" style="fill: none; stroke: #2ca02c; stroke-width: 1.5; stroke-linecap: square"/>
    <defs>
     <path id="mf750357b1c" d="M 0 1.5 
C 0.397805 1.5 0.77937 1.341951 1.06066 1.06066 
C 1.341951 0.77937 1.5 0.397805 1.5 0 
C 1.5 -0.397805 1.341951 -0.77937 1.06066 -1.06066 
C 0.77937 -1.341951 0.397805 -1.5 0 -1.5 
C -0.397805 -1.5 -0.77937 -1.341951 -1.06066 -1.06066 
C -1.341951 -0.77937 -1.5 -0.397805 -1.5 0 
C -1.5 0.397805 -1.341951 0.77937 -1.06066 1.06066 
C -0.77937 1.341951 -0.397805 1.5 0 1.5 
z
" style="stroke: #2ca02c"/>
    </defs>
    <g clip-path="url(#pf13cb660f6)">
     <use xlink:href="#mf750357b1c" x="89.345455" y="234.857143" style="fill: #2ca02c; stroke: #2ca02c"/>
     <use xlink:href="#mf750357b1c" x="465.054545" y="200.571429" style="fill: #2ca02c; stroke: #2ca02c"/>
    </g>
   </g>
   <g id="line2d_16">
    <path d="M 89.345455 252 
L 465.054545 183.428571 
" clip-path="url(#pf13cb660f6)" style="fill: none; stroke: #98df8a; stroke-width: 1.5; stroke-linecap: square"/>
    <defs>
     <path id="m7209f627e6" d="M 0 1.5 
C 0.397805 1.5 0.77937 1.341951 1.06066 1.06066 
C 1.341951 0.77937 1.5 0.397805 1.5 0 
C 1.5 -0.397805 1.341951 -0.77937 1.06066 -1.06066 
C 0.77937 -1.341951 0.397805 -1.5 0 -1.5 
C -0.397805 -1.5 -0.77937 -1.341951 -1.06066 -1.06066 
C -1.341951 -0.77937 -1.5 -0.397805 -1.5 0 
C -1.5 0.397805 -1.341951 0.77937 -1.06066 1.06066 
C -0.77937 1.341951 -0.397805 1.5 0 1.5 
z
" style="stroke: #98df8a"/>
    </defs>
    <g clip-path="url(#pf13cb660f6)">
     <use xlink:href="#m7209f627e6" x="89.345455" y="252" style="fill: #98df8a; stroke: #98df8a"/>
     <use xlink:href="#m7209f627e6" x="465.054545" y="183.428571" style="fill: #98df8a; stroke: #98df8a"/>
    </g>
   </g>
   <g id="line2d_17">
    <path d="M 89.345455 234.857143 
L 465.054545 217.714286 
" clip-path="url(#pf13cb660f6)" style="fill: none; stroke: #d62728; stroke-width: 1.5; stroke-linecap: square"/>
    <defs>
     <path id="m7d626a4755" d="M 0 1.5 
C 0.397805 1.5 0.77937 1.341951 1.06066 1.06066 
C 1.341951 0.77937 1.5 0.397805 1.5 0 
C 1.5 -0.397805 1.341951 -0.77937 1.06066 -1.06066 
C 0.77937 -1.341951 0.397805 -1.5 0 -1.5 
C -0.397805 -1.5 -0.77937 -1.341951 -1.06066 -1.06066 
C -1.341951 -0.77937 -1.5 -0.397805 -1.5 0 
C -1.5 0.397805 -1.341951 0.77937 -1.06066 1.06066 
C -0.77937 1.341951 -0.397805 1.5 0 1.5 
z
" style="stroke: #d62728"/>
    </defs>
    <g clip-path="url(#pf13cb660f6)">
     <use xlink:href="#m7d626a4755" x="89.345455" y="234.857143" style="fill: #d62728; stroke: #d62728"/>
     <use xlink:href="#m7d626a4755" x="465.054545" y="217.714286" style="fill: #d62728; stroke: #d62728"/>
    </g>
   </g>
   <g id="line2d_18">
    <path d="M 89.345455 217.714286 
L 465.054545 80.571429 
" clip-path="url(#pf13cb660f6)" style="fill: none; stroke: #ff9896; stroke-width: 1.5; stroke-linecap: square"/>
    <defs>
     <path id="m10a0b4799a" d="M 0 1.5 
C 0.397805 1.5 0.77937 1.341951 1.06066 1.06066 
C 1.341951 0.77937 1.5 0.397805 1.5 0 
C 1.5 -0.397805 1.341951 -0.77937 1.06066 -1.06066 
C 0.77937 -1.341951 0.397805 -1.5 0 -1.5 
C -0.397805 -1.5 -0.77937 -1.341951 -1.06066 -1.06066 
C -1.341951 -0.77937 -1.5 -0.397805 -1.5 0 
C -1.5 0.397805 -1.341951 0.77937 -1.06066 1.06066 
C -0.77937 1.341951 -0.397805 1.5 0 1.5 
z
" style="stroke: #ff9896"/>
    </defs>
    <g clip-path="url(#pf13cb660f6)">
     <use xlink:href="#m10a0b4799a" x="89.345455" y="217.714286" style="fill: #ff9896; stroke: #ff9896"/>
     <use xlink:href="#m10a0b4799a" x="465.054545" y="80.571429" style="fill: #ff9896; stroke: #ff9896"/>
    </g>
   </g>
   <g id="line2d_19">
    <path d="M 89.345455 200.571429 
L 465.054545 166.285714 
" clip-path="url(#pf13cb660f6)" style="fill: none; stroke: #9467bd; stroke-width: 1.5; stroke-linecap: square"/>
    <defs>
     <path id="medaf1c5ff0" d="M 0 1.5 
C 0.397805 1.5 0.77937 1.341951 1.06066 1.06066 
C 1.341951 0.77937 1.5 0.397805 1.5 0 
C 1.5 -0.397805 1.341951 -0.77937 1.06066 -1.06066 
C 0.77937 -1.341951 0.397805 -1.5 0 -1.5 
C -0.397805 -1.5 -0.77937 -1.341951 -1.06066 -1.06066 
C -1.341951 -0.77937 -1.5 -0.397805 -1.5 0 
C -1.5 0.397805 -1.341951 0.77937 -1.06066 1.06066 
C -0.77937 1.341951 -0.397805 1.5 0 1.5 
z
" style="stroke: #9467bd"/>
    </defs>
    <g clip-path="url(#pf13cb660f6)">
     <use xlink:href="#medaf1c5ff0" x="89.345455" y="200.571429" style="fill: #9467bd; stroke: #9467bd"/>
     <use xlink:href="#medaf1c5ff0" x="465.054545" y="166.285714" style="fill: #9467bd; stroke: #9467bd"/>
    </g>
   </g>
   <g id="line2d_20">
    <path d="M 89.345455 234.857143 
L 465.054545 200.571429 
" clip-path="url(#pf13cb660f6)" style="fill: none; stroke: #c5b0d5; stroke-width: 1.5; stroke-linecap: square"/>
    <defs>
     <path id="m7c97cd8318" d="M 0 1.5 
C 0.397805 1.5 0.77937 1.341951 1.06066 1.06066 
C 1.341951 0.77937 1.5 0.397805 1.5 0 
C 1.5 -0.397805 1.341951 -0.77937 1.06066 -1.06066 
C 0.77937 -1.341951 0.397805 -1.5 0 -1.5 
C -0.397805 -1.5 -0.77937 -1.341951 -1.06066 -1.06066 
C -1.341951 -0.77937 -1.5 -0.397805 -1.5 0 
C -1.5 0.397805 -1.341951 0.77937 -1.06066 1.06066 
C -0.77937 1.341951 -0.397805 1.5 0 1.5 
z
" style="stroke: #c5b0d5"/>
    </defs>
    <g clip-path="url(#pf13cb660f6)">
     <use xlink:href="#m7c97cd8318" x="89.345455" y="234.857143" style="fill: #c5b0d5; stroke: #c5b0d5"/>
     <use xlink:href="#m7c97cd8318" x="465.054545" y="200.571429" style="fill: #c5b0d5; stroke: #c5b0d5"/>
    </g>
   </g>
   <g id="line2d_21">
    <path d="M 89.345455 200.571429 
L 465.054545 63.428571 
" clip-path="url(#pf13cb660f6)" style="fill: none; stroke: #8c564b; stroke-width: 1.5; stroke-linecap: square"/>
    <defs>
     <path id="m3061a8b69f" d="M 0 1.5 
C 0.397805 1.5 0.77937 1.341951 1.06066 1.06066 
C 1.341951 0.77937 1.5 0.397805 1.5 0 
C 1.5 -0.397805 1.341951 -0.77937 1.06066 -1.06066 
C 0.77937 -1.341951 0.397805 -1.5 0 -1.5 
C -0.397805 -1.5 -0.77937 -1.341951 -1.06066 -1.06066 
C -1.341951 -0.77937 -1.5 -0.397805 -1.5 0 
C -1.5 0.397805 -1.341951 0.77937 -1.06066 1.06066 
C -0.77937 1.341951 -0.397805 1.5 0 1.5 
z
" style="stroke: #8c564b"/>
    </defs>
    <g clip-path="url(#pf13cb660f6)">
     <use xlink:href="#m3061a8b69f" x="89.345455" y="200.571429" style="fill: #8c564b; stroke: #8c564b"/>
     <use xlink:href="#m3061a8b69f" x="465.054545" y="63.428571" style="fill: #8c564b; stroke: #8c564b"/>
    </g>
   </g>
   <g id="line2d_22">
    <path d="M 89.345455 252 
L 465.054545 183.428571 
" clip-path="url(#pf13cb660f6)" style="fill: none; stroke: #c49c94; stroke-width: 1.5; stroke-linecap: square"/>
    <defs>
     <path id="mbb15db33ad" d="M 0 1.5 
C 0.397805 1.5 0.77937 1.341951 1.06066 1.06066 
C 1.341951 0.77937 1.5 0.397805 1.5 0 
C 1.5 -0.397805 1.341951 -0.77937 1.06066 -1.06066 
C 0.77937 -1.341951 0.397805 -1.5 0 -1.5 
C -0.397805 -1.5 -0.77937 -1.341951 -1.06066 -1.06066 
C -1.341951 -0.77937 -1.5 -0.397805 -1.5 0 
C -1.5 0.397805 -1.341951 0.77937 -1.06066 1.06066 
C -0.77937 1.341951 -0.397805 1.5 0 1.5 
z
" style="stroke: #c49c94"/>
    </defs>
    <g clip-path="url(#pf13cb660f6)">
     <use xlink:href="#mbb15db33ad" x="89.345455" y="252" style="fill: #c49c94; stroke: #c49c94"/>
     <use xlink:href="#mbb15db33ad" x="465.054545" y="183.428571" style="fill: #c49c94; stroke: #c49c94"/>
    </g>
   </g>
   <g id="line2d_23">
    <path d="M 89.345455 234.857143 
L 465.054545 200.571429 
" clip-path="url(#pf13cb660f6)" style="fill: none; stroke: #e377c2; stroke-width: 1.5; stroke-linecap: square"/>
    <defs>
     <path id="m15e22bb7f3" d="M 0 1.5 
C 0.397805 1.5 0.77937 1.341951 1.06066 1.06066 
C 1.341951 0.77937 1.5 0.397805 1.5 0 
C 1.5 -0.397805 1.341951 -0.77937 1.06066 -1.06066 
C 0.77937 -1.341951 0.397805 -1.5 0 -1.5 
C -0.397805 -1.5 -0.77937 -1.341951 -1.06066 -1.06066 
C -1.341951 -0.77937 -1.5 -0.397805 -1.5 0 
C -1.5 0.397805 -1.341951 0.77937 -1.06066 1.06066 
C -0.77937 1.341951 -0.397805 1.5 0 1.5 
z
" style="stroke: #e377c2"/>
    </defs>
    <g clip-path="url(#pf13cb660f6)">
     <use xlink:href="#m15e22bb7f3" x="89.345455" y="234.857143" style="fill: #e377c2; stroke: #e377c2"/>
     <use xlink:href="#m15e22bb7f3" x="465.054545" y="200.571429" style="fill: #e377c2; stroke: #e377c2"/>
    </g>
   </g>
   <g id="line2d_24">
    <path d="M 89.345455 183.428571 
L 465.054545 80.571429 
" clip-path="url(#pf13cb660f6)" style="fill: none; stroke: #f7b6d2; stroke-width: 1.5; stroke-linecap: square"/>
    <defs>
     <path id="m4d9a2637bc" d="M 0 1.5 
C 0.397805 1.5 0.77937 1.341951 1.06066 1.06066 
C 1.341951 0.77937 1.5 0.397805 1.5 0 
C 1.5 -0.397805 1.341951 -0.77937 1.06066 -1.06066 
C 0.77937 -1.341951 0.397805 -1.5 0 -1.5 
C -0.397805 -1.5 -0.77937 -1.341951 -1.06066 -1.06066 
C -1.341951 -0.77937 -1.5 -0.397805 -1.5 0 
C -1.5 0.397805 -1.341951 0.77937 -1.06066 1.06066 
C -0.77937 1.341951 -0.397805 1.5 0 1.5 
z
" style="stroke: #f7b6d2"/>
    </defs>
    <g clip-path="url(#pf13cb660f6)">
     <use xlink:href="#m4d9a2637bc" x="89.345455" y="183.428571" style="fill: #f7b6d2; stroke: #f7b6d2"/>
     <use xlink:href="#m4d9a2637bc" x="465.054545" y="80.571429" style="fill: #f7b6d2; stroke: #f7b6d2"/>
    </g>
   </g>
   <g id="line2d_25">
    <path d="M 89.345455 234.857143 
L 465.054545 132 
" clip-path="url(#pf13cb660f6)" style="fill: none; stroke: #7f7f7f; stroke-width: 1.5; stroke-linecap: square"/>
    <defs>
     <path id="mc46c7b1058" d="M 0 1.5 
C 0.397805 1.5 0.77937 1.341951 1.06066 1.06066 
C 1.341951 0.77937 1.5 0.397805 1.5 0 
C 1.5 -0.397805 1.341951 -0.77937 1.06066 -1.06066 
C 0.77937 -1.341951 0.397805 -1.5 0 -1.5 
C -0.397805 -1.5 -0.77937 -1.341951 -1.06066 -1.06066 
C -1.341951 -0.77937 -1.5 -0.397805 -1.5 0 
C -1.5 0.397805 -1.341951 0.77937 -1.06066 1.06066 
C -0.77937 1.341951 -0.397805 1.5 0 1.5 
z
" style="stroke: #7f7f7f"/>
    </defs>
    <g clip-path="url(#pf13cb660f6)">
     <use xlink:href="#mc46c7b1058" x="89.345455" y="234.857143" style="fill: #7f7f7f; stroke: #7f7f7f"/>
     <use xlink:href="#mc46c7b1058" x="465.054545" y="132" style="fill: #7f7f7f; stroke: #7f7f7f"/>
    </g>
   </g>
   <g id="line2d_26">
    <path d="M 89.345455 252 
L 465.054545 200.571429 
" clip-path="url(#pf13cb660f6)" style="fill: none; stroke: #c7c7c7; stroke-width: 1.5; stroke-linecap: square"/>
    <defs>
     <path id="ma18c6cb313" d="M 0 1.5 
C 0.397805 1.5 0.77937 1.341951 1.06066 1.06066 
C 1.341951 0.77937 1.5 0.397805 1.5 0 
C 1.5 -0.397805 1.341951 -0.77937 1.06066 -1.06066 
C 0.77937 -1.341951 0.397805 -1.5 0 -1.5 
C -0.397805 -1.5 -0.77937 -1.341951 -1.06066 -1.06066 
C -1.341951 -0.77937 -1.5 -0.397805 -1.5 0 
C -1.5 0.397805 -1.341951 0.77937 -1.06066 1.06066 
C -0.77937 1.341951 -0.397805 1.5 0 1.5 
z
" style="stroke: #c7c7c7"/>
    </defs>
    <g clip-path="url(#pf13cb660f6)">
     <use xlink:href="#ma18c6cb313" x="89.345455" y="252" style="fill: #c7c7c7; stroke: #c7c7c7"/>
     <use xlink:href="#ma18c6cb313" x="465.054545" y="200.571429" style="fill: #c7c7c7; stroke: #c7c7c7"/>
    </g>
   </g>
   <g id="line2d_27">
    <path d="M 89.345455 166.285714 
L 465.054545 114.857143 
" clip-path="url(#pf13cb660f6)" style="fill: none; stroke: #bcbd22; stroke-width: 1.5; stroke-linecap: square"/>
    <defs>
     <path id="mf4aa4c0cc1" d="M 0 1.5 
C 0.397805 1.5 0.77937 1.341951 1.06066 1.06066 
C 1.341951 0.77937 1.5 0.397805 1.5 0 
C 1.5 -0.397805 1.341951 -0.77937 1.06066 -1.06066 
C 0.77937 -1.341951 0.397805 -1.5 0 -1.5 
C -0.397805 -1.5 -0.77937 -1.341951 -1.06066 -1.06066 
C -1.341951 -0.77937 -1.5 -0.397805 -1.5 0 
C -1.5 0.397805 -1.341951 0.77937 -1.06066 1.06066 
C -0.77937 1.341951 -0.397805 1.5 0 1.5 
z
" style="stroke: #bcbd22"/>
    </defs>
    <g clip-path="url(#pf13cb660f6)">
     <use xlink:href="#mf4aa4c0cc1" x="89.345455" y="166.285714" style="fill: #bcbd22; stroke: #bcbd22"/>
     <use xlink:href="#mf4aa4c0cc1" x="465.054545" y="114.857143" style="fill: #bcbd22; stroke: #bcbd22"/>
    </g>
   </g>
   <g id="line2d_28">
    <path d="M 89.345455 252 
L 465.054545 234.857143 
" clip-path="url(#pf13cb660f6)" style="fill: none; stroke: #dbdb8d; stroke-width: 1.5; stroke-linecap: square"/>
    <defs>
     <path id="m5f590e6aa7" d="M 0 1.5 
C 0.397805 1.5 0.77937 1.341951 1.06066 1.06066 
C 1.341951 0.77937 1.5 0.397805 1.5 0 
C 1.5 -0.397805 1.341951 -0.77937 1.06066 -1.06066 
C 0.77937 -1.341951 0.397805 -1.5 0 -1.5 
C -0.397805 -1.5 -0.77937 -1.341951 -1.06066 -1.06066 
C -1.341951 -0.77937 -1.5 -0.397805 -1.5 0 
C -1.5 0.397805 -1.341951 0.77937 -1.06066 1.06066 
C -0.77937 1.341951 -0.397805 1.5 0 1.5 
z
" style="stroke: #dbdb8d"/>
    </defs>
    <g clip-path="url(#pf13cb660f6)">
     <use xlink:href="#m5f590e6aa7" x="89.345455" y="252" style="fill: #dbdb8d; stroke: #dbdb8d"/>
     <use xlink:href="#m5f590e6aa7" x="465.054545" y="234.857143" style="fill: #dbdb8d; stroke: #dbdb8d"/>
    </g>
   </g>
   <g id="patch_3">
    <path d="M 70.56 252 
L 70.56 36 
" style="fill: none; stroke: #c9c9c9; stroke-width: 0.8; stroke-linejoin: miter; stroke-linecap: square"/>
   </g>
   <g id="patch_4">
    <path d="M 483.84 252 
L 483.84 36 
" style="fill: none; stroke: #c9c9c9; stroke-width: 0.8; stroke-linejoin: miter; stroke-linecap: square"/>
   </g>
   <g id="patch_5">
    <path d="M 70.56 252 
L 483.84 252 
" style="fill: none; stroke: #c9c9c9; stroke-width: 0.8; stroke-linejoin: miter; stroke-linecap: square"/>
   </g>
   <g id="patch_6">
    <path d="M 70.56 36 
L 483.84 36 
" style="fill: none; stroke: #c9c9c9; stroke-width: 0.8; stroke-linejoin: miter; stroke-linecap: square"/>
   </g>
   <g id="text_12">
    <!-- Downloads por versão -->
    <g style="fill: #1a1a1a" transform="translate(70.56 24) scale(0.17 -0.17)">
     <defs>
      <path id="DejaVuSans-3" transform="scale(0.015625)"/>
      <path id="DejaVuSans-53" d="M 1159 525 
L 1159 -1331 
L 581 -1331 
L 581 3500 
L 1159 3500 
L 1159 2969 
Q 1341 3281 1617 3432 
Q 1894 3584 2278 3584 
Q 2916 3584 3314 3078 
Q 3713 2572 3713 1747 
Q 3713 922 3314 415 
Q 2916 -91 2278 -91 
Q 1894 -91 1617 61 
Q 1341 213 1159 525 
z
M 3116 1747 
Q 3116 2381 2855 2742 
Q 2594 3103 2138 3103 
Q 1681 3103 1420 2742 
Q 1159 2381 1159 1747 
Q 1159 1113 1420 752 
Q 1681 391 2138 391 
Q 2594 391 2855 752 
Q 3116 1113 3116 1747 
z
" transform="scale(0.015625)"/>
      <path id="DejaVuSans-55" d="M 2631 2963 
Q 2534 3019 2420 3045 
Q 2306 3072 2169 3072 
Q 1681 3072 1420 2755 
Q 1159 2438 1159 1844 
L 1159 0 
L 581 0 
L 581 3500 
L 1159 3500 
L 1159 2956 
Q 1341 3275 1631 3429 
Q 1922 3584 2338 3584 
Q 2397 3584 2469 3576 
Q 2541 3569 2628 3553 
L 2631 2963 
z
" transform="scale(0.015625)"/>
      <path id="DejaVuSans-59" d="M 191 3500 
L 800 3500 
L 1894 563 
L 2988 3500 
L 3597 3500 
L 2284 0 
L 1503 0 
L 191 3500 
z
" transform="scale(0.015625)"/>
      <path id="DejaVuSans-48" d="M 3597 1894 
L 3597 1613 
L 953 1613 
Q 991 1019 1311 708 
Q 1631 397 2203 397 
Q 2534 397 2845 478 
Q 3156 559 3463 722 
L 3463 178 
Q 3153 47 2828 -22 
Q 2503 -91 2169 -91 
Q 1331 -91 842 396 
Q 353 884 353 1716 
Q 353 2575 817 3079 
Q 1281 3584 2069 3584 
Q 2775 3584 3186 3129 
Q 3597 2675 3597 1894 
z
M 3022 2063 
Q 3016 2534 2758 2815 
Q 2500 3097 2075 3097 
Q 1594 3097 1305 2825 
Q 1016 2553 972 2059 
L 3022 2063 
z
" transform="scale(0.015625)"/>
      <path id="DejaVuSans-a5" d="M 2194 1759 
Q 1497 1759 1228 1600 
Q 959 1441 959 1056 
Q 959 750 1161 570 
Q 1363 391 1709 391 
Q 2188 391 2477 730 
Q 2766 1069 2766 1631 
L 2766 1759 
L 2194 1759 
z
M 3341 1997 
L 3341 0 
L 2766 0 
L 2766 531 
Q 2569 213 2275 61 
Q 1981 -91 1556 -91 
Q 1019 -91 701 211 
Q 384 513 384 1019 
Q 384 1609 779 1909 
Q 1175 2209 1959 2209 
L 2766 2209 
L 2766 2266 
Q 2766 2663 2505 2880 
Q 2244 3097 1772 3097 
Q 1472 3097 1187 3025 
Q 903 2953 641 2809 
L 641 3341 
Q 956 3463 1253 3523 
Q 1550 3584 1831 3584 
Q 2591 3584 2966 3190 
Q 3341 2797 3341 1997 
z
M 1844 4281 
L 1665 4453 
Q 1597 4516 1545 4545 
Q 1494 4575 1453 4575 
Q 1334 4575 1278 4461 
Q 1222 4347 1215 4091 
L 825 4091 
Q 831 4513 990 4742 
Q 1150 4972 1434 4972 
Q 1553 4972 1653 4928 
Q 1753 4884 1869 4781 
L 2047 4609 
Q 2115 4547 2167 4517 
Q 2219 4488 2259 4488 
Q 2378 4488 2434 4602 
Q 2490 4716 2497 4972 
L 2887 4972 
Q 2881 4550 2721 4320 
Q 2562 4091 2278 4091 
Q 2159 4091 2059 4134 
Q 1959 4178 1844 4281 
z
" transform="scale(0.015625)"/>
     </defs>
     <use xlink:href="#DejaVuSans-27"/>
     <use xlink:href="#DejaVuSans-52" transform="translate(77 0)"/>
     <use xlink:href="#DejaVuSans-5a" transform="translate(138.1875 0)"/>
     <use xlink:href="#DejaVuSans-51" transform="translate(219.96875 0)"/>
     <use xlink:href="#DejaVuSans-4f" transform="translate(283.34375 0)"/>
     <use xlink:href="#DejaVuSans-52" transform="translate(311.125 0)"/>
     <use xlink:href="#DejaVuSans-44" transform="translate(372.3125 0)"/>
     <use xlink:href="#DejaVuSans-47" transform="translate(433.59375 0)"/>
     <use xlink:href="#DejaVuSans-56" transform="translate(497.078125 0)"/>
     <use xlink:href="#DejaVuSans-3" transform="translate(549.171875 0)"/>
     <use xlink:href="#DejaVuSans-53" transform="translate(580.953125 0)"/>
     <use xlink:href="#DejaVuSans-52" transform="translate(644.4375 0)"/>
     <use xlink:href="#DejaVuSans-55" transform="translate(705.625 0)"/>
     <use xlink:href="#DejaVuSans-3" transform="translate(746.734375 0)"/>
     <use xlink:href="#DejaVuSans-59" transform="translate(778.515625 0)"/>
     <use xlink:href="#DejaVuSans-48" transform="translate(837.703125 0)"/>
     <use xlink:href="#DejaVuSans-55" transform="translate(899.234375 0)"/>
     <use xlink:href="#DejaVuSans-56" transform="translate(940.34375 0)"/>
     <use xlink:href="#DejaVuSans-a5" transform="translate(992.4375 0)"/>
     <use xlink:href="#DejaVuSans-52" transform="translate(1053.71875 0)"/>
    </g>
   </g>
   <g id="legend_1">
    <g id="line2d_29">
     <path d="M 94.95625 299.711563 
L 104.95625 299.711563 
L 114.95625 299.711563 
" style="fill: none; stroke: #1f77b4; stroke-width: 1.5; stroke-linecap: square"/>
     <g>
      <use xlink:href="#mf46849ae1e" x="104.95625" y="299.711563" style="fill: #1f77b4; stroke: #1f77b4"/>
     </g>
    </g>
    <g id="text_13">
     <!-- ACF -->
     <g transform="translate(122.95625 303.211563) scale(0.1 -0.1)">
      <defs>
       <path id="DejaVuSansMono-24" d="M 1925 4109 
L 1259 1722 
L 2591 1722 
L 1925 4109 
z
M 1544 4666 
L 2309 4666 
L 3738 0 
L 3084 0 
L 2741 1216 
L 1106 1216 
L 769 0 
L 116 0 
L 1544 4666 
z
" transform="scale(0.015625)"/>
       <path id="DejaVuSansMono-26" d="M 3353 166 
Q 3113 38 2859 -26 
Q 2606 -91 2322 -91 
Q 1425 -91 929 543 
Q 434 1178 434 2328 
Q 434 3472 932 4111 
Q 1431 4750 2322 4750 
Q 2606 4750 2859 4686 
Q 3113 4622 3353 4494 
L 3353 3847 
Q 3122 4038 2856 4138 
Q 2591 4238 2322 4238 
Q 1706 4238 1400 3763 
Q 1094 3288 1094 2328 
Q 1094 1372 1400 897 
Q 1706 422 2322 422 
Q 2597 422 2861 522 
Q 3125 622 3353 813 
L 3353 166 
z
" transform="scale(0.015625)"/>
       <path id="DejaVuSansMono-29" d="M 728 4666 
L 3475 4666 
L 3475 4134 
L 1363 4134 
L 1363 2759 
L 3278 2759 
L 3278 2228 
L 1363 2228 
L 1363 0 
L 728 0 
L 728 4666 
z
" transform="scale(0.015625)"/>
      </defs>
      <use xlink:href="#DejaVuSansMono-24"/>
      <use xlink:href="#DejaVuSansMono-26" transform="translate(60.203125 0)"/>
      <use xlink:href="#DejaVuSansMono-29" transform="translate(120.40625 0)"/>
     </g>
    </g>
    <g id="line2d_30">
     <path d="M 94.95625 314.765469 
L 104.95625 314.765469 
L 114.95625 314.765469 
" style="fill: none; stroke: #aec7e8; stroke-width: 1.5; stroke-linecap: square"/>
     <g>
      <use xlink:href="#m4209e9127c" x="104.95625" y="314.765469" style="fill: #aec7e8; stroke: #aec7e8"/>
     </g>
    </g>
    <g id="text_14">
     <!-- ALM1911 -->
     <g transform="translate(122.95625 318.265469) scale(0.1 -0.1)">
      <defs>
       <path id="DejaVuSansMono-2f" d="M 672 4666 
L 1306 4666 
L 1306 531 
L 3559 531 
L 3559 0 
L 672 0 
L 672 4666 
z
" transform="scale(0.015625)"/>
       <path id="DejaVuSansMono-30" d="M 269 4666 
L 1113 4666 
L 1919 2291 
L 2731 4666 
L 3578 4666 
L 3578 0 
L 2994 0 
L 2994 4122 
L 2163 1663 
L 1684 1663 
L 850 4122 
L 850 0 
L 269 0 
L 269 4666 
z
" transform="scale(0.015625)"/>
       <path id="DejaVuSansMono-1c" d="M 1863 2069 
Q 2266 2069 2495 2359 
Q 2725 2650 2725 3163 
Q 2725 3675 2495 3965 
Q 2266 4256 1863 4256 
Q 1444 4256 1231 3979 
Q 1019 3703 1019 3163 
Q 1019 2619 1230 2344 
Q 1441 2069 1863 2069 
z
M 738 97 
L 738 678 
Q 934 563 1156 502 
Q 1378 441 1619 441 
Q 2219 441 2526 892 
Q 2834 1344 2834 2222 
Q 2688 1909 2422 1742 
Q 2156 1575 1813 1575 
Q 1138 1575 767 1990 
Q 397 2406 397 3169 
Q 397 3922 776 4336 
Q 1156 4750 1850 4750 
Q 2663 4750 3041 4165 
Q 3419 3581 3419 2328 
Q 3419 1150 2964 529 
Q 2509 -91 1644 -91 
Q 1416 -91 1184 -42 
Q 953 6 738 97 
z
" transform="scale(0.015625)"/>
      </defs>
      <use xlink:href="#DejaVuSansMono-24"/>
      <use xlink:href="#DejaVuSansMono-2f" transform="translate(60.203125 0)"/>
      <use xlink:href="#DejaVuSansMono-30" transform="translate(120.40625 0)"/>
      <use xlink:href="#DejaVuSansMono-14" transform="translate(180.609375 0)"/>
      <use xlink:href="#DejaVuSansMono-1c" transform="translate(240.8125 0)"/>
      <use xlink:href="#DejaVuSansMono-14" transform="translate(301.015625 0)"/>
      <use xlink:href="#DejaVuSansMono-14" transform="translate(361.21875 0)"/>
     </g>
    </g>
    <g id="line2d_31">
     <path d="M 94.95625 329.819375 
L 104.95625 329.819375 
L 114.95625 329.819375 
" style="fill: none; stroke: #ff7f0e; stroke-width: 1.5; stroke-linecap: square"/>
     <g>
      <use xlink:href="#me263e545ac" x="104.95625" y="329.819375" style="fill: #ff7f0e; stroke: #ff7f0e"/>
     </g>
    </g>
    <g id="text_15">
     <!-- ARA -->
     <g transform="translate(122.95625 333.319375) scale(0.1 -0.1)">
      <defs>
       <path id="DejaVuSansMono-35" d="M 2375 2203 
Q 2619 2141 2791 1967 
Q 2963 1794 3219 1275 
L 3853 0 
L 3175 0 
L 2619 1178 
Q 2378 1681 2186 1826 
Q 1994 1972 1684 1972 
L 1081 1972 
L 1081 0 
L 447 0 
L 447 4666 
L 1747 4666 
Q 2516 4666 2925 4319 
Q 3334 3972 3334 3316 
Q 3334 2853 3082 2561 
Q 2831 2269 2375 2203 
z
M 1081 4147 
L 1081 2491 
L 1772 2491 
Q 2225 2491 2447 2694 
Q 2669 2897 2669 3316 
Q 2669 3719 2433 3933 
Q 2197 4147 1747 4147 
L 1081 4147 
z
" transform="scale(0.015625)"/>
      </defs>
      <use xlink:href="#DejaVuSansMono-24"/>
      <use xlink:href="#DejaVuSansMono-35" transform="translate(60.203125 0)"/>
      <use xlink:href="#DejaVuSansMono-24" transform="translate(120.40625 0)"/>
     </g>
    </g>
    <g id="line2d_32">
     <path d="M 94.95625 344.873281 
L 104.95625 344.873281 
L 114.95625 344.873281 
" style="fill: none; stroke: #ffbb78; stroke-width: 1.5; stroke-linecap: square"/>
     <g>
      <use xlink:href="#mc45f09f007" x="104.95625" y="344.873281" style="fill: #ffbb78; stroke: #ffbb78"/>
     </g>
    </g>
    <g id="text_16">
     <!-- ARC -->
     <g transform="translate(122.95625 348.373281) scale(0.1 -0.1)">
      <use xlink:href="#DejaVuSansMono-24"/>
      <use xlink:href="#DejaVuSansMono-35" transform="translate(60.203125 0)"/>
      <use xlink:href="#DejaVuSansMono-26" transform="translate(120.40625 0)"/>
     </g>
    </g>
    <g id="line2d_33">
     <path d="M 185.098437 299.711563 
L 195.098437 299.711563 
L 205.098437 299.711563 
" style="fill: none; stroke: #2ca02c; stroke-width: 1.5; stroke-linecap: square"/>
     <g>
      <use xlink:href="#mf750357b1c" x="195.098437" y="299.711563" style="fill: #2ca02c; stroke: #2ca02c"/>
     </g>
    </g>
    <g id="text_17">
     <!-- AS21 -->
     <g transform="translate(213.098437 303.211563) scale(0.1 -0.1)">
      <defs>
       <path id="DejaVuSansMono-36" d="M 3163 4506 
L 3163 3866 
Q 2875 4050 2586 4144 
Q 2297 4238 2003 4238 
Q 1556 4238 1297 4030 
Q 1038 3822 1038 3469 
Q 1038 3159 1208 2996 
Q 1378 2834 1844 2725 
L 2175 2650 
Q 2831 2497 3131 2169 
Q 3431 1841 3431 1275 
Q 3431 609 3018 259 
Q 2606 -91 1819 -91 
Q 1491 -91 1159 -20 
Q 828 50 494 191 
L 494 863 
Q 853 634 1173 528 
Q 1494 422 1819 422 
Q 2297 422 2562 636 
Q 2828 850 2828 1234 
Q 2828 1584 2645 1768 
Q 2463 1953 2009 2053 
L 1672 2131 
Q 1022 2278 728 2575 
Q 434 2872 434 3372 
Q 434 3997 854 4373 
Q 1275 4750 1972 4750 
Q 2241 4750 2537 4689 
Q 2834 4628 3163 4506 
z
" transform="scale(0.015625)"/>
      </defs>
      <use xlink:href="#DejaVuSansMono-24"/>
      <use xlink:href="#DejaVuSansMono-36" transform="translate(60.203125 0)"/>
      <use xlink:href="#DejaVuSansMono-15" transform="translate(120.40625 0)"/>
      <use xlink:href="#DejaVuSansMono-14" transform="translate(180.609375 0)"/>
     </g>
    </g>
    <g id="line2d_34">
     <path d="M 185.098437 314.765469 
L 195.098437 314.765469 
L 205.098437 314.765469 
" style="fill: none; stroke: #98df8a; stroke-width: 1.5; stroke-linecap: square"/>
     <g>
      <use xlink:href="#m7209f627e6" x="195.098437" y="314.765469" style="fill: #98df8a; stroke: #98df8a"/>
     </g>
    </g>
    <g id="text_18">
     <!-- BLIVRE -->
     <g transform="translate(213.098437 318.265469) scale(0.1 -0.1)">
      <defs>
       <path id="DejaVuSansMono-25" d="M 1153 2228 
L 1153 519 
L 1900 519 
Q 2450 519 2684 711 
Q 2919 903 2919 1344 
Q 2919 1800 2672 2014 
Q 2425 2228 1900 2228 
L 1153 2228 
z
M 1153 4147 
L 1153 2741 
L 1888 2741 
Q 2344 2741 2548 2916 
Q 2753 3091 2753 3481 
Q 2753 3834 2551 3990 
Q 2350 4147 1888 4147 
L 1153 4147 
z
M 519 4666 
L 1900 4666 
Q 2616 4666 3003 4356 
Q 3391 4047 3391 3481 
Q 3391 3053 3186 2806 
Q 2981 2559 2572 2497 
Q 3031 2428 3292 2104 
Q 3553 1781 3553 1281 
Q 3553 647 3137 323 
Q 2722 0 1900 0 
L 519 0 
L 519 4666 
z
" transform="scale(0.015625)"/>
       <path id="DejaVuSansMono-2c" d="M 628 4666 
L 3219 4666 
L 3219 4134 
L 2241 4134 
L 2241 531 
L 3219 531 
L 3219 0 
L 628 0 
L 628 531 
L 1606 531 
L 1606 4134 
L 628 4134 
L 628 4666 
z
" transform="scale(0.015625)"/>
       <path id="DejaVuSansMono-39" d="M 1925 531 
L 3022 4666 
L 3675 4666 
L 2309 0 
L 1544 0 
L 178 4666 
L 831 4666 
L 1925 531 
z
" transform="scale(0.015625)"/>
       <path id="DejaVuSansMono-28" d="M 616 4666 
L 3384 4666 
L 3384 4134 
L 1247 4134 
L 1247 2753 
L 3291 2753 
L 3291 2222 
L 1247 2222 
L 1247 531 
L 3444 531 
L 3444 0 
L 616 0 
L 616 4666 
z
" transform="scale(0.015625)"/>
      </defs>
      <use xlink:href="#DejaVuSansMono-25"/>
      <use xlink:href="#DejaVuSansMono-2f" transform="translate(60.203125 0)"/>
      <use xlink:href="#DejaVuSansMono-2c" transform="translate(120.40625 0)"/>
      <use xlink:href="#DejaVuSansMono-39" transform="translate(180.609375 0)"/>
      <use xlink:href="#DejaVuSansMono-35" transform="translate(240.8125 0)"/>
      <use xlink:href="#DejaVuSansMono-28" transform="translate(301.015625 0)"/>
     </g>
    </g>
    <g id="line2d_35">
     <path d="M 185.098437 329.819375 
L 195.098437 329.819375 
L 205.098437 329.819375 
" style="fill: none; stroke: #d62728; stroke-width: 1.5; stroke-linecap: square"/>
     <g>
      <use xlink:href="#m7d626a4755" x="195.098437" y="329.819375" style="fill: #d62728; stroke: #d62728"/>
     </g>
    </g>
    <g id="text_19">
     <!-- JFAA -->
     <g transform="translate(213.098437 333.319375) scale(0.1 -0.1)">
      <defs>
       <path id="DejaVuSansMono-2d" d="M 341 191 
L 341 928 
Q 625 675 928 548 
Q 1231 422 1556 422 
Q 2003 422 2179 655 
Q 2356 888 2356 1522 
L 2356 4134 
L 1166 4134 
L 1166 4666 
L 2988 4666 
L 2988 1522 
Q 2988 641 2658 275 
Q 2328 -91 1556 -91 
Q 1256 -91 959 -22 
Q 663 47 341 191 
z
" transform="scale(0.015625)"/>
      </defs>
      <use xlink:href="#DejaVuSansMono-2d"/>
      <use xlink:href="#DejaVuSansMono-29" transform="translate(60.203125 0)"/>
      <use xlink:href="#DejaVuSansMono-24" transform="translate(120.40625 0)"/>
      <use xlink:href="#DejaVuSansMono-24" transform="translate(180.609375 0)"/>
     </g>
    </g>
    <g id="line2d_36">
     <path d="M 185.098437 344.873281 
L 195.098437 344.873281 
L 205.098437 344.873281 
" style="fill: none; stroke: #ff9896; stroke-width: 1.5; stroke-linecap: square"/>
     <g>
      <use xlink:href="#m10a0b4799a" x="195.098437" y="344.873281" style="fill: #ff9896; stroke: #ff9896"/>
     </g>
    </g>
    <g id="text_20">
     <!-- KJA -->
     <g transform="translate(213.098437 348.373281) scale(0.1 -0.1)">
      <defs>
       <path id="DejaVuSansMono-2e" d="M 428 4666 
L 1063 4666 
L 1063 2591 
L 3034 4666 
L 3775 4666 
L 1959 2759 
L 3828 0 
L 3066 0 
L 1544 2338 
L 1063 1825 
L 1063 0 
L 428 0 
L 428 4666 
z
" transform="scale(0.015625)"/>
      </defs>
      <use xlink:href="#DejaVuSansMono-2e"/>
      <use xlink:href="#DejaVuSansMono-2d" transform="translate(60.203125 0)"/>
      <use xlink:href="#DejaVuSansMono-24" transform="translate(120.40625 0)"/>
     </g>
    </g>
    <g id="line2d_37">
     <path d="M 269.220312 299.711563 
L 279.220312 299.711563 
L 289.220312 299.711563 
" style="fill: none; stroke: #9467bd; stroke-width: 1.5; stroke-linecap: square"/>
     <g>
      <use xlink:href="#medaf1c5ff0" x="279.220312" y="299.711563" style="fill: #9467bd; stroke: #9467bd"/>
     </g>
    </g>
    <g id="text_21">
     <!-- KJF -->
     <g transform="translate(297.220312 303.211563) scale(0.1 -0.1)">
      <use xlink:href="#DejaVuSansMono-2e"/>
      <use xlink:href="#DejaVuSansMono-2d" transform="translate(60.203125 0)"/>
      <use xlink:href="#DejaVuSansMono-29" transform="translate(120.40625 0)"/>
     </g>
    </g>
    <g id="line2d_38">
     <path d="M 269.220312 314.765469 
L 279.220312 314.765469 
L 289.220312 314.765469 
" style="fill: none; stroke: #c5b0d5; stroke-width: 1.5; stroke-linecap: square"/>
     <g>
      <use xlink:href="#m7c97cd8318" x="279.220312" y="314.765469" style="fill: #c5b0d5; stroke: #c5b0d5"/>
     </g>
    </g>
    <g id="text_22">
     <!-- MENS -->
     <g transform="translate(297.220312 318.265469) scale(0.1 -0.1)">
      <defs>
       <path id="DejaVuSansMono-31" d="M 434 4666 
L 1234 4666 
L 2809 825 
L 2809 4666 
L 3419 4666 
L 3419 0 
L 2619 0 
L 1044 3841 
L 1044 0 
L 434 0 
L 434 4666 
z
" transform="scale(0.015625)"/>
      </defs>
      <use xlink:href="#DejaVuSansMono-30"/>
      <use xlink:href="#DejaVuSansMono-28" transform="translate(60.203125 0)"/>
      <use xlink:href="#DejaVuSansMono-31" transform="translate(120.40625 0)"/>
      <use xlink:href="#DejaVuSansMono-36" transform="translate(180.609375 0)"/>
     </g>
    </g>
    <g id="line2d_39">
     <path d="M 269.220312 329.819375 
L 279.220312 329.819375 
L 289.220312 329.819375 
" style="fill: none; stroke: #8c564b; stroke-width: 1.5; stroke-linecap: square"/>
     <g>
      <use xlink:href="#m3061a8b69f" x="279.220312" y="329.819375" style="fill: #8c564b; stroke: #8c564b"/>
     </g>
    </g>
    <g id="text_23">
     <!-- NAA -->
     <g transform="translate(297.220312 333.319375) scale(0.1 -0.1)">
      <use xlink:href="#DejaVuSansMono-31"/>
      <use xlink:href="#DejaVuSansMono-24" transform="translate(60.203125 0)"/>
      <use xlink:href="#DejaVuSansMono-24" transform="translate(120.40625 0)"/>
     </g>
    </g>
    <g id="line2d_40">
     <path d="M 269.220312 344.873281 
L 279.220312 344.873281 
L 289.220312 344.873281 
" style="fill: none; stroke: #c49c94; stroke-width: 1.5; stroke-linecap: square"/>
     <g>
      <use xlink:href="#mbb15db33ad" x="279.220312" y="344.873281" style="fill: #c49c94; stroke: #c49c94"/>
     </g>
    </g>
    <g id="text_24">
     <!-- NBV -->
     <g transform="translate(297.220312 348.373281) scale(0.1 -0.1)">
      <use xlink:href="#DejaVuSansMono-31"/>
      <use xlink:href="#DejaVuSansMono-25" transform="translate(60.203125 0)"/>
      <use xlink:href="#DejaVuSansMono-39" transform="translate(120.40625 0)"/>
     </g>
    </g>
    <g id="line2d_41">
     <path d="M 341.301562 299.711563 
L 351.301562 299.711563 
L 361.301562 299.711563 
" style="fill: none; stroke: #e377c2; stroke-width: 1.5; stroke-linecap: square"/>
     <g>
      <use xlink:href="#m15e22bb7f3" x="351.301562" y="299.711563" style="fill: #e377c2; stroke: #e377c2"/>
     </g>
    </g>
    <g id="text_25">
     <!-- NTLH -->
     <g transform="translate(369.301562 303.211563) scale(0.1 -0.1)">
      <defs>
       <path id="DejaVuSansMono-37" d="M 147 4666 
L 3706 4666 
L 3706 4134 
L 2247 4134 
L 2247 0 
L 1613 0 
L 1613 4134 
L 147 4134 
L 147 4666 
z
" transform="scale(0.015625)"/>
       <path id="DejaVuSansMono-2b" d="M 428 4666 
L 1063 4666 
L 1063 2753 
L 2791 2753 
L 2791 4666 
L 3425 4666 
L 3425 0 
L 2791 0 
L 2791 2222 
L 1063 2222 
L 1063 0 
L 428 0 
L 428 4666 
z
" transform="scale(0.015625)"/>
      </defs>
      <use xlink:href="#DejaVuSansMono-31"/>
      <use xlink:href="#DejaVuSansMono-37" transform="translate(60.203125 0)"/>
      <use xlink:href="#DejaVuSansMono-2f" transform="translate(120.40625 0)"/>
      <use xlink:href="#DejaVuSansMono-2b" transform="translate(180.609375 0)"/>
     </g>
    </g>
    <g id="line2d_42">
     <path d="M 341.301562 314.765469 
L 351.301562 314.765469 
L 361.301562 314.765469 
" style="fill: none; stroke: #f7b6d2; stroke-width: 1.5; stroke-linecap: square"/>
     <g>
      <use xlink:href="#m4d9a2637bc" x="351.301562" y="314.765469" style="fill: #f7b6d2; stroke: #f7b6d2"/>
     </g>
    </g>
    <g id="text_26">
     <!-- NVI -->
     <g transform="translate(369.301562 318.265469) scale(0.1 -0.1)">
      <use xlink:href="#DejaVuSansMono-31"/>
      <use xlink:href="#DejaVuSansMono-39" transform="translate(60.203125 0)"/>
      <use xlink:href="#DejaVuSansMono-2c" transform="translate(120.40625 0)"/>
     </g>
    </g>
    <g id="line2d_43">
     <path d="M 341.301562 329.819375 
L 351.301562 329.819375 
L 361.301562 329.819375 
" style="fill: none; stroke: #7f7f7f; stroke-width: 1.5; stroke-linecap: square"/>
     <g>
      <use xlink:href="#mc46c7b1058" x="351.301562" y="329.819375" style="fill: #7f7f7f; stroke: #7f7f7f"/>
     </g>
    </g>
    <g id="text_27">
     <!-- NVT -->
     <g transform="translate(369.301562 333.319375) scale(0.1 -0.1)">
      <use xlink:href="#DejaVuSansMono-31"/>
      <use xlink:href="#DejaVuSansMono-39" transform="translate(60.203125 0)"/>
      <use xlink:href="#DejaVuSansMono-37" transform="translate(120.40625 0)"/>
     </g>
    </g>
    <g id="line2d_44">
     <path d="M 413.382812 299.711563 
L 423.382812 299.711563 
L 433.382812 299.711563 
" style="fill: none; stroke: #c7c7c7; stroke-width: 1.5; stroke-linecap: square"/>
     <g>
      <use xlink:href="#ma18c6cb313" x="423.382812" y="299.711563" style="fill: #c7c7c7; stroke: #c7c7c7"/>
     </g>
    </g>
    <g id="text_28">
     <!-- OL -->
     <g transform="translate(441.382812 303.211563) scale(0.1 -0.1)">
      <defs>
       <path id="DejaVuSansMono-32" d="M 2828 2328 
Q 2828 3356 2617 3797 
Q 2406 4238 1925 4238 
Q 1447 4238 1236 3797 
Q 1025 3356 1025 2328 
Q 1025 1303 1236 862 
Q 1447 422 1925 422 
Q 2406 422 2617 861 
Q 2828 1300 2828 2328 
z
M 3488 2328 
Q 3488 1109 3102 509 
Q 2716 -91 1925 -91 
Q 1134 -91 750 506 
Q 366 1103 366 2328 
Q 366 3550 752 4150 
Q 1138 4750 1925 4750 
Q 2716 4750 3102 4150 
Q 3488 3550 3488 2328 
z
" transform="scale(0.015625)"/>
      </defs>
      <use xlink:href="#DejaVuSansMono-32"/>
      <use xlink:href="#DejaVuSansMono-2f" transform="translate(60.203125 0)"/>
     </g>
    </g>
    <g id="line2d_45">
     <path d="M 413.382812 314.765469 
L 423.382812 314.765469 
L 433.382812 314.765469 
" style="fill: none; stroke: #bcbd22; stroke-width: 1.5; stroke-linecap: square"/>
     <g>
      <use xlink:href="#mf4aa4c0cc1" x="423.382812" y="314.765469" style="fill: #bcbd22; stroke: #bcbd22"/>
     </g>
    </g>
    <g id="text_29">
     <!-- TB -->
     <g transform="translate(441.382812 318.265469) scale(0.1 -0.1)">
      <use xlink:href="#DejaVuSansMono-37"/>
      <use xlink:href="#DejaVuSansMono-25" transform="translate(60.203125 0)"/>
     </g>
    </g>
    <g id="line2d_46">
     <path d="M 413.382812 329.819375 
L 423.382812 329.819375 
L 433.382812 329.819375 
" style="fill: none; stroke: #dbdb8d; stroke-width: 1.5; stroke-linecap: square"/>
     <g>
      <use xlink:href="#m5f590e6aa7" x="423.382812" y="329.819375" style="fill: #dbdb8d; stroke: #dbdb8d"/>
     </g>
    </g>
    <g id="text_30">
     <!-- VFL -->
     <g transform="translate(441.382812 333.319375) scale(0.1 -0.1)">
      <use xlink:href="#DejaVuSansMono-39"/>
      <use xlink:href="#DejaVuSansMono-29" transform="translate(60.203125 0)"/>
      <use xlink:href="#DejaVuSansMono-2f" transform="translate(120.40625 0)"/>
     </g>
    </g>
   </g>
  </g>
 </g>
 <defs>
  <clipPath id="pf13cb660f6">
   <rect x="70.56" y="36" width="413.28" height="216"/>
  </clipPath>
 </defs>
</svg>
