<?xml version="1.0" encoding="utf-8" standalone="no"?>
<!DOCTYPE svg PUBLIC "-//W3C//DTD SVG 1.1//EN"
  "http://www.w3.org/Graphics/SVG/1.1/DTD/svg11.dtd">
<svg xmlns:xlink="http://www.w3.org/1999/xlink" width="792pt" height="432pt" viewBox="0 0 792 432" xmlns="http://www.w3.org/2000/svg" version="1.1">
 <metadata>
  <rdf:RDF xmlns:dc="http://purl.org/dc/elements/1.1/" xmlns:cc="http://creativecommons.org/ns#" xmlns:rdf="http://www.w3.org/1999/02/22-rdf-syntax-ns#">
   <cc:Work>
    <dc:type rdf:resource="http://purl.org/dc/dcmitype/StillImage"/>
    <dc:date>2026-06-13T09:56:03.880255</dc:date>
    <dc:format>image/svg+xml</dc:format>
    <dc:creator>
     <cc:Agent>
      <dc:title>Matplotlib v3.11.0, https://matplotlib.org/</dc:title>
     </cc:Agent>
    </dc:creator>
   </cc:Work>
  </rdf:RDF>
 </metadata>
 <defs>
  <style type="text/css">*{stroke-linejoin: round; stroke-linecap: butt}</style>
 </defs>
 <g id="figure_1">
  <g id="patch_1">
   <path d="M 0 432 
L 792 432 
L 792 0 
L 0 0 
z
" style="fill: #ffffff"/>
  </g>
  <g id="axes_1">
   <g id="patch_2">
    <path d="M 51.562344 376.779746 
L 781.2 376.779746 
L 781.2 26.16 
L 51.562344 26.16 
z
" style="fill: #ffffff"/>
   </g>
   <g id="FillBetweenPolyCollection_1">
    <defs>
     <path id="mb5175f9f07" d="M 84.727692 -71.157515 
L 84.727692 -73.254523 
L 192.520664 -75.351531 
L 199.22977 -77.448539 
L 262.742641 -79.545547 
L 272.582664 -81.642555 
L 372.771982 -83.739564 
L 386.637468 -85.836572 
L 398.266585 -87.93358 
L 409.001155 -90.030588 
L 412.132071 -92.127596 
L 412.132071 -94.224604 
L 419.735725 -96.321612 
L 428.6812 -98.41862 
L 442.546686 -100.515628 
L 446.124876 -102.612636 
L 449.255792 -104.709644 
L 459.095814 -106.806652 
L 459.543088 -108.90366 
L 464.463099 -111.000668 
L 466.699468 -113.097676 
L 472.066753 -115.194684 
L 476.092217 -117.291692 
L 478.328585 -119.3887 
L 479.223133 -121.485708 
L 479.670406 -123.582716 
L 480.11768 -125.679725 
L 482.354049 -127.776733 
L 489.063155 -129.873741 
L 493.088619 -131.970749 
L 493.983166 -134.067757 
L 496.666809 -136.164765 
L 497.561356 -138.261773 
L 504.717736 -140.358781 
L 505.16501 -142.455789 
L 506.059557 -144.552797 
L 512.768663 -146.649805 
L 515.452306 -148.746813 
L 527.975971 -150.843821 
L 535.579624 -152.940829 
L 537.368719 -155.037837 
L 539.157814 -157.134845 
L 539.157814 -159.231853 
L 540.052362 -161.328861 
L 541.841457 -163.425869 
L 543.183278 -165.522877 
L 545.86692 -167.619886 
L 547.208742 -169.716894 
L 551.681479 -171.813902 
L 553.917848 -173.91091 
L 555.706943 -176.007918 
L 556.154216 -178.104926 
L 557.943311 -180.201934 
L 561.968775 -182.298942 
L 561.968775 -184.39595 
L 565.546965 -186.492958 
L 565.546965 -188.589966 
L 567.33606 -190.686974 
L 568.677881 -192.783982 
L 570.019702 -194.88099 
L 571.361524 -196.977998 
L 571.361524 -199.075006 
L 578.517904 -201.172014 
L 581.64882 -203.269022 
L 583.437915 -205.36603 
L 585.22701 -207.463038 
L 595.96158 -209.560047 
L 596.856127 -211.657055 
L 602.670686 -213.754063 
L 607.590697 -215.851071 
L 608.932518 -217.948079 
L 609.827066 -220.045087 
L 609.827066 -222.142095 
L 610.721613 -224.239103 
L 612.063434 -226.336111 
L 612.957982 -228.433119 
L 615.641624 -230.530127 
L 617.430719 -232.627135 
L 622.35073 -234.724143 
L 623.245278 -236.821151 
L 624.139825 -238.918159 
L 627.718015 -241.015167 
L 629.50711 -243.112175 
L 639.794406 -245.209183 
L 641.583501 -247.306191 
L 649.634429 -249.403199 
L 652.318071 -251.500208 
L 655.896261 -253.597216 
L 657.238082 -255.694224 
L 657.685356 -257.791232 
L 659.474451 -259.88824 
L 660.816272 -261.985248 
L 663.499915 -264.082256 
L 674.681758 -266.179264 
L 674.681758 -268.276272 
L 678.259948 -270.37328 
L 679.601769 -272.470288 
L 681.390864 -274.567296 
L 683.179959 -276.664304 
L 685.863602 -278.761312 
L 686.758149 -280.85832 
L 688.547244 -282.955328 
L 688.994518 -285.052336 
L 690.336339 -287.149344 
L 691.230887 -289.246352 
L 694.361803 -291.34336 
L 696.150898 -293.440369 
L 696.598172 -295.537377 
L 699.729088 -297.634385 
L 700.176362 -299.731393 
L 701.070909 -301.828401 
L 701.518183 -303.925409 
L 710.016384 -306.022417 
L 710.016384 -308.119425 
L 711.805479 -310.216433 
L 712.700026 -312.313441 
L 713.1473 -314.410449 
L 714.041848 -316.507457 
L 714.489121 -318.604465 
L 716.278216 -320.701473 
L 717.172764 -322.798481 
L 718.961859 -324.895489 
L 719.856406 -326.992497 
L 721.198227 -329.089505 
L 721.198227 -331.186513 
L 722.092775 -333.283521 
L 722.540049 -335.38053 
L 724.329144 -337.477538 
L 725.223691 -339.574546 
L 725.670965 -341.671554 
L 726.565512 -343.768562 
L 727.012786 -345.86557 
L 727.012786 -347.962578 
L 732.380071 -350.059586 
L 732.827345 -352.156594 
L 733.721892 -354.253602 
L 735.063713 -356.35061 
L 735.958261 -358.447618 
L 737.747356 -360.544626 
L 737.747356 -362.641634 
L 738.19463 -364.738642 
L 739.089177 -366.83565 
L 739.536451 -368.932658 
L 739.983725 -371.029666 
L 740.430998 -373.126674 
L 740.430998 -375.223682 
L 740.878272 -377.320691 
L 744.009188 -379.417699 
L 744.456462 -381.514707 
L 744.903736 -383.611715 
L 746.245557 -385.708723 
L 747.587378 -387.805731 
L 748.034652 -389.902739 
L 748.034652 -71.157515 
L 748.034652 -71.157515 
L 747.587378 -71.157515 
L 746.245557 -71.157515 
L 744.903736 -71.157515 
L 744.456462 -71.157515 
L 744.009188 -71.157515 
L 740.878272 -71.157515 
L 740.430998 -71.157515 
L 740.430998 -71.157515 
L 739.983725 -71.157515 
L 739.536451 -71.157515 
L 739.089177 -71.157515 
L 738.19463 -71.157515 
L 737.747356 -71.157515 
L 737.747356 -71.157515 
L 735.958261 -71.157515 
L 735.063713 -71.157515 
L 733.721892 -71.157515 
L 732.827345 -71.157515 
L 732.380071 -71.157515 
L 727.012786 -71.157515 
L 727.012786 -71.157515 
L 726.565512 -71.157515 
L 725.670965 -71.157515 
L 725.223691 -71.157515 
L 724.329144 -71.157515 
L 722.540049 -71.157515 
L 722.092775 -71.157515 
L 721.198227 -71.157515 
L 721.198227 -71.157515 
L 719.856406 -71.157515 
L 718.961859 -71.157515 
L 717.172764 -71.157515 
L 716.278216 -71.157515 
L 714.489121 -71.157515 
L 714.041848 -71.157515 
L 713.1473 -71.157515 
L 712.700026 -71.157515 
L 711.805479 -71.157515 
L 710.016384 -71.157515 
L 710.016384 -71.157515 
L 701.518183 -71.157515 
L 701.070909 -71.157515 
L 700.176362 -71.157515 
L 699.729088 -71.157515 
L 696.598172 -71.157515 
L 696.150898 -71.157515 
L 694.361803 -71.157515 
L 691.230887 -71.157515 
L 690.336339 -71.157515 
L 688.994518 -71.157515 
L 688.547244 -71.157515 
L 686.758149 -71.157515 
L 685.863602 -71.157515 
L 683.179959 -71.157515 
L 681.390864 -71.157515 
L 679.601769 -71.157515 
L 678.259948 -71.157515 
L 674.681758 -71.157515 
L 674.681758 -71.157515 
L 663.499915 -71.157515 
L 660.816272 -71.157515 
L 659.474451 -71.157515 
L 657.685356 -71.157515 
L 657.238082 -71.157515 
L 655.896261 -71.157515 
L 652.318071 -71.157515 
L 649.634429 -71.157515 
L 641.583501 -71.157515 
L 639.794406 -71.157515 
L 629.50711 -71.157515 
L 627.718015 -71.157515 
L 624.139825 -71.157515 
L 623.245278 -71.157515 
L 622.35073 -71.157515 
L 617.430719 -71.157515 
L 615.641624 -71.157515 
L 612.957982 -71.157515 
L 612.063434 -71.157515 
L 610.721613 -71.157515 
L 609.827066 -71.157515 
L 609.827066 -71.157515 
L 608.932518 -71.157515 
L 607.590697 -71.157515 
L 602.670686 -71.157515 
L 596.856127 -71.157515 
L 595.96158 -71.157515 
L 585.22701 -71.157515 
L 583.437915 -71.157515 
L 581.64882 -71.157515 
L 578.517904 -71.157515 
L 571.361524 -71.157515 
L 571.361524 -71.157515 
L 570.019702 -71.157515 
L 568.677881 -71.157515 
L 567.33606 -71.157515 
L 565.546965 -71.157515 
L 565.546965 -71.157515 
L 561.968775 -71.157515 
L 561.968775 -71.157515 
L 557.943311 -71.157515 
L 556.154216 -71.157515 
L 555.706943 -71.157515 
L 553.917848 -71.157515 
L 551.681479 -71.157515 
L 547.208742 -71.157515 
L 545.86692 -71.157515 
L 543.183278 -71.157515 
L 541.841457 -71.157515 
L 540.052362 -71.157515 
L 539.157814 -71.157515 
L 539.157814 -71.157515 
L 537.368719 -71.157515 
L 535.579624 -71.157515 
L 527.975971 -71.157515 
L 515.452306 -71.157515 
L 512.768663 -71.157515 
L 506.059557 -71.157515 
L 505.16501 -71.157515 
L 504.717736 -71.157515 
L 497.561356 -71.157515 
L 496.666809 -71.157515 
L 493.983166 -71.157515 
L 493.088619 -71.157515 
L 489.063155 -71.157515 
L 482.354049 -71.157515 
L 480.11768 -71.157515 
L 479.670406 -71.157515 
L 479.223133 -71.157515 
L 478.328585 -71.157515 
L 476.092217 -71.157515 
L 472.066753 -71.157515 
L 466.699468 -71.157515 
L 464.463099 -71.157515 
L 459.543088 -71.157515 
L 459.095814 -71.157515 
L 449.255792 -71.157515 
L 446.124876 -71.157515 
L 442.546686 -71.157515 
L 428.6812 -71.157515 
L 419.735725 -71.157515 
L 412.132071 -71.157515 
L 412.132071 -71.157515 
L 409.001155 -71.157515 
L 398.266585 -71.157515 
L 386.637468 -71.157515 
L 372.771982 -71.157515 
L 272.582664 -71.157515 
L 262.742641 -71.157515 
L 199.22977 -71.157515 
L 192.520664 -71.157515 
L 84.727692 -71.157515 
z
" style="stroke: #f25278; stroke-opacity: 0.12"/>
    </defs>
    <g clip-path="url(#pd9f96c62cd)">
     <use xlink:href="#mb5175f9f07" x="0" y="432" style="fill: #f25278; fill-opacity: 0.12; stroke: #f25278; stroke-opacity: 0.12"/>
    </g>
   </g>
   <g id="matplotlib.axis_1">
    <g id="xtick_1">
     <g id="line2d_1">
      <path d="M 103.065915 376.779746 
L 103.065915 26.16 
" clip-path="url(#pd9f96c62cd)" style="fill: none; stroke: #b0b0b0; stroke-opacity: 0.3; stroke-width: 0.8; stroke-linecap: square"/>
     </g>
     <g id="line2d_2">
      <defs>
       <path id="m17393a2138" d="M 0 0 
L 0 3.5 
" style="stroke: #000000; stroke-width: 0.8"/>
      </defs>
      <g>
       <use xlink:href="#m17393a2138" x="103.065915" y="376.779746" style="stroke: #000000; stroke-width: 0.8"/>
      </g>
     </g>
     <g id="text_1">
      <!-- 07/22 -->
      <g transform="translate(76.906974 404.768884) rotate(-30) scale(0.1 -0.1)">
       <defs>
        <path id="DejaVuSans-13" d="M 2034 4250 
Q 1547 4250 1301 3770 
Q 1056 3291 1056 2328 
Q 1056 1369 1301 889 
Q 1547 409 2034 409 
Q 2525 409 2770 889 
Q 3016 1369 3016 2328 
Q 3016 3291 2770 3770 
Q 2525 4250 2034 4250 
z
M 2034 4750 
Q 2819 4750 3233 4129 
Q 3647 3509 3647 2328 
Q 3647 1150 3233 529 
Q 2819 -91 2034 -91 
Q 1250 -91 836 529 
Q 422 1150 422 2328 
Q 422 3509 836 4129 
Q 1250 4750 2034 4750 
z
" transform="scale(0.015625)"/>
        <path id="DejaVuSans-1a" d="M 525 4666 
L 3525 4666 
L 3525 4397 
L 1831 0 
L 1172 0 
L 2766 4134 
L 525 4134 
L 525 4666 
z
" transform="scale(0.015625)"/>
        <path id="DejaVuSans-12" d="M 1625 4666 
L 2156 4666 
L 531 -594 
L 0 -594 
L 1625 4666 
z
" transform="scale(0.015625)"/>
        <path id="DejaVuSans-15" d="M 1228 531 
L 3431 531 
L 3431 0 
L 469 0 
L 469 531 
Q 828 903 1448 1529 
Q 2069 2156 2228 2338 
Q 2531 2678 2651 2914 
Q 2772 3150 2772 3378 
Q 2772 3750 2511 3984 
Q 2250 4219 1831 4219 
Q 1534 4219 1204 4116 
Q 875 4013 500 3803 
L 500 4441 
Q 881 4594 1212 4672 
Q 1544 4750 1819 4750 
Q 2544 4750 2975 4387 
Q 3406 4025 3406 3419 
Q 3406 3131 3298 2873 
Q 3191 2616 2906 2266 
Q 2828 2175 2409 1742 
Q 1991 1309 1228 531 
z
" transform="scale(0.015625)"/>
       </defs>
       <use xlink:href="#DejaVuSans-13"/>
       <use xlink:href="#DejaVuSans-1a" transform="translate(63.625 0)"/>
       <use xlink:href="#DejaVuSans-12" transform="translate(127.25 0)"/>
       <use xlink:href="#DejaVuSans-15" transform="translate(160.9375 0)"/>
       <use xlink:href="#DejaVuSans-15" transform="translate(224.5625 0)"/>
      </g>
     </g>
    </g>
    <g id="xtick_2">
     <g id="line2d_3">
      <path d="M 185.364284 376.779746 
L 185.364284 26.16 
" clip-path="url(#pd9f96c62cd)" style="fill: none; stroke: #b0b0b0; stroke-opacity: 0.3; stroke-width: 0.8; stroke-linecap: square"/>
     </g>
     <g id="line2d_4">
      <g>
       <use xlink:href="#m17393a2138" x="185.364284" y="376.779746" style="stroke: #000000; stroke-width: 0.8"/>
      </g>
     </g>
     <g id="text_2">
      <!-- 01/23 -->
      <g transform="translate(159.205342 404.768884) rotate(-30) scale(0.1 -0.1)">
       <defs>
        <path id="DejaVuSans-14" d="M 794 531 
L 1825 531 
L 1825 4091 
L 703 3866 
L 703 4441 
L 1819 4666 
L 2450 4666 
L 2450 531 
L 3481 531 
L 3481 0 
L 794 0 
L 794 531 
z
" transform="scale(0.015625)"/>
        <path id="DejaVuSans-16" d="M 2597 2516 
Q 3050 2419 3304 2112 
Q 3559 1806 3559 1356 
Q 3559 666 3084 287 
Q 2609 -91 1734 -91 
Q 1441 -91 1130 -33 
Q 819 25 488 141 
L 488 750 
Q 750 597 1062 519 
Q 1375 441 1716 441 
Q 2309 441 2620 675 
Q 2931 909 2931 1356 
Q 2931 1769 2642 2001 
Q 2353 2234 1838 2234 
L 1294 2234 
L 1294 2753 
L 1863 2753 
Q 2328 2753 2575 2939 
Q 2822 3125 2822 3475 
Q 2822 3834 2567 4026 
Q 2313 4219 1838 4219 
Q 1578 4219 1281 4162 
Q 984 4106 628 3988 
L 628 4550 
Q 988 4650 1302 4700 
Q 1616 4750 1894 4750 
Q 2613 4750 3031 4423 
Q 3450 4097 3450 3541 
Q 3450 3153 3228 2886 
Q 3006 2619 2597 2516 
z
" transform="scale(0.015625)"/>
       </defs>
       <use xlink:href="#DejaVuSans-13"/>
       <use xlink:href="#DejaVuSans-14" transform="translate(63.625 0)"/>
       <use xlink:href="#DejaVuSans-12" transform="translate(127.25 0)"/>
       <use xlink:href="#DejaVuSans-15" transform="translate(160.9375 0)"/>
       <use xlink:href="#DejaVuSans-16" transform="translate(224.5625 0)"/>
      </g>
     </g>
    </g>
    <g id="xtick_3">
     <g id="line2d_5">
      <path d="M 266.320831 376.779746 
L 266.320831 26.16 
" clip-path="url(#pd9f96c62cd)" style="fill: none; stroke: #b0b0b0; stroke-opacity: 0.3; stroke-width: 0.8; stroke-linecap: square"/>
     </g>
     <g id="line2d_6">
      <g>
       <use xlink:href="#m17393a2138" x="266.320831" y="376.779746" style="stroke: #000000; stroke-width: 0.8"/>
      </g>
     </g>
     <g id="text_3">
      <!-- 07/23 -->
      <g transform="translate(240.16189 404.768884) rotate(-30) scale(0.1 -0.1)">
       <use xlink:href="#DejaVuSans-13"/>
       <use xlink:href="#DejaVuSans-1a" transform="translate(63.625 0)"/>
       <use xlink:href="#DejaVuSans-12" transform="translate(127.25 0)"/>
       <use xlink:href="#DejaVuSans-15" transform="translate(160.9375 0)"/>
       <use xlink:href="#DejaVuSans-16" transform="translate(224.5625 0)"/>
      </g>
     </g>
    </g>
    <g id="xtick_4">
     <g id="line2d_7">
      <path d="M 348.6192 376.779746 
L 348.6192 26.16 
" clip-path="url(#pd9f96c62cd)" style="fill: none; stroke: #b0b0b0; stroke-opacity: 0.3; stroke-width: 0.8; stroke-linecap: square"/>
     </g>
     <g id="line2d_8">
      <g>
       <use xlink:href="#m17393a2138" x="348.6192" y="376.779746" style="stroke: #000000; stroke-width: 0.8"/>
      </g>
     </g>
     <g id="text_4">
      <!-- 01/24 -->
      <g transform="translate(322.460258 404.768884) rotate(-30) scale(0.1 -0.1)">
       <defs>
        <path id="DejaVuSans-17" d="M 2419 4116 
L 825 1625 
L 2419 1625 
L 2419 4116 
z
M 2253 4666 
L 3047 4666 
L 3047 1625 
L 3713 1625 
L 3713 1100 
L 3047 1100 
L 3047 0 
L 2419 0 
L 2419 1100 
L 313 1100 
L 313 1709 
L 2253 4666 
z
" transform="scale(0.015625)"/>
       </defs>
       <use xlink:href="#DejaVuSans-13"/>
       <use xlink:href="#DejaVuSans-14" transform="translate(63.625 0)"/>
       <use xlink:href="#DejaVuSans-12" transform="translate(127.25 0)"/>
       <use xlink:href="#DejaVuSans-15" transform="translate(160.9375 0)"/>
       <use xlink:href="#DejaVuSans-17" transform="translate(224.5625 0)"/>
      </g>
     </g>
    </g>
    <g id="xtick_5">
     <g id="line2d_9">
      <path d="M 430.023021 376.779746 
L 430.023021 26.16 
" clip-path="url(#pd9f96c62cd)" style="fill: none; stroke: #b0b0b0; stroke-opacity: 0.3; stroke-width: 0.8; stroke-linecap: square"/>
     </g>
     <g id="line2d_10">
      <g>
       <use xlink:href="#m17393a2138" x="430.023021" y="376.779746" style="stroke: #000000; stroke-width: 0.8"/>
      </g>
     </g>
     <g id="text_5">
      <!-- 07/24 -->
      <g transform="translate(403.86408 404.768884) rotate(-30) scale(0.1 -0.1)">
       <use xlink:href="#DejaVuSans-13"/>
       <use xlink:href="#DejaVuSans-1a" transform="translate(63.625 0)"/>
       <use xlink:href="#DejaVuSans-12" transform="translate(127.25 0)"/>
       <use xlink:href="#DejaVuSans-15" transform="translate(160.9375 0)"/>
       <use xlink:href="#DejaVuSans-17" transform="translate(224.5625 0)"/>
      </g>
     </g>
    </g>
    <g id="xtick_6">
     <g id="line2d_11">
      <path d="M 512.32139 376.779746 
L 512.32139 26.16 
" clip-path="url(#pd9f96c62cd)" style="fill: none; stroke: #b0b0b0; stroke-opacity: 0.3; stroke-width: 0.8; stroke-linecap: square"/>
     </g>
     <g id="line2d_12">
      <g>
       <use xlink:href="#m17393a2138" x="512.32139" y="376.779746" style="stroke: #000000; stroke-width: 0.8"/>
      </g>
     </g>
     <g id="text_6">
      <!-- 01/25 -->
      <g transform="translate(486.162448 404.768884) rotate(-30) scale(0.1 -0.1)">
       <defs>
        <path id="DejaVuSans-18" d="M 691 4666 
L 3169 4666 
L 3169 4134 
L 1269 4134 
L 1269 2991 
Q 1406 3038 1543 3061 
Q 1681 3084 1819 3084 
Q 2600 3084 3056 2656 
Q 3513 2228 3513 1497 
Q 3513 744 3044 326 
Q 2575 -91 1722 -91 
Q 1428 -91 1123 -41 
Q 819 9 494 109 
L 494 744 
Q 775 591 1075 516 
Q 1375 441 1709 441 
Q 2250 441 2565 725 
Q 2881 1009 2881 1497 
Q 2881 1984 2565 2268 
Q 2250 2553 1709 2553 
Q 1456 2553 1204 2497 
Q 953 2441 691 2322 
L 691 4666 
z
" transform="scale(0.015625)"/>
       </defs>
       <use xlink:href="#DejaVuSans-13"/>
       <use xlink:href="#DejaVuSans-14" transform="translate(63.625 0)"/>
       <use xlink:href="#DejaVuSans-12" transform="translate(127.25 0)"/>
       <use xlink:href="#DejaVuSans-15" transform="translate(160.9375 0)"/>
       <use xlink:href="#DejaVuSans-18" transform="translate(224.5625 0)"/>
      </g>
     </g>
    </g>
    <g id="xtick_7">
     <g id="line2d_13">
      <path d="M 593.277937 376.779746 
L 593.277937 26.16 
" clip-path="url(#pd9f96c62cd)" style="fill: none; stroke: #b0b0b0; stroke-opacity: 0.3; stroke-width: 0.8; stroke-linecap: square"/>
     </g>
     <g id="line2d_14">
      <g>
       <use xlink:href="#m17393a2138" x="593.277937" y="376.779746" style="stroke: #000000; stroke-width: 0.8"/>
      </g>
     </g>
     <g id="text_7">
      <!-- 07/25 -->
      <g transform="translate(567.118996 404.768884) rotate(-30) scale(0.1 -0.1)">
       <use xlink:href="#DejaVuSans-13"/>
       <use xlink:href="#DejaVuSans-1a" transform="translate(63.625 0)"/>
       <use xlink:href="#DejaVuSans-12" transform="translate(127.25 0)"/>
       <use xlink:href="#DejaVuSans-15" transform="translate(160.9375 0)"/>
       <use xlink:href="#DejaVuSans-18" transform="translate(224.5625 0)"/>
      </g>
     </g>
    </g>
    <g id="xtick_8">
     <g id="line2d_15">
      <path d="M 675.576306 376.779746 
L 675.576306 26.16 
" clip-path="url(#pd9f96c62cd)" style="fill: none; stroke: #b0b0b0; stroke-opacity: 0.3; stroke-width: 0.8; stroke-linecap: square"/>
     </g>
     <g id="line2d_16">
      <g>
       <use xlink:href="#m17393a2138" x="675.576306" y="376.779746" style="stroke: #000000; stroke-width: 0.8"/>
      </g>
     </g>
     <g id="text_8">
      <!-- 01/26 -->
      <g transform="translate(649.417364 404.768884) rotate(-30) scale(0.1 -0.1)">
       <defs>
        <path id="DejaVuSans-19" d="M 2113 2584 
Q 1688 2584 1439 2293 
Q 1191 2003 1191 1497 
Q 1191 994 1439 701 
Q 1688 409 2113 409 
Q 2538 409 2786 701 
Q 3034 994 3034 1497 
Q 3034 2003 2786 2293 
Q 2538 2584 2113 2584 
z
M 3366 4563 
L 3366 3988 
Q 3128 4100 2886 4159 
Q 2644 4219 2406 4219 
Q 1781 4219 1451 3797 
Q 1122 3375 1075 2522 
Q 1259 2794 1537 2939 
Q 1816 3084 2150 3084 
Q 2853 3084 3261 2657 
Q 3669 2231 3669 1497 
Q 3669 778 3244 343 
Q 2819 -91 2113 -91 
Q 1303 -91 875 529 
Q 447 1150 447 2328 
Q 447 3434 972 4092 
Q 1497 4750 2381 4750 
Q 2619 4750 2861 4703 
Q 3103 4656 3366 4563 
z
" transform="scale(0.015625)"/>
       </defs>
       <use xlink:href="#DejaVuSans-13"/>
       <use xlink:href="#DejaVuSans-14" transform="translate(63.625 0)"/>
       <use xlink:href="#DejaVuSans-12" transform="translate(127.25 0)"/>
       <use xlink:href="#DejaVuSans-15" transform="translate(160.9375 0)"/>
       <use xlink:href="#DejaVuSans-19" transform="translate(224.5625 0)"/>
      </g>
     </g>
    </g>
    <g id="xtick_9">
     <g id="line2d_17">
      <path d="M 756.532853 376.779746 
L 756.532853 26.16 
" clip-path="url(#pd9f96c62cd)" style="fill: none; stroke: #b0b0b0; stroke-opacity: 0.3; stroke-width: 0.8; stroke-linecap: square"/>
     </g>
     <g id="line2d_18">
      <g>
       <use xlink:href="#m17393a2138" x="756.532853" y="376.779746" style="stroke: #000000; stroke-width: 0.8"/>
      </g>
     </g>
     <g id="text_9">
      <!-- 07/26 -->
      <g transform="translate(730.373912 404.768884) rotate(-30) scale(0.1 -0.1)">
       <use xlink:href="#DejaVuSans-13"/>
       <use xlink:href="#DejaVuSans-1a" transform="translate(63.625 0)"/>
       <use xlink:href="#DejaVuSans-12" transform="translate(127.25 0)"/>
       <use xlink:href="#DejaVuSans-15" transform="translate(160.9375 0)"/>
       <use xlink:href="#DejaVuSans-19" transform="translate(224.5625 0)"/>
      </g>
     </g>
    </g>
    <g id="text_10">
     <!-- Data -->
     <g transform="translate(404.442891 418.447031) scale(0.1 -0.1)">
      <defs>
       <path id="DejaVuSans-27" d="M 1259 4147 
L 1259 519 
L 2022 519 
Q 2988 519 3436 956 
Q 3884 1394 3884 2338 
Q 3884 3275 3436 3711 
Q 2988 4147 2022 4147 
L 1259 4147 
z
M 628 4666 
L 1925 4666 
Q 3281 4666 3915 4102 
Q 4550 3538 4550 2338 
Q 4550 1131 3912 565 
Q 3275 0 1925 0 
L 628 0 
L 628 4666 
z
" transform="scale(0.015625)"/>
       <path id="DejaVuSans-44" d="M 2194 1759 
Q 1497 1759 1228 1600 
Q 959 1441 959 1056 
Q 959 750 1161 570 
Q 1363 391 1709 391 
Q 2188 391 2477 730 
Q 2766 1069 2766 1631 
L 2766 1759 
L 2194 1759 
z
M 3341 1997 
L 3341 0 
L 2766 0 
L 2766 531 
Q 2569 213 2275 61 
Q 1981 -91 1556 -91 
Q 1019 -91 701 211 
Q 384 513 384 1019 
Q 384 1609 779 1909 
Q 1175 2209 1959 2209 
L 2766 2209 
L 2766 2266 
Q 2766 2663 2505 2880 
Q 2244 3097 1772 3097 
Q 1472 3097 1187 3025 
Q 903 2953 641 2809 
L 641 3341 
Q 956 3463 1253 3523 
Q 1550 3584 1831 3584 
Q 2591 3584 2966 3190 
Q 3341 2797 3341 1997 
z
" transform="scale(0.015625)"/>
       <path id="DejaVuSans-57" d="M 1172 4494 
L 1172 3500 
L 2356 3500 
L 2356 3053 
L 1172 3053 
L 1172 1153 
Q 1172 725 1289 603 
Q 1406 481 1766 481 
L 2356 481 
L 2356 0 
L 1766 0 
Q 1100 0 847 248 
Q 594 497 594 1153 
L 594 3053 
L 172 3053 
L 172 3500 
L 594 3500 
L 594 4494 
L 1172 4494 
z
" transform="scale(0.015625)"/>
      </defs>
      <use xlink:href="#DejaVuSans-27"/>
      <use xlink:href="#DejaVuSans-44" transform="translate(77 0)"/>
      <use xlink:href="#DejaVuSans-57" transform="translate(138.28125 0)"/>
      <use xlink:href="#DejaVuSans-44" transform="translate(177.484375 0)"/>
     </g>
    </g>
   </g>
   <g id="matplotlib.axis_2">
    <g id="ytick_1">
     <g id="line2d_19">
      <path d="M 51.562344 360.842485 
L 781.2 360.842485 
" clip-path="url(#pd9f96c62cd)" style="fill: none; stroke: #b0b0b0; stroke-opacity: 0.3; stroke-width: 0.8; stroke-linecap: square"/>
     </g>
     <g id="line2d_20">
      <defs>
       <path id="mb663f7accd" d="M 0 0 
L -3.5 0 
" style="stroke: #000000; stroke-width: 0.8"/>
      </defs>
      <g>
       <use xlink:href="#mb663f7accd" x="51.562344" y="360.842485" style="stroke: #000000; stroke-width: 0.8"/>
      </g>
     </g>
     <g id="text_11">
      <!-- 0 -->
      <g transform="translate(38.199844 364.641313) scale(0.1 -0.1)">
       <use xlink:href="#DejaVuSans-13"/>
      </g>
     </g>
    </g>
    <g id="ytick_2">
     <g id="line2d_21">
      <path d="M 51.562344 318.902324 
L 781.2 318.902324 
" clip-path="url(#pd9f96c62cd)" style="fill: none; stroke: #b0b0b0; stroke-opacity: 0.3; stroke-width: 0.8; stroke-linecap: square"/>
     </g>
     <g id="line2d_22">
      <g>
       <use xlink:href="#mb663f7accd" x="51.562344" y="318.902324" style="stroke: #000000; stroke-width: 0.8"/>
      </g>
     </g>
     <g id="text_12">
      <!-- 20 -->
      <g transform="translate(31.837344 322.701152) scale(0.1 -0.1)">
       <use xlink:href="#DejaVuSans-15"/>
       <use xlink:href="#DejaVuSans-13" transform="translate(63.625 0)"/>
      </g>
     </g>
    </g>
    <g id="ytick_3">
     <g id="line2d_23">
      <path d="M 51.562344 276.962163 
L 781.2 276.962163 
" clip-path="url(#pd9f96c62cd)" style="fill: none; stroke: #b0b0b0; stroke-opacity: 0.3; stroke-width: 0.8; stroke-linecap: square"/>
     </g>
     <g id="line2d_24">
      <g>
       <use xlink:href="#mb663f7accd" x="51.562344" y="276.962163" style="stroke: #000000; stroke-width: 0.8"/>
      </g>
     </g>
     <g id="text_13">
      <!-- 40 -->
      <g transform="translate(31.837344 280.760991) scale(0.1 -0.1)">
       <use xlink:href="#DejaVuSans-17"/>
       <use xlink:href="#DejaVuSans-13" transform="translate(63.625 0)"/>
      </g>
     </g>
    </g>
    <g id="ytick_4">
     <g id="line2d_25">
      <path d="M 51.562344 235.022002 
L 781.2 235.022002 
" clip-path="url(#pd9f96c62cd)" style="fill: none; stroke: #b0b0b0; stroke-opacity: 0.3; stroke-width: 0.8; stroke-linecap: square"/>
     </g>
     <g id="line2d_26">
      <g>
       <use xlink:href="#mb663f7accd" x="51.562344" y="235.022002" style="stroke: #000000; stroke-width: 0.8"/>
      </g>
     </g>
     <g id="text_14">
      <!-- 60 -->
      <g transform="translate(31.837344 238.82083) scale(0.1 -0.1)">
       <use xlink:href="#DejaVuSans-19"/>
       <use xlink:href="#DejaVuSans-13" transform="translate(63.625 0)"/>
      </g>
     </g>
    </g>
    <g id="ytick_5">
     <g id="line2d_27">
      <path d="M 51.562344 193.081841 
L 781.2 193.081841 
" clip-path="url(#pd9f96c62cd)" style="fill: none; stroke: #b0b0b0; stroke-opacity: 0.3; stroke-width: 0.8; stroke-linecap: square"/>
     </g>
     <g id="line2d_28">
      <g>
       <use xlink:href="#mb663f7accd" x="51.562344" y="193.081841" style="stroke: #000000; stroke-width: 0.8"/>
      </g>
     </g>
     <g id="text_15">
      <!-- 80 -->
      <g transform="translate(31.837344 196.880669) scale(0.1 -0.1)">
       <defs>
        <path id="DejaVuSans-1b" d="M 2034 2216 
Q 1584 2216 1326 1975 
Q 1069 1734 1069 1313 
Q 1069 891 1326 650 
Q 1584 409 2034 409 
Q 2484 409 2743 651 
Q 3003 894 3003 1313 
Q 3003 1734 2745 1975 
Q 2488 2216 2034 2216 
z
M 1403 2484 
Q 997 2584 770 2862 
Q 544 3141 544 3541 
Q 544 4100 942 4425 
Q 1341 4750 2034 4750 
Q 2731 4750 3128 4425 
Q 3525 4100 3525 3541 
Q 3525 3141 3298 2862 
Q 3072 2584 2669 2484 
Q 3125 2378 3379 2068 
Q 3634 1759 3634 1313 
Q 3634 634 3220 271 
Q 2806 -91 2034 -91 
Q 1263 -91 848 271 
Q 434 634 434 1313 
Q 434 1759 690 2068 
Q 947 2378 1403 2484 
z
M 1172 3481 
Q 1172 3119 1398 2916 
Q 1625 2713 2034 2713 
Q 2441 2713 2670 2916 
Q 2900 3119 2900 3481 
Q 2900 3844 2670 4047 
Q 2441 4250 2034 4250 
Q 1625 4250 1398 4047 
Q 1172 3844 1172 3481 
z
" transform="scale(0.015625)"/>
       </defs>
       <use xlink:href="#DejaVuSans-1b"/>
       <use xlink:href="#DejaVuSans-13" transform="translate(63.625 0)"/>
      </g>
     </g>
    </g>
    <g id="ytick_6">
     <g id="line2d_29">
      <path d="M 51.562344 151.14168 
L 781.2 151.14168 
" clip-path="url(#pd9f96c62cd)" style="fill: none; stroke: #b0b0b0; stroke-opacity: 0.3; stroke-width: 0.8; stroke-linecap: square"/>
     </g>
     <g id="line2d_30">
      <g>
       <use xlink:href="#mb663f7accd" x="51.562344" y="151.14168" style="stroke: #000000; stroke-width: 0.8"/>
      </g>
     </g>
     <g id="text_16">
      <!-- 100 -->
      <g transform="translate(25.474844 154.940508) scale(0.1 -0.1)">
       <use xlink:href="#DejaVuSans-14"/>
       <use xlink:href="#DejaVuSans-13" transform="translate(63.625 0)"/>
       <use xlink:href="#DejaVuSans-13" transform="translate(127.25 0)"/>
      </g>
     </g>
    </g>
    <g id="ytick_7">
     <g id="line2d_31">
      <path d="M 51.562344 109.201519 
L 781.2 109.201519 
" clip-path="url(#pd9f96c62cd)" style="fill: none; stroke: #b0b0b0; stroke-opacity: 0.3; stroke-width: 0.8; stroke-linecap: square"/>
     </g>
     <g id="line2d_32">
      <g>
       <use xlink:href="#mb663f7accd" x="51.562344" y="109.201519" style="stroke: #000000; stroke-width: 0.8"/>
      </g>
     </g>
     <g id="text_17">
      <!-- 120 -->
      <g transform="translate(25.474844 113.000347) scale(0.1 -0.1)">
       <use xlink:href="#DejaVuSans-14"/>
       <use xlink:href="#DejaVuSans-15" transform="translate(63.625 0)"/>
       <use xlink:href="#DejaVuSans-13" transform="translate(127.25 0)"/>
      </g>
     </g>
    </g>
    <g id="ytick_8">
     <g id="line2d_33">
      <path d="M 51.562344 67.261358 
L 781.2 67.261358 
" clip-path="url(#pd9f96c62cd)" style="fill: none; stroke: #b0b0b0; stroke-opacity: 0.3; stroke-width: 0.8; stroke-linecap: square"/>
     </g>
     <g id="line2d_34">
      <g>
       <use xlink:href="#mb663f7accd" x="51.562344" y="67.261358" style="stroke: #000000; stroke-width: 0.8"/>
      </g>
     </g>
     <g id="text_18">
      <!-- 140 -->
      <g transform="translate(25.474844 71.060186) scale(0.1 -0.1)">
       <use xlink:href="#DejaVuSans-14"/>
       <use xlink:href="#DejaVuSans-17" transform="translate(63.625 0)"/>
       <use xlink:href="#DejaVuSans-13" transform="translate(127.25 0)"/>
      </g>
     </g>
    </g>
    <g id="text_19">
     <!-- Estrelas -->
     <g transform="translate(19.0725 221.273779) rotate(-90) scale(0.1 -0.1)">
      <defs>
       <path id="DejaVuSans-28" d="M 628 4666 
L 3578 4666 
L 3578 4134 
L 1259 4134 
L 1259 2753 
L 3481 2753 
L 3481 2222 
L 1259 2222 
L 1259 531 
L 3634 531 
L 3634 0 
L 628 0 
L 628 4666 
z
" transform="scale(0.015625)"/>
       <path id="DejaVuSans-56" d="M 2834 3397 
L 2834 2853 
Q 2591 2978 2328 3040 
Q 2066 3103 1784 3103 
Q 1356 3103 1142 2972 
Q 928 2841 928 2578 
Q 928 2378 1081 2264 
Q 1234 2150 1697 2047 
L 1894 2003 
Q 2506 1872 2764 1633 
Q 3022 1394 3022 966 
Q 3022 478 2636 193 
Q 2250 -91 1575 -91 
Q 1294 -91 989 -36 
Q 684 19 347 128 
L 347 722 
Q 666 556 975 473 
Q 1284 391 1588 391 
Q 1994 391 2212 530 
Q 2431 669 2431 922 
Q 2431 1156 2273 1281 
Q 2116 1406 1581 1522 
L 1381 1569 
Q 847 1681 609 1914 
Q 372 2147 372 2553 
Q 372 3047 722 3315 
Q 1072 3584 1716 3584 
Q 2034 3584 2315 3537 
Q 2597 3491 2834 3397 
z
" transform="scale(0.015625)"/>
       <path id="DejaVuSans-55" d="M 2631 2963 
Q 2534 3019 2420 3045 
Q 2306 3072 2169 3072 
Q 1681 3072 1420 2755 
Q 1159 2438 1159 1844 
L 1159 0 
L 581 0 
L 581 3500 
L 1159 3500 
L 1159 2956 
Q 1341 3275 1631 3429 
Q 1922 3584 2338 3584 
Q 2397 3584 2469 3576 
Q 2541 3569 2628 3553 
L 2631 2963 
z
" transform="scale(0.015625)"/>
       <path id="DejaVuSans-48" d="M 3597 1894 
L 3597 1613 
L 953 1613 
Q 991 1019 1311 708 
Q 1631 397 2203 397 
Q 2534 397 2845 478 
Q 3156 559 3463 722 
L 3463 178 
Q 3153 47 2828 -22 
Q 2503 -91 2169 -91 
Q 1331 -91 842 396 
Q 353 884 353 1716 
Q 353 2575 817 3079 
Q 1281 3584 2069 3584 
Q 2775 3584 3186 3129 
Q 3597 2675 3597 1894 
z
M 3022 2063 
Q 3016 2534 2758 2815 
Q 2500 3097 2075 3097 
Q 1594 3097 1305 2825 
Q 1016 2553 972 2059 
L 3022 2063 
z
" transform="scale(0.015625)"/>
       <path id="DejaVuSans-4f" d="M 603 4863 
L 1178 4863 
L 1178 0 
L 603 0 
L 603 4863 
z
" transform="scale(0.015625)"/>
      </defs>
      <use xlink:href="#DejaVuSans-28"/>
      <use xlink:href="#DejaVuSans-56" transform="translate(63.1875 0)"/>
      <use xlink:href="#DejaVuSans-57" transform="translate(115.28125 0)"/>
      <use xlink:href="#DejaVuSans-55" transform="translate(154.484375 0)"/>
      <use xlink:href="#DejaVuSans-48" transform="translate(193.390625 0)"/>
      <use xlink:href="#DejaVuSans-4f" transform="translate(254.921875 0)"/>
      <use xlink:href="#DejaVuSans-44" transform="translate(282.703125 0)"/>
      <use xlink:href="#DejaVuSans-56" transform="translate(343.984375 0)"/>
     </g>
    </g>
   </g>
   <g id="line2d_35">
    <path d="M 84.727692 358.745477 
L 192.520664 356.648469 
L 199.22977 354.551461 
L 262.742641 352.454453 
L 272.582664 350.357445 
L 372.771982 348.260436 
L 386.637468 346.163428 
L 398.266585 344.06642 
L 409.001155 341.969412 
L 412.132071 339.872404 
L 412.132071 337.775396 
L 419.735725 335.678388 
L 428.6812 333.58138 
L 442.546686 331.484372 
L 446.124876 329.387364 
L 449.255792 327.290356 
L 459.095814 325.193348 
L 459.543088 323.09634 
L 464.463099 320.999332 
L 466.699468 318.902324 
L 472.066753 316.805316 
L 476.092217 314.708308 
L 478.328585 312.6113 
L 479.223133 310.514292 
L 480.11768 306.320275 
L 482.354049 304.223267 
L 489.063155 302.126259 
L 493.088619 300.029251 
L 493.983166 297.932243 
L 496.666809 295.835235 
L 497.561356 293.738227 
L 504.717736 291.641219 
L 505.16501 289.544211 
L 506.059557 287.447203 
L 512.768663 285.350195 
L 515.452306 283.253187 
L 527.975971 281.156179 
L 535.579624 279.059171 
L 539.157814 274.865155 
L 539.157814 272.768147 
L 540.052362 270.671139 
L 541.841457 268.574131 
L 543.183278 266.477123 
L 545.86692 264.380114 
L 547.208742 262.283106 
L 551.681479 260.186098 
L 553.917848 258.08909 
L 555.706943 255.992082 
L 556.154216 253.895074 
L 557.943311 251.798066 
L 561.968775 249.701058 
L 561.968775 247.60405 
L 565.546965 245.507042 
L 565.546965 243.410034 
L 567.33606 241.313026 
L 571.361524 235.022002 
L 571.361524 232.924994 
L 578.517904 230.827986 
L 581.64882 228.730978 
L 585.22701 224.536962 
L 595.96158 222.439953 
L 596.856127 220.342945 
L 602.670686 218.245937 
L 607.590697 216.148929 
L 608.932518 214.051921 
L 609.827066 211.954913 
L 609.827066 209.857905 
L 610.721613 207.760897 
L 612.063434 205.663889 
L 612.957982 203.566881 
L 615.641624 201.469873 
L 617.430719 199.372865 
L 622.35073 197.275857 
L 624.139825 193.081841 
L 627.718015 190.984833 
L 629.50711 188.887825 
L 639.794406 186.790817 
L 641.583501 184.693809 
L 649.634429 182.596801 
L 652.318071 180.499792 
L 655.896261 178.402784 
L 657.238082 176.305776 
L 657.685356 174.208768 
L 659.474451 172.11176 
L 660.816272 170.014752 
L 663.499915 167.917744 
L 674.681758 165.820736 
L 674.681758 163.723728 
L 678.259948 161.62672 
L 679.601769 159.529712 
L 683.179959 155.335696 
L 685.863602 153.238688 
L 686.758149 151.14168 
L 688.547244 149.044672 
L 688.994518 146.947664 
L 690.336339 144.850656 
L 691.230887 142.753648 
L 694.361803 140.65664 
L 696.150898 138.559631 
L 696.598172 136.462623 
L 699.729088 134.365615 
L 700.176362 132.268607 
L 701.070909 130.171599 
L 701.518183 128.074591 
L 710.016384 125.977583 
L 710.016384 123.880575 
L 711.805479 121.783567 
L 712.700026 119.686559 
L 713.1473 117.589551 
L 714.041848 115.492543 
L 714.489121 113.395535 
L 716.278216 111.298527 
L 717.172764 109.201519 
L 718.961859 107.104511 
L 719.856406 105.007503 
L 721.198227 102.910495 
L 721.198227 100.813487 
L 722.092775 98.716479 
L 722.540049 96.61947 
L 724.329144 94.522462 
L 725.223691 92.425454 
L 725.670965 90.328446 
L 726.565512 88.231438 
L 727.012786 86.13443 
L 727.012786 84.037422 
L 732.380071 81.940414 
L 732.827345 79.843406 
L 733.721892 77.746398 
L 735.063713 75.64939 
L 735.958261 73.552382 
L 737.747356 71.455374 
L 737.747356 69.358366 
L 738.19463 67.261358 
L 739.089177 65.16435 
L 740.430998 58.873326 
L 740.430998 56.776318 
L 740.878272 54.679309 
L 744.009188 52.582301 
L 744.903736 48.388285 
L 747.587378 44.194269 
L 748.034652 42.097261 
L 748.034652 42.097261 
" clip-path="url(#pd9f96c62cd)" style="fill: none; stroke: #f25278; stroke-width: 2; stroke-linecap: square"/>
   </g>
   <g id="patch_3">
    <path d="M 51.562344 376.779746 
L 51.562344 26.16 
" style="fill: none; stroke: #000000; stroke-width: 0.8; stroke-linejoin: miter; stroke-linecap: square"/>
   </g>
   <g id="patch_4">
    <path d="M 781.2 376.779746 
L 781.2 26.16 
" style="fill: none; stroke: #000000; stroke-width: 0.8; stroke-linejoin: miter; stroke-linecap: square"/>
   </g>
   <g id="patch_5">
    <path d="M 51.562344 376.779746 
L 781.2 376.779746 
" style="fill: none; stroke: #000000; stroke-width: 0.8; stroke-linejoin: miter; stroke-linecap: square"/>
   </g>
   <g id="patch_6">
    <path d="M 51.562344 26.16 
L 781.2 26.16 
" style="fill: none; stroke: #000000; stroke-width: 0.8; stroke-linejoin: miter; stroke-linecap: square"/>
   </g>
   <g id="text_20">
    <!-- Estrelas ao longo do tempo -->
    <g transform="translate(334.170859 20.16) scale(0.12 -0.12)">
     <defs>
      <path id="DejaVuSans-3" transform="scale(0.015625)"/>
      <path id="DejaVuSans-52" d="M 1959 3097 
Q 1497 3097 1228 2736 
Q 959 2375 959 1747 
Q 959 1119 1226 758 
Q 1494 397 1959 397 
Q 2419 397 2687 759 
Q 2956 1122 2956 1747 
Q 2956 2369 2687 2733 
Q 2419 3097 1959 3097 
z
M 1959 3584 
Q 2709 3584 3137 3096 
Q 3566 2609 3566 1747 
Q 3566 888 3137 398 
Q 2709 -91 1959 -91 
Q 1206 -91 779 398 
Q 353 888 353 1747 
Q 353 2609 779 3096 
Q 1206 3584 1959 3584 
z
" transform="scale(0.015625)"/>
      <path id="DejaVuSans-51" d="M 3513 2113 
L 3513 0 
L 2938 0 
L 2938 2094 
Q 2938 2591 2744 2837 
Q 2550 3084 2163 3084 
Q 1697 3084 1428 2787 
Q 1159 2491 1159 1978 
L 1159 0 
L 581 0 
L 581 3500 
L 1159 3500 
L 1159 2956 
Q 1366 3272 1645 3428 
Q 1925 3584 2291 3584 
Q 2894 3584 3203 3211 
Q 3513 2838 3513 2113 
z
" transform="scale(0.015625)"/>
      <path id="DejaVuSans-4a" d="M 2906 1791 
Q 2906 2416 2648 2759 
Q 2391 3103 1925 3103 
Q 1463 3103 1205 2759 
Q 947 2416 947 1791 
Q 947 1169 1205 825 
Q 1463 481 1925 481 
Q 2391 481 2648 825 
Q 2906 1169 2906 1791 
z
M 3481 434 
Q 3481 -459 3084 -895 
Q 2688 -1331 1869 -1331 
Q 1566 -1331 1297 -1286 
Q 1028 -1241 775 -1147 
L 775 -588 
Q 1028 -725 1275 -790 
Q 1522 -856 1778 -856 
Q 2344 -856 2625 -561 
Q 2906 -266 2906 331 
L 2906 616 
Q 2728 306 2450 153 
Q 2172 0 1784 0 
Q 1141 0 747 490 
Q 353 981 353 1791 
Q 353 2603 747 3093 
Q 1141 3584 1784 3584 
Q 2172 3584 2450 3431 
Q 2728 3278 2906 2969 
L 2906 3500 
L 3481 3500 
L 3481 434 
z
" transform="scale(0.015625)"/>
      <path id="DejaVuSans-47" d="M 2906 2969 
L 2906 4863 
L 3481 4863 
L 3481 0 
L 2906 0 
L 2906 525 
Q 2725 213 2448 61 
Q 2172 -91 1784 -91 
Q 1150 -91 751 415 
Q 353 922 353 1747 
Q 353 2572 751 3078 
Q 1150 3584 1784 3584 
Q 2172 3584 2448 3432 
Q 2725 3281 2906 2969 
z
M 947 1747 
Q 947 1113 1208 752 
Q 1469 391 1925 391 
Q 2381 391 2643 752 
Q 2906 1113 2906 1747 
Q 2906 2381 2643 2742 
Q 2381 3103 1925 3103 
Q 1469 3103 1208 2742 
Q 947 2381 947 1747 
z
" transform="scale(0.015625)"/>
      <path id="DejaVuSans-50" d="M 3328 2828 
Q 3544 3216 3844 3400 
Q 4144 3584 4550 3584 
Q 5097 3584 5394 3201 
Q 5691 2819 5691 2113 
L 5691 0 
L 5113 0 
L 5113 2094 
Q 5113 2597 4934 2840 
Q 4756 3084 4391 3084 
Q 3944 3084 3684 2787 
Q 3425 2491 3425 1978 
L 3425 0 
L 2847 0 
L 2847 2094 
Q 2847 2600 2669 2842 
Q 2491 3084 2119 3084 
Q 1678 3084 1418 2786 
Q 1159 2488 1159 1978 
L 1159 0 
L 581 0 
L 581 3500 
L 1159 3500 
L 1159 2956 
Q 1356 3278 1631 3431 
Q 1906 3584 2284 3584 
Q 2666 3584 2933 3390 
Q 3200 3197 3328 2828 
z
" transform="scale(0.015625)"/>
      <path id="DejaVuSans-53" d="M 1159 525 
L 1159 -1331 
L 581 -1331 
L 581 3500 
L 1159 3500 
L 1159 2969 
Q 1341 3281 1617 3432 
Q 1894 3584 2278 3584 
Q 2916 3584 3314 3078 
Q 3713 2572 3713 1747 
Q 3713 922 3314 415 
Q 2916 -91 2278 -91 
Q 1894 -91 1617 61 
Q 1341 213 1159 525 
z
M 3116 1747 
Q 3116 2381 2855 2742 
Q 2594 3103 2138 3103 
Q 1681 3103 1420 2742 
Q 1159 2381 1159 1747 
Q 1159 1113 1420 752 
Q 1681 391 2138 391 
Q 2594 391 2855 752 
Q 3116 1113 3116 1747 
z
" transform="scale(0.015625)"/>
     </defs>
     <use xlink:href="#DejaVuSans-28"/>
     <use xlink:href="#DejaVuSans-56" transform="translate(63.1875 0)"/>
     <use xlink:href="#DejaVuSans-57" transform="translate(115.28125 0)"/>
     <use xlink:href="#DejaVuSans-55" transform="translate(154.484375 0)"/>
     <use xlink:href="#DejaVuSans-48" transform="translate(193.390625 0)"/>
     <use xlink:href="#DejaVuSans-4f" transform="translate(254.921875 0)"/>
     <use xlink:href="#DejaVuSans-44" transform="translate(282.703125 0)"/>
     <use xlink:href="#DejaVuSans-56" transform="translate(343.984375 0)"/>
     <use xlink:href="#DejaVuSans-3" transform="translate(396.078125 0)"/>
     <use xlink:href="#DejaVuSans-44" transform="translate(427.859375 0)"/>
     <use xlink:href="#DejaVuSans-52" transform="translate(489.140625 0)"/>
     <use xlink:href="#DejaVuSans-3" transform="translate(550.328125 0)"/>
     <use xlink:href="#DejaVuSans-4f" transform="translate(582.109375 0)"/>
     <use xlink:href="#DejaVuSans-52" transform="translate(609.890625 0)"/>
     <use xlink:href="#DejaVuSans-51" transform="translate(671.078125 0)"/>
     <use xlink:href="#DejaVuSans-4a" transform="translate(734.453125 0)"/>
     <use xlink:href="#DejaVuSans-52" transform="translate(797.9375 0)"/>
     <use xlink:href="#DejaVuSans-3" transform="translate(859.125 0)"/>
     <use xlink:href="#DejaVuSans-47" transform="translate(890.90625 0)"/>
     <use xlink:href="#DejaVuSans-52" transform="translate(954.390625 0)"/>
     <use xlink:href="#DejaVuSans-3" transform="translate(1015.578125 0)"/>
     <use xlink:href="#DejaVuSans-57" transform="translate(1047.359375 0)"/>
     <use xlink:href="#DejaVuSans-48" transform="translate(1086.5625 0)"/>
     <use xlink:href="#DejaVuSans-50" transform="translate(1148.09375 0)"/>
     <use xlink:href="#DejaVuSans-53" transform="translate(1245.5 0)"/>
     <use xlink:href="#DejaVuSans-52" transform="translate(1308.984375 0)"/>
    </g>
   </g>
  </g>
 </g>
 <defs>
  <clipPath id="pd9f96c62cd">
   <rect x="51.562344" y="26.16" width="729.637656" height="350.619746"/>
  </clipPath>
 </defs>
</svg>
