<?xml version="1.0" encoding="utf-8" standalone="no"?>
<!DOCTYPE svg PUBLIC "-//W3C//DTD SVG 1.1//EN"
  "http://www.w3.org/Graphics/SVG/1.1/DTD/svg11.dtd">
<svg xmlns:xlink="http://www.w3.org/1999/xlink" width="455.786484pt" height="309.297344pt" viewBox="0 0 455.786484 309.297344" xmlns="http://www.w3.org/2000/svg" version="1.1">
 <metadata>
  <rdf:RDF xmlns:dc="http://purl.org/dc/elements/1.1/" xmlns:cc="http://creativecommons.org/ns#" xmlns:rdf="http://www.w3.org/1999/02/22-rdf-syntax-ns#">
   <cc:Work>
    <dc:type rdf:resource="http://purl.org/dc/dcmitype/StillImage"/>
    <dc:date>2026-06-13T10:26:36.188629</dc:date>
    <dc:format>image/svg+xml</dc:format>
    <dc:creator>
     <cc:Agent>
      <dc:title>Matplotlib v3.11.0, https://matplotlib.org/</dc:title>
     </cc:Agent>
    </dc:creator>
   </cc:Work>
  </rdf:RDF>
 </metadata>
 <defs>
  <style type="text/css">*{stroke-linejoin: round; stroke-linecap: butt}</style>
 </defs>
 <g id="figure_1">
  <g id="patch_1">
   <path d="M 0 309.297344 
L 455.786484 309.297344 
L 455.786484 0 
L 0 0 
z
" style="fill: #ffffff"/>
  </g>
  <g id="axes_1">
   <g id="patch_2">
    <path d="M 57.986484 281.597344 
L 448.586484 281.597344 
L 448.586484 32.117344 
L 57.986484 32.117344 
z
" style="fill: #ffffff"/>
   </g>
   <g id="FillBetweenPolyCollection_1">
    <defs>
     <path id="m0a3d7e1f1b" d="M 75.74103 -27.7 
L 75.74103 -29.263158 
L 133.446296 -30.826316 
L 137.03791 -32.389474 
L 171.038523 -33.952632 
L 176.306223 -35.515789 
L 229.940993 -37.078947 
L 237.363662 -38.642105 
L 243.589126 -40.205263 
L 249.335709 -41.768421 
L 251.011795 -43.331579 
L 251.011795 -44.894737 
L 255.082291 -46.457895 
L 259.87111 -48.021053 
L 267.293779 -49.584211 
L 269.209307 -51.147368 
L 270.885393 -52.710526 
L 276.153094 -54.273684 
L 276.392535 -55.836842 
L 279.026385 -57.4 
L 280.22359 -58.963158 
L 283.096881 -60.526316 
L 285.251849 -62.089474 
L 286.449054 -63.652632 
L 286.927936 -65.215789 
L 287.167377 -66.778947 
L 287.406818 -68.342105 
L 288.604023 -69.905263 
L 292.195637 -71.468421 
L 294.350605 -73.031579 
L 294.829487 -74.594737 
L 296.266133 -76.157895 
L 296.745014 -77.721053 
L 300.576069 -79.284211 
L 300.81551 -80.847368 
L 301.294392 -82.410526 
L 304.886006 -83.973684 
L 306.322652 -85.536842 
L 313.026998 -87.1 
L 317.097494 -88.663158 
L 318.055258 -90.226316 
L 319.013021 -91.789474 
L 319.013021 -93.352632 
L 319.491903 -94.915789 
L 320.449667 -96.478947 
L 321.16799 -98.042105 
L 322.604636 -99.605263 
L 323.322958 -101.168421 
L 325.717368 -102.731579 
L 326.914572 -104.294737 
L 327.872336 -105.857895 
L 328.111777 -107.421053 
L 329.069541 -108.984211 
L 331.224509 -110.547368 
L 331.224509 -112.110526 
L 333.140037 -113.673684 
L 333.140037 -115.236842 
L 334.097801 -116.8 
L 334.816123 -118.363158 
L 335.534446 -119.926316 
L 336.252769 -121.489474 
L 336.252769 -123.052632 
L 340.083824 -124.615789 
L 341.75991 -126.178947 
L 342.717674 -127.742105 
L 343.675438 -129.305263 
L 349.42202 -130.868421 
L 349.900902 -132.431579 
L 353.013635 -133.994737 
L 355.647485 -135.557895 
L 356.365808 -137.121053 
L 356.844689 -138.684211 
L 356.844689 -140.247368 
L 357.323571 -141.810526 
L 358.041894 -143.373684 
L 358.520776 -144.936842 
L 359.957422 -146.5 
L 360.915185 -148.063158 
L 363.549036 -149.626316 
L 364.027918 -151.189474 
L 364.506799 -152.752632 
L 366.422327 -154.315789 
L 367.380091 -155.878947 
L 372.887232 -157.442105 
L 373.844996 -159.005263 
L 378.154933 -160.568421 
L 379.591578 -162.131579 
L 381.507106 -163.694737 
L 382.225429 -165.257895 
L 382.46487 -166.821053 
L 383.422633 -168.384211 
L 384.140956 -169.947368 
L 385.577602 -171.510526 
L 391.563625 -173.073684 
L 391.563625 -174.636842 
L 393.479153 -176.2 
L 394.197476 -177.763158 
L 395.155239 -179.326316 
L 396.113003 -180.889474 
L 397.549649 -182.452632 
L 398.028531 -184.015789 
L 398.986294 -185.578947 
L 399.225735 -187.142105 
L 399.944058 -188.705263 
L 400.42294 -190.268421 
L 402.099027 -191.831579 
L 403.05679 -193.394737 
L 403.296231 -194.957895 
L 404.972318 -196.521053 
L 405.211759 -198.084211 
L 405.690641 -199.647368 
L 405.930082 -201.210526 
L 410.479459 -202.773684 
L 410.479459 -204.336842 
L 411.437223 -205.9 
L 411.916105 -207.463158 
L 412.155546 -209.026316 
L 412.634428 -210.589474 
L 412.873869 -212.152632 
L 413.831632 -213.715789 
L 414.310514 -215.278947 
L 415.268278 -216.842105 
L 415.74716 -218.405263 
L 416.465483 -219.968421 
L 416.465483 -221.531579 
L 416.944365 -223.094737 
L 417.183806 -224.657895 
L 418.141569 -226.221053 
L 418.620451 -227.784211 
L 418.859892 -229.347368 
L 419.338774 -230.910526 
L 419.578215 -232.473684 
L 419.578215 -234.036842 
L 422.451506 -235.6 
L 422.690947 -237.163158 
L 423.169829 -238.726316 
L 423.888152 -240.289474 
L 424.367034 -241.852632 
L 425.324797 -243.415789 
L 425.324797 -244.978947 
L 425.564238 -246.542105 
L 426.04312 -248.105263 
L 426.282561 -249.668421 
L 426.522002 -251.231579 
L 426.761443 -252.794737 
L 426.761443 -254.357895 
L 427.000884 -255.921053 
L 428.67697 -257.484211 
L 428.916411 -259.047368 
L 429.155852 -260.610526 
L 429.874175 -262.173684 
L 430.592498 -263.736842 
L 430.831939 -265.3 
L 430.831939 -27.7 
L 430.831939 -27.7 
L 430.592498 -27.7 
L 429.874175 -27.7 
L 429.155852 -27.7 
L 428.916411 -27.7 
L 428.67697 -27.7 
L 427.000884 -27.7 
L 426.761443 -27.7 
L 426.761443 -27.7 
L 426.522002 -27.7 
L 426.282561 -27.7 
L 426.04312 -27.7 
L 425.564238 -27.7 
L 425.324797 -27.7 
L 425.324797 -27.7 
L 424.367034 -27.7 
L 423.888152 -27.7 
L 423.169829 -27.7 
L 422.690947 -27.7 
L 422.451506 -27.7 
L 419.578215 -27.7 
L 419.578215 -27.7 
L 419.338774 -27.7 
L 418.859892 -27.7 
L 418.620451 -27.7 
L 418.141569 -27.7 
L 417.183806 -27.7 
L 416.944365 -27.7 
L 416.465483 -27.7 
L 416.465483 -27.7 
L 415.74716 -27.7 
L 415.268278 -27.7 
L 414.310514 -27.7 
L 413.831632 -27.7 
L 412.873869 -27.7 
L 412.634428 -27.7 
L 412.155546 -27.7 
L 411.916105 -27.7 
L 411.437223 -27.7 
L 410.479459 -27.7 
L 410.479459 -27.7 
L 405.930082 -27.7 
L 405.690641 -27.7 
L 405.211759 -27.7 
L 404.972318 -27.7 
L 403.296231 -27.7 
L 403.05679 -27.7 
L 402.099027 -27.7 
L 400.42294 -27.7 
L 399.944058 -27.7 
L 399.225735 -27.7 
L 398.986294 -27.7 
L 398.028531 -27.7 
L 397.549649 -27.7 
L 396.113003 -27.7 
L 395.155239 -27.7 
L 394.197476 -27.7 
L 393.479153 -27.7 
L 391.563625 -27.7 
L 391.563625 -27.7 
L 385.577602 -27.7 
L 384.140956 -27.7 
L 383.422633 -27.7 
L 382.46487 -27.7 
L 382.225429 -27.7 
L 381.507106 -27.7 
L 379.591578 -27.7 
L 378.154933 -27.7 
L 373.844996 -27.7 
L 372.887232 -27.7 
L 367.380091 -27.7 
L 366.422327 -27.7 
L 364.506799 -27.7 
L 364.027918 -27.7 
L 363.549036 -27.7 
L 360.915185 -27.7 
L 359.957422 -27.7 
L 358.520776 -27.7 
L 358.041894 -27.7 
L 357.323571 -27.7 
L 356.844689 -27.7 
L 356.844689 -27.7 
L 356.365808 -27.7 
L 355.647485 -27.7 
L 353.013635 -27.7 
L 349.900902 -27.7 
L 349.42202 -27.7 
L 343.675438 -27.7 
L 342.717674 -27.7 
L 341.75991 -27.7 
L 340.083824 -27.7 
L 336.252769 -27.7 
L 336.252769 -27.7 
L 335.534446 -27.7 
L 334.816123 -27.7 
L 334.097801 -27.7 
L 333.140037 -27.7 
L 333.140037 -27.7 
L 331.224509 -27.7 
L 331.224509 -27.7 
L 329.069541 -27.7 
L 328.111777 -27.7 
L 327.872336 -27.7 
L 326.914572 -27.7 
L 325.717368 -27.7 
L 323.322958 -27.7 
L 322.604636 -27.7 
L 321.16799 -27.7 
L 320.449667 -27.7 
L 319.491903 -27.7 
L 319.013021 -27.7 
L 319.013021 -27.7 
L 318.055258 -27.7 
L 317.097494 -27.7 
L 313.026998 -27.7 
L 306.322652 -27.7 
L 304.886006 -27.7 
L 301.294392 -27.7 
L 300.81551 -27.7 
L 300.576069 -27.7 
L 296.745014 -27.7 
L 296.266133 -27.7 
L 294.829487 -27.7 
L 294.350605 -27.7 
L 292.195637 -27.7 
L 288.604023 -27.7 
L 287.406818 -27.7 
L 287.167377 -27.7 
L 286.927936 -27.7 
L 286.449054 -27.7 
L 285.251849 -27.7 
L 283.096881 -27.7 
L 280.22359 -27.7 
L 279.026385 -27.7 
L 276.392535 -27.7 
L 276.153094 -27.7 
L 270.885393 -27.7 
L 269.209307 -27.7 
L 267.293779 -27.7 
L 259.87111 -27.7 
L 255.082291 -27.7 
L 251.011795 -27.7 
L 251.011795 -27.7 
L 249.335709 -27.7 
L 243.589126 -27.7 
L 237.363662 -27.7 
L 229.940993 -27.7 
L 176.306223 -27.7 
L 171.038523 -27.7 
L 137.03791 -27.7 
L 133.446296 -27.7 
L 75.74103 -27.7 
z
" style="stroke: #2c5282; stroke-opacity: 0.1"/>
    </defs>
    <g clip-path="url(#p021495e7fb)">
     <use xlink:href="#m0a3d7e1f1b" x="0" y="309.297344" style="fill: #2c5282; fill-opacity: 0.1; stroke: #2c5282; stroke-opacity: 0.1"/>
    </g>
   </g>
   <g id="matplotlib.axis_1">
    <g id="xtick_1">
     <g id="line2d_1">
      <defs>
       <path id="m164b9261f7" d="M 0 0 
L 0 3 
" style="stroke: #444444; stroke-width: 0.8"/>
      </defs>
      <g>
       <use xlink:href="#m164b9261f7" x="129.615241" y="281.597344" style="fill: #444444; stroke: #444444; stroke-width: 0.8"/>
      </g>
     </g>
     <g id="text_1">
      <!-- 01/23 -->
      <g style="fill: #444444" transform="translate(108.544147 298.734063) scale(0.14 -0.14)">
       <defs>
        <path id="DejaVuSansMono-13" d="M 1509 2344 
Q 1509 2516 1629 2641 
Q 1750 2766 1919 2766 
Q 2094 2766 2219 2641 
Q 2344 2516 2344 2344 
Q 2344 2169 2220 2047 
Q 2097 1925 1919 1925 
Q 1744 1925 1626 2044 
Q 1509 2163 1509 2344 
z
M 1925 4250 
Q 1484 4250 1267 3775 
Q 1050 3300 1050 2328 
Q 1050 1359 1267 884 
Q 1484 409 1925 409 
Q 2369 409 2586 884 
Q 2803 1359 2803 2328 
Q 2803 3300 2586 3775 
Q 2369 4250 1925 4250 
z
M 1925 4750 
Q 2672 4750 3055 4137 
Q 3438 3525 3438 2328 
Q 3438 1134 3055 521 
Q 2672 -91 1925 -91 
Q 1178 -91 797 521 
Q 416 1134 416 2328 
Q 416 3525 797 4137 
Q 1178 4750 1925 4750 
z
" transform="scale(0.015625)"/>
        <path id="DejaVuSansMono-14" d="M 844 531 
L 1825 531 
L 1825 4097 
L 769 3859 
L 769 4434 
L 1819 4666 
L 2450 4666 
L 2450 531 
L 3419 531 
L 3419 0 
L 844 0 
L 844 531 
z
" transform="scale(0.015625)"/>
        <path id="DejaVuSansMono-12" d="M 2778 4666 
L 3372 4666 
L 916 -594 
L 319 -594 
L 2778 4666 
z
" transform="scale(0.015625)"/>
        <path id="DejaVuSansMono-15" d="M 1166 531 
L 3309 531 
L 3309 0 
L 475 0 
L 475 531 
Q 1059 1147 1496 1619 
Q 1934 2091 2100 2284 
Q 2413 2666 2522 2902 
Q 2631 3138 2631 3384 
Q 2631 3775 2401 3997 
Q 2172 4219 1772 4219 
Q 1488 4219 1175 4116 
Q 863 4013 513 3803 
L 513 4441 
Q 834 4594 1145 4672 
Q 1456 4750 1759 4750 
Q 2444 4750 2861 4386 
Q 3278 4022 3278 3431 
Q 3278 3131 3139 2831 
Q 3000 2531 2688 2169 
Q 2513 1966 2180 1606 
Q 1847 1247 1166 531 
z
" transform="scale(0.015625)"/>
        <path id="DejaVuSansMono-16" d="M 2425 2497 
Q 2884 2375 3128 2064 
Q 3372 1753 3372 1288 
Q 3372 644 2939 276 
Q 2506 -91 1741 -91 
Q 1419 -91 1084 -31 
Q 750 28 428 141 
L 428 769 
Q 747 603 1056 522 
Q 1366 441 1672 441 
Q 2191 441 2469 675 
Q 2747 909 2747 1350 
Q 2747 1756 2469 1995 
Q 2191 2234 1716 2234 
L 1234 2234 
L 1234 2753 
L 1716 2753 
Q 2150 2753 2394 2943 
Q 2638 3134 2638 3475 
Q 2638 3834 2411 4026 
Q 2184 4219 1766 4219 
Q 1488 4219 1191 4156 
Q 894 4094 569 3969 
L 569 4550 
Q 947 4650 1242 4700 
Q 1538 4750 1766 4750 
Q 2447 4750 2855 4408 
Q 3263 4066 3263 3500 
Q 3263 3116 3048 2859 
Q 2834 2603 2425 2497 
z
" transform="scale(0.015625)"/>
       </defs>
       <use xlink:href="#DejaVuSansMono-13"/>
       <use xlink:href="#DejaVuSansMono-14" transform="translate(60.203125 0)"/>
       <use xlink:href="#DejaVuSansMono-12" transform="translate(120.40625 0)"/>
       <use xlink:href="#DejaVuSansMono-15" transform="translate(180.609375 0)"/>
       <use xlink:href="#DejaVuSansMono-16" transform="translate(240.8125 0)"/>
      </g>
     </g>
    </g>
    <g id="xtick_2">
     <g id="line2d_2">
      <g>
       <use xlink:href="#m164b9261f7" x="217.011182" y="281.597344" style="fill: #444444; stroke: #444444; stroke-width: 0.8"/>
      </g>
     </g>
     <g id="text_2">
      <!-- 01/24 -->
      <g style="fill: #444444" transform="translate(195.940089 298.734063) scale(0.14 -0.14)">
       <defs>
        <path id="DejaVuSansMono-17" d="M 2297 4091 
L 825 1625 
L 2297 1625 
L 2297 4091 
z
M 2194 4666 
L 2925 4666 
L 2925 1625 
L 3547 1625 
L 3547 1113 
L 2925 1113 
L 2925 0 
L 2297 0 
L 2297 1113 
L 319 1113 
L 319 1709 
L 2194 4666 
z
" transform="scale(0.015625)"/>
       </defs>
       <use xlink:href="#DejaVuSansMono-13"/>
       <use xlink:href="#DejaVuSansMono-14" transform="translate(60.203125 0)"/>
       <use xlink:href="#DejaVuSansMono-12" transform="translate(120.40625 0)"/>
       <use xlink:href="#DejaVuSansMono-15" transform="translate(180.609375 0)"/>
       <use xlink:href="#DejaVuSansMono-17" transform="translate(240.8125 0)"/>
      </g>
     </g>
    </g>
    <g id="xtick_3">
     <g id="line2d_3">
      <g>
       <use xlink:href="#m164b9261f7" x="304.646565" y="281.597344" style="fill: #444444; stroke: #444444; stroke-width: 0.8"/>
      </g>
     </g>
     <g id="text_3">
      <!-- 01/25 -->
      <g style="fill: #444444" transform="translate(283.575472 298.734063) scale(0.14 -0.14)">
       <defs>
        <path id="DejaVuSansMono-18" d="M 647 4666 
L 3009 4666 
L 3009 4134 
L 1222 4134 
L 1222 2988 
Q 1356 3038 1492 3061 
Q 1628 3084 1766 3084 
Q 2491 3084 2916 2656 
Q 3341 2228 3341 1497 
Q 3341 759 2895 334 
Q 2450 -91 1678 -91 
Q 1306 -91 998 -41 
Q 691 9 447 109 
L 447 750 
Q 734 594 1025 517 
Q 1316 441 1619 441 
Q 2141 441 2423 716 
Q 2706 991 2706 1497 
Q 2706 1997 2414 2275 
Q 2122 2553 1600 2553 
Q 1347 2553 1106 2495 
Q 866 2438 647 2322 
L 647 4666 
z
" transform="scale(0.015625)"/>
       </defs>
       <use xlink:href="#DejaVuSansMono-13"/>
       <use xlink:href="#DejaVuSansMono-14" transform="translate(60.203125 0)"/>
       <use xlink:href="#DejaVuSansMono-12" transform="translate(120.40625 0)"/>
       <use xlink:href="#DejaVuSansMono-15" transform="translate(180.609375 0)"/>
       <use xlink:href="#DejaVuSansMono-18" transform="translate(240.8125 0)"/>
      </g>
     </g>
    </g>
    <g id="xtick_4">
     <g id="line2d_4">
      <g>
       <use xlink:href="#m164b9261f7" x="392.042507" y="281.597344" style="fill: #444444; stroke: #444444; stroke-width: 0.8"/>
      </g>
     </g>
     <g id="text_4">
      <!-- 01/26 -->
      <g style="fill: #444444" transform="translate(370.971413 298.734063) scale(0.14 -0.14)">
       <defs>
        <path id="DejaVuSansMono-19" d="M 3097 4563 
L 3097 3981 
Q 2900 4097 2678 4158 
Q 2456 4219 2216 4219 
Q 1616 4219 1306 3767 
Q 997 3316 997 2438 
Q 1147 2750 1412 2917 
Q 1678 3084 2022 3084 
Q 2697 3084 3067 2670 
Q 3438 2256 3438 1497 
Q 3438 741 3056 325 
Q 2675 -91 1984 -91 
Q 1172 -91 794 492 
Q 416 1075 416 2328 
Q 416 3509 870 4129 
Q 1325 4750 2188 4750 
Q 2419 4750 2650 4701 
Q 2881 4653 3097 4563 
z
M 1972 2591 
Q 1569 2591 1337 2300 
Q 1106 2009 1106 1497 
Q 1106 984 1337 693 
Q 1569 403 1972 403 
Q 2391 403 2603 679 
Q 2816 956 2816 1497 
Q 2816 2041 2603 2316 
Q 2391 2591 1972 2591 
z
" transform="scale(0.015625)"/>
       </defs>
       <use xlink:href="#DejaVuSansMono-13"/>
       <use xlink:href="#DejaVuSansMono-14" transform="translate(60.203125 0)"/>
       <use xlink:href="#DejaVuSansMono-12" transform="translate(120.40625 0)"/>
       <use xlink:href="#DejaVuSansMono-15" transform="translate(180.609375 0)"/>
       <use xlink:href="#DejaVuSansMono-19" transform="translate(240.8125 0)"/>
      </g>
     </g>
    </g>
   </g>
   <g id="matplotlib.axis_2">
    <g id="ytick_1">
     <g id="line2d_5">
      <defs>
       <path id="mc867eb864c" d="M 0 0 
L -3 0 
" style="stroke: #444444; stroke-width: 0.8"/>
      </defs>
      <g>
       <use xlink:href="#mc867eb864c" x="57.986484" y="281.597344" style="fill: #444444; stroke: #444444; stroke-width: 0.8"/>
      </g>
     </g>
     <g id="text_5">
      <!-- 0 -->
      <g style="fill: #444444" transform="translate(43.058047 286.915703) scale(0.14 -0.14)">
       <use xlink:href="#DejaVuSansMono-13"/>
      </g>
     </g>
    </g>
    <g id="ytick_2">
     <g id="line2d_6">
      <g>
       <use xlink:href="#mc867eb864c" x="57.986484" y="250.334186" style="fill: #444444; stroke: #444444; stroke-width: 0.8"/>
      </g>
     </g>
     <g id="text_6">
      <!-- 20 -->
      <g style="fill: #444444" transform="translate(34.629609 255.652545) scale(0.14 -0.14)">
       <use xlink:href="#DejaVuSansMono-15"/>
       <use xlink:href="#DejaVuSansMono-13" transform="translate(60.203125 0)"/>
      </g>
     </g>
    </g>
    <g id="ytick_3">
     <g id="line2d_7">
      <g>
       <use xlink:href="#mc867eb864c" x="57.986484" y="219.071028" style="fill: #444444; stroke: #444444; stroke-width: 0.8"/>
      </g>
     </g>
     <g id="text_7">
      <!-- 40 -->
      <g style="fill: #444444" transform="translate(34.629609 224.389387) scale(0.14 -0.14)">
       <use xlink:href="#DejaVuSansMono-17"/>
       <use xlink:href="#DejaVuSansMono-13" transform="translate(60.203125 0)"/>
      </g>
     </g>
    </g>
    <g id="ytick_4">
     <g id="line2d_8">
      <g>
       <use xlink:href="#mc867eb864c" x="57.986484" y="187.80787" style="fill: #444444; stroke: #444444; stroke-width: 0.8"/>
      </g>
     </g>
     <g id="text_8">
      <!-- 60 -->
      <g style="fill: #444444" transform="translate(34.629609 193.126229) scale(0.14 -0.14)">
       <use xlink:href="#DejaVuSansMono-19"/>
       <use xlink:href="#DejaVuSansMono-13" transform="translate(60.203125 0)"/>
      </g>
     </g>
    </g>
    <g id="ytick_5">
     <g id="line2d_9">
      <g>
       <use xlink:href="#mc867eb864c" x="57.986484" y="156.544712" style="fill: #444444; stroke: #444444; stroke-width: 0.8"/>
      </g>
     </g>
     <g id="text_9">
      <!-- 80 -->
      <g style="fill: #444444" transform="translate(34.629609 161.863072) scale(0.14 -0.14)">
       <defs>
        <path id="DejaVuSansMono-1b" d="M 1925 2216 
Q 1503 2216 1273 1980 
Q 1044 1744 1044 1313 
Q 1044 881 1276 642 
Q 1509 403 1925 403 
Q 2350 403 2579 639 
Q 2809 875 2809 1313 
Q 2809 1741 2576 1978 
Q 2344 2216 1925 2216 
z
M 1375 2478 
Q 972 2581 745 2862 
Q 519 3144 519 3541 
Q 519 4097 897 4423 
Q 1275 4750 1925 4750 
Q 2578 4750 2956 4423 
Q 3334 4097 3334 3541 
Q 3334 3144 3107 2862 
Q 2881 2581 2478 2478 
Q 2947 2375 3195 2062 
Q 3444 1750 3444 1253 
Q 3444 622 3041 265 
Q 2638 -91 1925 -91 
Q 1213 -91 811 264 
Q 409 619 409 1247 
Q 409 1747 657 2061 
Q 906 2375 1375 2478 
z
M 1147 3481 
Q 1147 3106 1347 2909 
Q 1547 2713 1925 2713 
Q 2306 2713 2506 2909 
Q 2706 3106 2706 3481 
Q 2706 3863 2507 4063 
Q 2309 4263 1925 4263 
Q 1547 4263 1347 4061 
Q 1147 3859 1147 3481 
z
" transform="scale(0.015625)"/>
       </defs>
       <use xlink:href="#DejaVuSansMono-1b"/>
       <use xlink:href="#DejaVuSansMono-13" transform="translate(60.203125 0)"/>
      </g>
     </g>
    </g>
    <g id="ytick_6">
     <g id="line2d_10">
      <g>
       <use xlink:href="#mc867eb864c" x="57.986484" y="125.281554" style="fill: #444444; stroke: #444444; stroke-width: 0.8"/>
      </g>
     </g>
     <g id="text_10">
      <!-- 100 -->
      <g style="fill: #444444" transform="translate(26.201172 130.599914) scale(0.14 -0.14)">
       <use xlink:href="#DejaVuSansMono-14"/>
       <use xlink:href="#DejaVuSansMono-13" transform="translate(60.203125 0)"/>
       <use xlink:href="#DejaVuSansMono-13" transform="translate(120.40625 0)"/>
      </g>
     </g>
    </g>
    <g id="ytick_7">
     <g id="line2d_11">
      <g>
       <use xlink:href="#mc867eb864c" x="57.986484" y="94.018396" style="fill: #444444; stroke: #444444; stroke-width: 0.8"/>
      </g>
     </g>
     <g id="text_11">
      <!-- 120 -->
      <g style="fill: #444444" transform="translate(26.201172 99.336756) scale(0.14 -0.14)">
       <use xlink:href="#DejaVuSansMono-14"/>
       <use xlink:href="#DejaVuSansMono-15" transform="translate(60.203125 0)"/>
       <use xlink:href="#DejaVuSansMono-13" transform="translate(120.40625 0)"/>
      </g>
     </g>
    </g>
    <g id="ytick_8">
     <g id="line2d_12">
      <g>
       <use xlink:href="#mc867eb864c" x="57.986484" y="62.755238" style="fill: #444444; stroke: #444444; stroke-width: 0.8"/>
      </g>
     </g>
     <g id="text_12">
      <!-- 140 -->
      <g style="fill: #444444" transform="translate(26.201172 68.073598) scale(0.14 -0.14)">
       <use xlink:href="#DejaVuSansMono-14"/>
       <use xlink:href="#DejaVuSansMono-17" transform="translate(60.203125 0)"/>
       <use xlink:href="#DejaVuSansMono-13" transform="translate(120.40625 0)"/>
      </g>
     </g>
    </g>
    <g id="text_13">
     <!-- Estrelas -->
     <g style="fill: #333333" transform="translate(18.597656 186.563203) rotate(-90) scale(0.15 -0.15)">
      <defs>
       <path id="DejaVuSans-28" d="M 628 4666 
L 3578 4666 
L 3578 4134 
L 1259 4134 
L 1259 2753 
L 3481 2753 
L 3481 2222 
L 1259 2222 
L 1259 531 
L 3634 531 
L 3634 0 
L 628 0 
L 628 4666 
z
" transform="scale(0.015625)"/>
       <path id="DejaVuSans-56" d="M 2834 3397 
L 2834 2853 
Q 2591 2978 2328 3040 
Q 2066 3103 1784 3103 
Q 1356 3103 1142 2972 
Q 928 2841 928 2578 
Q 928 2378 1081 2264 
Q 1234 2150 1697 2047 
L 1894 2003 
Q 2506 1872 2764 1633 
Q 3022 1394 3022 966 
Q 3022 478 2636 193 
Q 2250 -91 1575 -91 
Q 1294 -91 989 -36 
Q 684 19 347 128 
L 347 722 
Q 666 556 975 473 
Q 1284 391 1588 391 
Q 1994 391 2212 530 
Q 2431 669 2431 922 
Q 2431 1156 2273 1281 
Q 2116 1406 1581 1522 
L 1381 1569 
Q 847 1681 609 1914 
Q 372 2147 372 2553 
Q 372 3047 722 3315 
Q 1072 3584 1716 3584 
Q 2034 3584 2315 3537 
Q 2597 3491 2834 3397 
z
" transform="scale(0.015625)"/>
       <path id="DejaVuSans-57" d="M 1172 4494 
L 1172 3500 
L 2356 3500 
L 2356 3053 
L 1172 3053 
L 1172 1153 
Q 1172 725 1289 603 
Q 1406 481 1766 481 
L 2356 481 
L 2356 0 
L 1766 0 
Q 1100 0 847 248 
Q 594 497 594 1153 
L 594 3053 
L 172 3053 
L 172 3500 
L 594 3500 
L 594 4494 
L 1172 4494 
z
" transform="scale(0.015625)"/>
       <path id="DejaVuSans-55" d="M 2631 2963 
Q 2534 3019 2420 3045 
Q 2306 3072 2169 3072 
Q 1681 3072 1420 2755 
Q 1159 2438 1159 1844 
L 1159 0 
L 581 0 
L 581 3500 
L 1159 3500 
L 1159 2956 
Q 1341 3275 1631 3429 
Q 1922 3584 2338 3584 
Q 2397 3584 2469 3576 
Q 2541 3569 2628 3553 
L 2631 2963 
z
" transform="scale(0.015625)"/>
       <path id="DejaVuSans-48" d="M 3597 1894 
L 3597 1613 
L 953 1613 
Q 991 1019 1311 708 
Q 1631 397 2203 397 
Q 2534 397 2845 478 
Q 3156 559 3463 722 
L 3463 178 
Q 3153 47 2828 -22 
Q 2503 -91 2169 -91 
Q 1331 -91 842 396 
Q 353 884 353 1716 
Q 353 2575 817 3079 
Q 1281 3584 2069 3584 
Q 2775 3584 3186 3129 
Q 3597 2675 3597 1894 
z
M 3022 2063 
Q 3016 2534 2758 2815 
Q 2500 3097 2075 3097 
Q 1594 3097 1305 2825 
Q 1016 2553 972 2059 
L 3022 2063 
z
" transform="scale(0.015625)"/>
       <path id="DejaVuSans-4f" d="M 603 4863 
L 1178 4863 
L 1178 0 
L 603 0 
L 603 4863 
z
" transform="scale(0.015625)"/>
       <path id="DejaVuSans-44" d="M 2194 1759 
Q 1497 1759 1228 1600 
Q 959 1441 959 1056 
Q 959 750 1161 570 
Q 1363 391 1709 391 
Q 2188 391 2477 730 
Q 2766 1069 2766 1631 
L 2766 1759 
L 2194 1759 
z
M 3341 1997 
L 3341 0 
L 2766 0 
L 2766 531 
Q 2569 213 2275 61 
Q 1981 -91 1556 -91 
Q 1019 -91 701 211 
Q 384 513 384 1019 
Q 384 1609 779 1909 
Q 1175 2209 1959 2209 
L 2766 2209 
L 2766 2266 
Q 2766 2663 2505 2880 
Q 2244 3097 1772 3097 
Q 1472 3097 1187 3025 
Q 903 2953 641 2809 
L 641 3341 
Q 956 3463 1253 3523 
Q 1550 3584 1831 3584 
Q 2591 3584 2966 3190 
Q 3341 2797 3341 1997 
z
" transform="scale(0.015625)"/>
      </defs>
      <use xlink:href="#DejaVuSans-28"/>
      <use xlink:href="#DejaVuSans-56" transform="translate(63.1875 0)"/>
      <use xlink:href="#DejaVuSans-57" transform="translate(115.28125 0)"/>
      <use xlink:href="#DejaVuSans-55" transform="translate(154.484375 0)"/>
      <use xlink:href="#DejaVuSans-48" transform="translate(193.390625 0)"/>
      <use xlink:href="#DejaVuSans-4f" transform="translate(254.921875 0)"/>
      <use xlink:href="#DejaVuSans-44" transform="translate(282.703125 0)"/>
      <use xlink:href="#DejaVuSans-56" transform="translate(343.984375 0)"/>
     </g>
    </g>
   </g>
   <g id="line2d_13">
    <path d="M 75.74103 280.034186 
L 133.446296 278.471028 
L 137.03791 276.90787 
L 171.038523 275.344712 
L 176.306223 273.781554 
L 229.940993 272.218396 
L 237.363662 270.655238 
L 243.589126 269.092081 
L 249.335709 267.528923 
L 251.011795 265.965765 
L 251.011795 264.402607 
L 255.082291 262.839449 
L 259.87111 261.276291 
L 267.293779 259.713133 
L 269.209307 258.149975 
L 270.885393 256.586817 
L 276.153094 255.02366 
L 276.392535 253.460502 
L 279.026385 251.897344 
L 280.22359 250.334186 
L 283.096881 248.771028 
L 285.251849 247.20787 
L 286.449054 245.644712 
L 286.927936 244.081554 
L 287.406818 240.955238 
L 288.604023 239.392081 
L 292.195637 237.828923 
L 294.350605 236.265765 
L 294.829487 234.702607 
L 296.266133 233.139449 
L 296.745014 231.576291 
L 300.576069 230.013133 
L 300.81551 228.449975 
L 301.294392 226.886817 
L 304.886006 225.32366 
L 306.322652 223.760502 
L 313.026998 222.197344 
L 317.097494 220.634186 
L 319.013021 217.50787 
L 319.013021 215.944712 
L 319.491903 214.381554 
L 320.449667 212.818396 
L 321.16799 211.255238 
L 322.604636 209.692081 
L 323.322958 208.128923 
L 325.717368 206.565765 
L 326.914572 205.002607 
L 327.872336 203.439449 
L 328.111777 201.876291 
L 329.069541 200.313133 
L 331.224509 198.749975 
L 331.224509 197.186817 
L 333.140037 195.62366 
L 333.140037 194.060502 
L 334.097801 192.497344 
L 336.252769 187.80787 
L 336.252769 186.244712 
L 340.083824 184.681554 
L 341.75991 183.118396 
L 343.675438 179.992081 
L 349.42202 178.428923 
L 349.900902 176.865765 
L 353.013635 175.302607 
L 355.647485 173.739449 
L 356.365808 172.176291 
L 356.844689 170.613133 
L 356.844689 169.049975 
L 357.323571 167.486817 
L 358.041894 165.92366 
L 358.520776 164.360502 
L 359.957422 162.797344 
L 360.915185 161.234186 
L 363.549036 159.671028 
L 364.506799 156.544712 
L 366.422327 154.981554 
L 367.380091 153.418396 
L 372.887232 151.855238 
L 373.844996 150.292081 
L 378.154933 148.728923 
L 379.591578 147.165765 
L 381.507106 145.602607 
L 382.225429 144.039449 
L 382.46487 142.476291 
L 383.422633 140.913133 
L 384.140956 139.349975 
L 385.577602 137.786817 
L 391.563625 136.22366 
L 391.563625 134.660502 
L 393.479153 133.097344 
L 394.197476 131.534186 
L 396.113003 128.40787 
L 397.549649 126.844712 
L 398.028531 125.281554 
L 398.986294 123.718396 
L 399.225735 122.155238 
L 399.944058 120.592081 
L 400.42294 119.028923 
L 402.099027 117.465765 
L 403.05679 115.902607 
L 403.296231 114.339449 
L 404.972318 112.776291 
L 405.211759 111.213133 
L 405.690641 109.649975 
L 405.930082 108.086817 
L 410.479459 106.52366 
L 410.479459 104.960502 
L 411.437223 103.397344 
L 411.916105 101.834186 
L 412.155546 100.271028 
L 412.634428 98.70787 
L 412.873869 97.144712 
L 413.831632 95.581554 
L 414.310514 94.018396 
L 415.268278 92.455238 
L 415.74716 90.892081 
L 416.465483 89.328923 
L 416.465483 87.765765 
L 416.944365 86.202607 
L 417.183806 84.639449 
L 418.141569 83.076291 
L 418.620451 81.513133 
L 418.859892 79.949975 
L 419.338774 78.386817 
L 419.578215 76.82366 
L 419.578215 75.260502 
L 422.451506 73.697344 
L 422.690947 72.134186 
L 423.169829 70.571028 
L 423.888152 69.00787 
L 424.367034 67.444712 
L 425.324797 65.881554 
L 425.324797 64.318396 
L 425.564238 62.755238 
L 426.04312 61.192081 
L 426.761443 56.502607 
L 426.761443 54.939449 
L 427.000884 53.376291 
L 428.67697 51.813133 
L 429.155852 48.686817 
L 430.592498 45.560502 
L 430.831939 43.997344 
L 430.831939 43.997344 
" clip-path="url(#p021495e7fb)" style="fill: none; stroke: #2c5282; stroke-width: 2; stroke-linecap: square"/>
   </g>
   <g id="patch_3">
    <path d="M 57.986484 281.597344 
L 57.986484 32.117344 
" style="fill: none; stroke: #c9c9c9; stroke-width: 0.8; stroke-linejoin: miter; stroke-linecap: square"/>
   </g>
   <g id="patch_4">
    <path d="M 448.586484 281.597344 
L 448.586484 32.117344 
" style="fill: none; stroke: #c9c9c9; stroke-width: 0.8; stroke-linejoin: miter; stroke-linecap: square"/>
   </g>
   <g id="patch_5">
    <path d="M 57.986484 281.597344 
L 448.586484 281.597344 
" style="fill: none; stroke: #c9c9c9; stroke-width: 0.8; stroke-linejoin: miter; stroke-linecap: square"/>
   </g>
   <g id="patch_6">
    <path d="M 57.986484 32.117344 
L 448.586484 32.117344 
" style="fill: none; stroke: #c9c9c9; stroke-width: 0.8; stroke-linejoin: miter; stroke-linecap: square"/>
   </g>
   <g id="text_14">
    <!-- Estrelas ao longo do tempo -->
    <g style="fill: #1a1a1a" transform="translate(57.986484 20.117344) scale(0.17 -0.17)">
     <defs>
      <path id="DejaVuSans-3" transform="scale(0.015625)"/>
      <path id="DejaVuSans-52" d="M 1959 3097 
Q 1497 3097 1228 2736 
Q 959 2375 959 1747 
Q 959 1119 1226 758 
Q 1494 397 1959 397 
Q 2419 397 2687 759 
Q 2956 1122 2956 1747 
Q 2956 2369 2687 2733 
Q 2419 3097 1959 3097 
z
M 1959 3584 
Q 2709 3584 3137 3096 
Q 3566 2609 3566 1747 
Q 3566 888 3137 398 
Q 2709 -91 1959 -91 
Q 1206 -91 779 398 
Q 353 888 353 1747 
Q 353 2609 779 3096 
Q 1206 3584 1959 3584 
z
" transform="scale(0.015625)"/>
      <path id="DejaVuSans-51" d="M 3513 2113 
L 3513 0 
L 2938 0 
L 2938 2094 
Q 2938 2591 2744 2837 
Q 2550 3084 2163 3084 
Q 1697 3084 1428 2787 
Q 1159 2491 1159 1978 
L 1159 0 
L 581 0 
L 581 3500 
L 1159 3500 
L 1159 2956 
Q 1366 3272 1645 3428 
Q 1925 3584 2291 3584 
Q 2894 3584 3203 3211 
Q 3513 2838 3513 2113 
z
" transform="scale(0.015625)"/>
      <path id="DejaVuSans-4a" d="M 2906 1791 
Q 2906 2416 2648 2759 
Q 2391 3103 1925 3103 
Q 1463 3103 1205 2759 
Q 947 2416 947 1791 
Q 947 1169 1205 825 
Q 1463 481 1925 481 
Q 2391 481 2648 825 
Q 2906 1169 2906 1791 
z
M 3481 434 
Q 3481 -459 3084 -895 
Q 2688 -1331 1869 -1331 
Q 1566 -1331 1297 -1286 
Q 1028 -1241 775 -1147 
L 775 -588 
Q 1028 -725 1275 -790 
Q 1522 -856 1778 -856 
Q 2344 -856 2625 -561 
Q 2906 -266 2906 331 
L 2906 616 
Q 2728 306 2450 153 
Q 2172 0 1784 0 
Q 1141 0 747 490 
Q 353 981 353 1791 
Q 353 2603 747 3093 
Q 1141 3584 1784 3584 
Q 2172 3584 2450 3431 
Q 2728 3278 2906 2969 
L 2906 3500 
L 3481 3500 
L 3481 434 
z
" transform="scale(0.015625)"/>
      <path id="DejaVuSans-47" d="M 2906 2969 
L 2906 4863 
L 3481 4863 
L 3481 0 
L 2906 0 
L 2906 525 
Q 2725 213 2448 61 
Q 2172 -91 1784 -91 
Q 1150 -91 751 415 
Q 353 922 353 1747 
Q 353 2572 751 3078 
Q 1150 3584 1784 3584 
Q 2172 3584 2448 3432 
Q 2725 3281 2906 2969 
z
M 947 1747 
Q 947 1113 1208 752 
Q 1469 391 1925 391 
Q 2381 391 2643 752 
Q 2906 1113 2906 1747 
Q 2906 2381 2643 2742 
Q 2381 3103 1925 3103 
Q 1469 3103 1208 2742 
Q 947 2381 947 1747 
z
" transform="scale(0.015625)"/>
      <path id="DejaVuSans-50" d="M 3328 2828 
Q 3544 3216 3844 3400 
Q 4144 3584 4550 3584 
Q 5097 3584 5394 3201 
Q 5691 2819 5691 2113 
L 5691 0 
L 5113 0 
L 5113 2094 
Q 5113 2597 4934 2840 
Q 4756 3084 4391 3084 
Q 3944 3084 3684 2787 
Q 3425 2491 3425 1978 
L 3425 0 
L 2847 0 
L 2847 2094 
Q 2847 2600 2669 2842 
Q 2491 3084 2119 3084 
Q 1678 3084 1418 2786 
Q 1159 2488 1159 1978 
L 1159 0 
L 581 0 
L 581 3500 
L 1159 3500 
L 1159 2956 
Q 1356 3278 1631 3431 
Q 1906 3584 2284 3584 
Q 2666 3584 2933 3390 
Q 3200 3197 3328 2828 
z
" transform="scale(0.015625)"/>
      <path id="DejaVuSans-53" d="M 1159 525 
L 1159 -1331 
L 581 -1331 
L 581 3500 
L 1159 3500 
L 1159 2969 
Q 1341 3281 1617 3432 
Q 1894 3584 2278 3584 
Q 2916 3584 3314 3078 
Q 3713 2572 3713 1747 
Q 3713 922 3314 415 
Q 2916 -91 2278 -91 
Q 1894 -91 1617 61 
Q 1341 213 1159 525 
z
M 3116 1747 
Q 3116 2381 2855 2742 
Q 2594 3103 2138 3103 
Q 1681 3103 1420 2742 
Q 1159 2381 1159 1747 
Q 1159 1113 1420 752 
Q 1681 391 2138 391 
Q 2594 391 2855 752 
Q 3116 1113 3116 1747 
z
" transform="scale(0.015625)"/>
     </defs>
     <use xlink:href="#DejaVuSans-28"/>
     <use xlink:href="#DejaVuSans-56" transform="translate(63.1875 0)"/>
     <use xlink:href="#DejaVuSans-57" transform="translate(115.28125 0)"/>
     <use xlink:href="#DejaVuSans-55" transform="translate(154.484375 0)"/>
     <use xlink:href="#DejaVuSans-48" transform="translate(193.390625 0)"/>
     <use xlink:href="#DejaVuSans-4f" transform="translate(254.921875 0)"/>
     <use xlink:href="#DejaVuSans-44" transform="translate(282.703125 0)"/>
     <use xlink:href="#DejaVuSans-56" transform="translate(343.984375 0)"/>
     <use xlink:href="#DejaVuSans-3" transform="translate(396.078125 0)"/>
     <use xlink:href="#DejaVuSans-44" transform="translate(427.859375 0)"/>
     <use xlink:href="#DejaVuSans-52" transform="translate(489.140625 0)"/>
     <use xlink:href="#DejaVuSans-3" transform="translate(550.328125 0)"/>
     <use xlink:href="#DejaVuSans-4f" transform="translate(582.109375 0)"/>
     <use xlink:href="#DejaVuSans-52" transform="translate(609.890625 0)"/>
     <use xlink:href="#DejaVuSans-51" transform="translate(671.078125 0)"/>
     <use xlink:href="#DejaVuSans-4a" transform="translate(734.453125 0)"/>
     <use xlink:href="#DejaVuSans-52" transform="translate(797.9375 0)"/>
     <use xlink:href="#DejaVuSans-3" transform="translate(859.125 0)"/>
     <use xlink:href="#DejaVuSans-47" transform="translate(890.90625 0)"/>
     <use xlink:href="#DejaVuSans-52" transform="translate(954.390625 0)"/>
     <use xlink:href="#DejaVuSans-3" transform="translate(1015.578125 0)"/>
     <use xlink:href="#DejaVuSans-57" transform="translate(1047.359375 0)"/>
     <use xlink:href="#DejaVuSans-48" transform="translate(1086.5625 0)"/>
     <use xlink:href="#DejaVuSans-50" transform="translate(1148.09375 0)"/>
     <use xlink:href="#DejaVuSans-53" transform="translate(1245.5 0)"/>
     <use xlink:href="#DejaVuSans-52" transform="translate(1308.984375 0)"/>
    </g>
   </g>
  </g>
 </g>
 <defs>
  <clipPath id="p021495e7fb">
   <rect x="57.986484" y="32.117344" width="390.6" height="249.48"/>
  </clipPath>
 </defs>
</svg>
