<?xml version="1.0" encoding="utf-8" standalone="no"?>
<!DOCTYPE svg PUBLIC "-//W3C//DTD SVG 1.1//EN"
  "http://www.w3.org/Graphics/SVG/1.1/DTD/svg11.dtd">
<svg xmlns:xlink="http://www.w3.org/1999/xlink" width="504pt" height="360pt" viewBox="0 0 504 360" xmlns="http://www.w3.org/2000/svg" version="1.1">
 <metadata>
  <rdf:RDF xmlns:dc="http://purl.org/dc/elements/1.1/" xmlns:cc="http://creativecommons.org/ns#" xmlns:rdf="http://www.w3.org/1999/02/22-rdf-syntax-ns#">
   <cc:Work>
    <dc:type rdf:resource="http://purl.org/dc/dcmitype/StillImage"/>
    <dc:format>image/svg+xml</dc:format>
    <dc:creator>
     <cc:Agent>
      <dc:title>Matplotlib v3.11.1, https://matplotlib.org/</dc:title>
     </cc:Agent>
    </dc:creator>
   </cc:Work>
  </rdf:RDF>
 </metadata>
 <defs>
  <style type="text/css">*{stroke-linejoin: round; stroke-linecap: butt}</style>
 </defs>
 <g id="figure_1">
  <g id="patch_1">
   <path d="M 0 360 
L 504 360 
L 504 0 
L 0 0 
z
" style="fill: #ffffff"/>
  </g>
  <g id="axes_1">
   <g id="patch_2">
    <path d="M 70.56 316.8 
L 483.84 316.8 
L 483.84 36 
L 70.56 36 
z
" style="fill: #ffffff"/>
   </g>
   <g id="FillBetweenPolyCollection_1">
    <defs>
     <path id="m4647e4da93" d="M 70.56 -43.2 
L 70.56 -44.571429 
L 134.652973 -45.942857 
L 138.642162 -47.314286 
L 176.406486 -48.685714 
L 182.257297 -50.057143 
L 241.829189 -51.428571 
L 250.073514 -52.8 
L 256.988108 -54.171429 
L 263.370811 -55.542857 
L 265.232432 -56.914286 
L 265.232432 -58.285714 
L 269.753514 -59.657143 
L 275.072432 -61.028571 
L 283.316757 -62.4 
L 285.444324 -63.771429 
L 287.305946 -65.142857 
L 293.156757 -66.514286 
L 293.422703 -67.885714 
L 296.348108 -69.257143 
L 297.677838 -70.628571 
L 300.869189 -72 
L 303.262703 -73.371429 
L 304.592432 -74.742857 
L 305.124324 -76.114286 
L 305.39027 -77.485714 
L 305.656216 -78.857143 
L 306.985946 -80.228571 
L 310.975135 -81.6 
L 313.368649 -82.971429 
L 313.900541 -84.342857 
L 315.496216 -85.714286 
L 316.028108 -87.085714 
L 320.283243 -88.457143 
L 320.549189 -89.828571 
L 321.081081 -91.2 
L 325.07027 -92.571429 
L 326.665946 -93.942857 
L 334.112432 -95.314286 
L 338.633514 -96.685714 
L 339.697297 -98.057143 
L 340.761081 -99.428571 
L 340.761081 -100.8 
L 341.292973 -102.171429 
L 342.356757 -103.542857 
L 343.154595 -104.914286 
L 344.75027 -106.285714 
L 345.548108 -107.657143 
L 348.207568 -109.028571 
L 349.537297 -110.4 
L 350.601081 -111.771429 
L 350.867027 -113.142857 
L 351.930811 -114.514286 
L 354.324324 -115.885714 
L 354.324324 -117.257143 
L 356.451892 -118.628571 
L 356.451892 -120 
L 357.515676 -121.371429 
L 358.313514 -122.742857 
L 359.111351 -124.114286 
L 359.909189 -125.485714 
L 359.909189 -126.857143 
L 364.164324 -128.228571 
L 366.025946 -129.6 
L 367.08973 -130.971429 
L 368.153514 -132.342857 
L 374.536216 -133.714286 
L 375.068108 -135.085714 
L 378.525405 -136.457143 
L 381.450811 -137.828571 
L 382.248649 -139.2 
L 382.780541 -140.571429 
L 382.780541 -141.942857 
L 383.312432 -143.314286 
L 384.11027 -144.685714 
L 384.642162 -146.057143 
L 386.237838 -147.428571 
L 387.301622 -148.8 
L 390.227027 -150.171429 
L 390.758919 -151.542857 
L 391.290811 -152.914286 
L 393.418378 -154.285714 
L 394.482162 -155.657143 
L 400.598919 -157.028571 
L 401.662703 -158.4 
L 406.44973 -159.771429 
L 408.045405 -161.142857 
L 410.172973 -162.514286 
L 410.970811 -163.885714 
L 411.236757 -165.257143 
L 412.300541 -166.628571 
L 413.098378 -168 
L 414.694054 -169.371429 
L 421.342703 -170.742857 
L 421.342703 -172.114286 
L 423.47027 -173.485714 
L 424.268108 -174.857143 
L 425.331892 -176.228571 
L 426.395676 -177.6 
L 427.991351 -178.971429 
L 428.523243 -180.342857 
L 429.587027 -181.714286 
L 429.852973 -183.085714 
L 430.650811 -184.457143 
L 431.182703 -185.828571 
L 433.044324 -187.2 
L 434.108108 -188.571429 
L 434.374054 -189.942857 
L 436.235676 -191.314286 
L 436.501622 -192.685714 
L 437.033514 -194.057143 
L 437.299459 -195.428571 
L 442.352432 -196.8 
L 442.352432 -198.171429 
L 443.416216 -199.542857 
L 443.948108 -200.914286 
L 444.214054 -202.285714 
L 444.745946 -203.657143 
L 445.011892 -205.028571 
L 446.075676 -206.4 
L 446.607568 -207.771429 
L 447.671351 -209.142857 
L 448.203243 -210.514286 
L 449.001081 -211.885714 
L 449.001081 -213.257143 
L 449.532973 -214.628571 
L 449.798919 -216 
L 450.862703 -217.371429 
L 451.394595 -218.742857 
L 451.660541 -220.114286 
L 452.192432 -221.485714 
L 452.458378 -222.857143 
L 452.458378 -224.228571 
L 455.64973 -225.6 
L 455.915676 -226.971429 
L 456.447568 -228.342857 
L 457.245405 -229.714286 
L 457.777297 -231.085714 
L 458.841081 -232.457143 
L 458.841081 -233.828571 
L 459.107027 -235.2 
L 459.638919 -236.571429 
L 459.904865 -237.942857 
L 460.170811 -239.314286 
L 460.436757 -240.685714 
L 460.436757 -242.057143 
L 460.702703 -243.428571 
L 462.564324 -244.8 
L 462.83027 -246.171429 
L 463.096216 -247.542857 
L 463.894054 -248.914286 
L 464.691892 -250.285714 
L 464.957838 -251.657143 
L 465.48973 -253.028571 
L 465.755676 -254.4 
L 466.021622 -255.771429 
L 466.287568 -257.142857 
L 467.351351 -258.514286 
L 467.883243 -259.885714 
L 467.883243 -261.257143 
L 469.744865 -262.628571 
L 469.744865 -264 
L 470.808649 -265.371429 
L 470.808649 -266.742857 
L 471.606486 -268.114286 
L 472.138378 -269.485714 
L 472.67027 -270.857143 
L 473.202162 -272.228571 
L 473.468108 -273.6 
L 473.734054 -274.971429 
L 474 -276.342857 
L 474.797838 -277.714286 
L 475.063784 -279.085714 
L 476.127568 -280.457143 
L 476.393514 -281.828571 
L 476.659459 -283.2 
L 477.457297 -284.571429 
L 477.723243 -285.942857 
L 477.723243 -287.314286 
L 477.989189 -288.685714 
L 478.255135 -290.057143 
L 478.521081 -291.428571 
L 479.584865 -292.8 
L 479.850811 -294.171429 
L 480.116757 -295.542857 
L 480.648649 -296.914286 
L 480.648649 -298.285714 
L 480.914595 -299.657143 
L 481.712432 -301.028571 
L 481.712432 -302.4 
L 481.712432 -303.771429 
L 481.978378 -305.142857 
L 482.244324 -306.514286 
L 483.308108 -307.885714 
L 483.308108 -309.257143 
L 483.84 -310.628571 
L 483.84 -43.2 
L 483.84 -43.2 
L 483.308108 -43.2 
L 483.308108 -43.2 
L 482.244324 -43.2 
L 481.978378 -43.2 
L 481.712432 -43.2 
L 481.712432 -43.2 
L 481.712432 -43.2 
L 480.914595 -43.2 
L 480.648649 -43.2 
L 480.648649 -43.2 
L 480.116757 -43.2 
L 479.850811 -43.2 
L 479.584865 -43.2 
L 478.521081 -43.2 
L 478.255135 -43.2 
L 477.989189 -43.2 
L 477.723243 -43.2 
L 477.723243 -43.2 
L 477.457297 -43.2 
L 476.659459 -43.2 
L 476.393514 -43.2 
L 476.127568 -43.2 
L 475.063784 -43.2 
L 474.797838 -43.2 
L 474 -43.2 
L 473.734054 -43.2 
L 473.468108 -43.2 
L 473.202162 -43.2 
L 472.67027 -43.2 
L 472.138378 -43.2 
L 471.606486 -43.2 
L 470.808649 -43.2 
L 470.808649 -43.2 
L 469.744865 -43.2 
L 469.744865 -43.2 
L 467.883243 -43.2 
L 467.883243 -43.2 
L 467.351351 -43.2 
L 466.287568 -43.2 
L 466.021622 -43.2 
L 465.755676 -43.2 
L 465.48973 -43.2 
L 464.957838 -43.2 
L 464.691892 -43.2 
L 463.894054 -43.2 
L 463.096216 -43.2 
L 462.83027 -43.2 
L 462.564324 -43.2 
L 460.702703 -43.2 
L 460.436757 -43.2 
L 460.436757 -43.2 
L 460.170811 -43.2 
L 459.904865 -43.2 
L 459.638919 -43.2 
L 459.107027 -43.2 
L 458.841081 -43.2 
L 458.841081 -43.2 
L 457.777297 -43.2 
L 457.245405 -43.2 
L 456.447568 -43.2 
L 455.915676 -43.2 
L 455.64973 -43.2 
L 452.458378 -43.2 
L 452.458378 -43.2 
L 452.192432 -43.2 
L 451.660541 -43.2 
L 451.394595 -43.2 
L 450.862703 -43.2 
L 449.798919 -43.2 
L 449.532973 -43.2 
L 449.001081 -43.2 
L 449.001081 -43.2 
L 448.203243 -43.2 
L 447.671351 -43.2 
L 446.607568 -43.2 
L 446.075676 -43.2 
L 445.011892 -43.2 
L 444.745946 -43.2 
L 444.214054 -43.2 
L 443.948108 -43.2 
L 443.416216 -43.2 
L 442.352432 -43.2 
L 442.352432 -43.2 
L 437.299459 -43.2 
L 437.033514 -43.2 
L 436.501622 -43.2 
L 436.235676 -43.2 
L 434.374054 -43.2 
L 434.108108 -43.2 
L 433.044324 -43.2 
L 431.182703 -43.2 
L 430.650811 -43.2 
L 429.852973 -43.2 
L 429.587027 -43.2 
L 428.523243 -43.2 
L 427.991351 -43.2 
L 426.395676 -43.2 
L 425.331892 -43.2 
L 424.268108 -43.2 
L 423.47027 -43.2 
L 421.342703 -43.2 
L 421.342703 -43.2 
L 414.694054 -43.2 
L 413.098378 -43.2 
L 412.300541 -43.2 
L 411.236757 -43.2 
L 410.970811 -43.2 
L 410.172973 -43.2 
L 408.045405 -43.2 
L 406.44973 -43.2 
L 401.662703 -43.2 
L 400.598919 -43.2 
L 394.482162 -43.2 
L 393.418378 -43.2 
L 391.290811 -43.2 
L 390.758919 -43.2 
L 390.227027 -43.2 
L 387.301622 -43.2 
L 386.237838 -43.2 
L 384.642162 -43.2 
L 384.11027 -43.2 
L 383.312432 -43.2 
L 382.780541 -43.2 
L 382.780541 -43.2 
L 382.248649 -43.2 
L 381.450811 -43.2 
L 378.525405 -43.2 
L 375.068108 -43.2 
L 374.536216 -43.2 
L 368.153514 -43.2 
L 367.08973 -43.2 
L 366.025946 -43.2 
L 364.164324 -43.2 
L 359.909189 -43.2 
L 359.909189 -43.2 
L 359.111351 -43.2 
L 358.313514 -43.2 
L 357.515676 -43.2 
L 356.451892 -43.2 
L 356.451892 -43.2 
L 354.324324 -43.2 
L 354.324324 -43.2 
L 351.930811 -43.2 
L 350.867027 -43.2 
L 350.601081 -43.2 
L 349.537297 -43.2 
L 348.207568 -43.2 
L 345.548108 -43.2 
L 344.75027 -43.2 
L 343.154595 -43.2 
L 342.356757 -43.2 
L 341.292973 -43.2 
L 340.761081 -43.2 
L 340.761081 -43.2 
L 339.697297 -43.2 
L 338.633514 -43.2 
L 334.112432 -43.2 
L 326.665946 -43.2 
L 325.07027 -43.2 
L 321.081081 -43.2 
L 320.549189 -43.2 
L 320.283243 -43.2 
L 316.028108 -43.2 
L 315.496216 -43.2 
L 313.900541 -43.2 
L 313.368649 -43.2 
L 310.975135 -43.2 
L 306.985946 -43.2 
L 305.656216 -43.2 
L 305.39027 -43.2 
L 305.124324 -43.2 
L 304.592432 -43.2 
L 303.262703 -43.2 
L 300.869189 -43.2 
L 297.677838 -43.2 
L 296.348108 -43.2 
L 293.422703 -43.2 
L 293.156757 -43.2 
L 287.305946 -43.2 
L 285.444324 -43.2 
L 283.316757 -43.2 
L 275.072432 -43.2 
L 269.753514 -43.2 
L 265.232432 -43.2 
L 265.232432 -43.2 
L 263.370811 -43.2 
L 256.988108 -43.2 
L 250.073514 -43.2 
L 241.829189 -43.2 
L 182.257297 -43.2 
L 176.406486 -43.2 
L 138.642162 -43.2 
L 134.652973 -43.2 
L 70.56 -43.2 
z
" style="stroke: #2c5282; stroke-opacity: 0.1"/>
    </defs>
    <g clip-path="url(#p26145518b1)">
     <use xlink:href="#m4647e4da93" x="0" y="360" style="fill: #2c5282; fill-opacity: 0.1; stroke: #2c5282; stroke-opacity: 0.1"/>
    </g>
   </g>
   <g id="matplotlib.axis_1">
    <g id="xtick_1">
     <g id="line2d_1">
      <defs>
       <path id="m0e57ddf0c7" d="M 0 0 
L 0 3 
" style="stroke: #444444; stroke-width: 0.8"/>
      </defs>
      <g>
       <use xlink:href="#m0e57ddf0c7" x="130.397838" y="316.8" style="fill: #444444; stroke: #444444; stroke-width: 0.8"/>
      </g>
     </g>
     <g id="text_1">
      <!-- 2023 -->
      <g style="fill: #444444" transform="translate(113.540963 333.936719) scale(0.14 -0.14)">
       <defs>
        <path id="DejaVuSansMono-15" d="M 1166 531 
L 3309 531 
L 3309 0 
L 475 0 
L 475 531 
Q 1059 1147 1496 1619 
Q 1934 2091 2100 2284 
Q 2413 2666 2522 2902 
Q 2631 3138 2631 3384 
Q 2631 3775 2401 3997 
Q 2172 4219 1772 4219 
Q 1488 4219 1175 4116 
Q 863 4013 513 3803 
L 513 4441 
Q 834 4594 1145 4672 
Q 1456 4750 1759 4750 
Q 2444 4750 2861 4386 
Q 3278 4022 3278 3431 
Q 3278 3131 3139 2831 
Q 3000 2531 2688 2169 
Q 2513 1966 2180 1606 
Q 1847 1247 1166 531 
z
" transform="scale(0.015625)"/>
        <path id="DejaVuSansMono-13" d="M 1509 2344 
Q 1509 2516 1629 2641 
Q 1750 2766 1919 2766 
Q 2094 2766 2219 2641 
Q 2344 2516 2344 2344 
Q 2344 2169 2220 2047 
Q 2097 1925 1919 1925 
Q 1744 1925 1626 2044 
Q 1509 2163 1509 2344 
z
M 1925 4250 
Q 1484 4250 1267 3775 
Q 1050 3300 1050 2328 
Q 1050 1359 1267 884 
Q 1484 409 1925 409 
Q 2369 409 2586 884 
Q 2803 1359 2803 2328 
Q 2803 3300 2586 3775 
Q 2369 4250 1925 4250 
z
M 1925 4750 
Q 2672 4750 3055 4137 
Q 3438 3525 3438 2328 
Q 3438 1134 3055 521 
Q 2672 -91 1925 -91 
Q 1178 -91 797 521 
Q 416 1134 416 2328 
Q 416 3525 797 4137 
Q 1178 4750 1925 4750 
z
" transform="scale(0.015625)"/>
        <path id="DejaVuSansMono-16" d="M 2425 2497 
Q 2884 2375 3128 2064 
Q 3372 1753 3372 1288 
Q 3372 644 2939 276 
Q 2506 -91 1741 -91 
Q 1419 -91 1084 -31 
Q 750 28 428 141 
L 428 769 
Q 747 603 1056 522 
Q 1366 441 1672 441 
Q 2191 441 2469 675 
Q 2747 909 2747 1350 
Q 2747 1756 2469 1995 
Q 2191 2234 1716 2234 
L 1234 2234 
L 1234 2753 
L 1716 2753 
Q 2150 2753 2394 2943 
Q 2638 3134 2638 3475 
Q 2638 3834 2411 4026 
Q 2184 4219 1766 4219 
Q 1488 4219 1191 4156 
Q 894 4094 569 3969 
L 569 4550 
Q 947 4650 1242 4700 
Q 1538 4750 1766 4750 
Q 2447 4750 2855 4408 
Q 3263 4066 3263 3500 
Q 3263 3116 3048 2859 
Q 2834 2603 2425 2497 
z
" transform="scale(0.015625)"/>
       </defs>
       <use xlink:href="#DejaVuSansMono-15"/>
       <use xlink:href="#DejaVuSansMono-13" transform="translate(60.203125 0)"/>
       <use xlink:href="#DejaVuSansMono-15" transform="translate(120.40625 0)"/>
       <use xlink:href="#DejaVuSansMono-16" transform="translate(180.609375 0)"/>
      </g>
     </g>
    </g>
    <g id="xtick_2">
     <g id="line2d_2">
      <g>
       <use xlink:href="#m0e57ddf0c7" x="227.468108" y="316.8" style="fill: #444444; stroke: #444444; stroke-width: 0.8"/>
      </g>
     </g>
     <g id="text_2">
      <!-- 2024 -->
      <g style="fill: #444444" transform="translate(210.611233 333.936719) scale(0.14 -0.14)">
       <defs>
        <path id="DejaVuSansMono-17" d="M 2297 4091 
L 825 1625 
L 2297 1625 
L 2297 4091 
z
M 2194 4666 
L 2925 4666 
L 2925 1625 
L 3547 1625 
L 3547 1113 
L 2925 1113 
L 2925 0 
L 2297 0 
L 2297 1113 
L 319 1113 
L 319 1709 
L 2194 4666 
z
" transform="scale(0.015625)"/>
       </defs>
       <use xlink:href="#DejaVuSansMono-15"/>
       <use xlink:href="#DejaVuSansMono-13" transform="translate(60.203125 0)"/>
       <use xlink:href="#DejaVuSansMono-15" transform="translate(120.40625 0)"/>
       <use xlink:href="#DejaVuSansMono-17" transform="translate(180.609375 0)"/>
      </g>
     </g>
    </g>
    <g id="xtick_3">
     <g id="line2d_3">
      <g>
       <use xlink:href="#m0e57ddf0c7" x="324.804324" y="316.8" style="fill: #444444; stroke: #444444; stroke-width: 0.8"/>
      </g>
     </g>
     <g id="text_3">
      <!-- 2025 -->
      <g style="fill: #444444" transform="translate(307.947449 333.936719) scale(0.14 -0.14)">
       <defs>
        <path id="DejaVuSansMono-18" d="M 647 4666 
L 3009 4666 
L 3009 4134 
L 1222 4134 
L 1222 2988 
Q 1356 3038 1492 3061 
Q 1628 3084 1766 3084 
Q 2491 3084 2916 2656 
Q 3341 2228 3341 1497 
Q 3341 759 2895 334 
Q 2450 -91 1678 -91 
Q 1306 -91 998 -41 
Q 691 9 447 109 
L 447 750 
Q 734 594 1025 517 
Q 1316 441 1619 441 
Q 2141 441 2423 716 
Q 2706 991 2706 1497 
Q 2706 1997 2414 2275 
Q 2122 2553 1600 2553 
Q 1347 2553 1106 2495 
Q 866 2438 647 2322 
L 647 4666 
z
" transform="scale(0.015625)"/>
       </defs>
       <use xlink:href="#DejaVuSansMono-15"/>
       <use xlink:href="#DejaVuSansMono-13" transform="translate(60.203125 0)"/>
       <use xlink:href="#DejaVuSansMono-15" transform="translate(120.40625 0)"/>
       <use xlink:href="#DejaVuSansMono-18" transform="translate(180.609375 0)"/>
      </g>
     </g>
    </g>
    <g id="xtick_4">
     <g id="line2d_4">
      <g>
       <use xlink:href="#m0e57ddf0c7" x="421.874595" y="316.8" style="fill: #444444; stroke: #444444; stroke-width: 0.8"/>
      </g>
     </g>
     <g id="text_4">
      <!-- 2026 -->
      <g style="fill: #444444" transform="translate(405.01772 333.936719) scale(0.14 -0.14)">
       <defs>
        <path id="DejaVuSansMono-19" d="M 3097 4563 
L 3097 3981 
Q 2900 4097 2678 4158 
Q 2456 4219 2216 4219 
Q 1616 4219 1306 3767 
Q 997 3316 997 2438 
Q 1147 2750 1412 2917 
Q 1678 3084 2022 3084 
Q 2697 3084 3067 2670 
Q 3438 2256 3438 1497 
Q 3438 741 3056 325 
Q 2675 -91 1984 -91 
Q 1172 -91 794 492 
Q 416 1075 416 2328 
Q 416 3509 870 4129 
Q 1325 4750 2188 4750 
Q 2419 4750 2650 4701 
Q 2881 4653 3097 4563 
z
M 1972 2591 
Q 1569 2591 1337 2300 
Q 1106 2009 1106 1497 
Q 1106 984 1337 693 
Q 1569 403 1972 403 
Q 2391 403 2603 679 
Q 2816 956 2816 1497 
Q 2816 2041 2603 2316 
Q 2391 2591 1972 2591 
z
" transform="scale(0.015625)"/>
       </defs>
       <use xlink:href="#DejaVuSansMono-15"/>
       <use xlink:href="#DejaVuSansMono-13" transform="translate(60.203125 0)"/>
       <use xlink:href="#DejaVuSansMono-15" transform="translate(120.40625 0)"/>
       <use xlink:href="#DejaVuSansMono-19" transform="translate(180.609375 0)"/>
      </g>
     </g>
    </g>
   </g>
   <g id="matplotlib.axis_2">
    <g id="ytick_1">
     <g id="line2d_5">
      <defs>
       <path id="m52dd910778" d="M 0 0 
L -3 0 
" style="stroke: #444444; stroke-width: 0.8"/>
      </defs>
      <g>
       <use xlink:href="#m52dd910778" x="70.56" y="316.8" style="fill: #444444; stroke: #444444; stroke-width: 0.8"/>
      </g>
     </g>
     <g id="text_5">
      <!-- 0 -->
      <g style="fill: #444444" transform="translate(55.631563 322.118359) scale(0.14 -0.14)">
       <use xlink:href="#DejaVuSansMono-13"/>
      </g>
     </g>
    </g>
    <g id="ytick_2">
     <g id="line2d_6">
      <g>
       <use xlink:href="#m52dd910778" x="70.56" y="282.514286" style="fill: #444444; stroke: #444444; stroke-width: 0.8"/>
      </g>
     </g>
     <g id="text_6">
      <!-- 25 -->
      <g style="fill: #444444" transform="translate(47.203125 287.832645) scale(0.14 -0.14)">
       <use xlink:href="#DejaVuSansMono-15"/>
       <use xlink:href="#DejaVuSansMono-18" transform="translate(60.203125 0)"/>
      </g>
     </g>
    </g>
    <g id="ytick_3">
     <g id="line2d_7">
      <g>
       <use xlink:href="#m52dd910778" x="70.56" y="248.228571" style="fill: #444444; stroke: #444444; stroke-width: 0.8"/>
      </g>
     </g>
     <g id="text_7">
      <!-- 50 -->
      <g style="fill: #444444" transform="translate(47.203125 253.546931) scale(0.14 -0.14)">
       <use xlink:href="#DejaVuSansMono-18"/>
       <use xlink:href="#DejaVuSansMono-13" transform="translate(60.203125 0)"/>
      </g>
     </g>
    </g>
    <g id="ytick_4">
     <g id="line2d_8">
      <g>
       <use xlink:href="#m52dd910778" x="70.56" y="213.942857" style="fill: #444444; stroke: #444444; stroke-width: 0.8"/>
      </g>
     </g>
     <g id="text_8">
      <!-- 75 -->
      <g style="fill: #444444" transform="translate(47.203125 219.261217) scale(0.14 -0.14)">
       <defs>
        <path id="DejaVuSansMono-1a" d="M 434 4666 
L 3372 4666 
L 3372 4397 
L 1703 0 
L 1044 0 
L 2669 4134 
L 434 4134 
L 434 4666 
z
" transform="scale(0.015625)"/>
       </defs>
       <use xlink:href="#DejaVuSansMono-1a"/>
       <use xlink:href="#DejaVuSansMono-18" transform="translate(60.203125 0)"/>
      </g>
     </g>
    </g>
    <g id="ytick_5">
     <g id="line2d_9">
      <g>
       <use xlink:href="#m52dd910778" x="70.56" y="179.657143" style="fill: #444444; stroke: #444444; stroke-width: 0.8"/>
      </g>
     </g>
     <g id="text_9">
      <!-- 100 -->
      <g style="fill: #444444" transform="translate(38.774687 184.975502) scale(0.14 -0.14)">
       <defs>
        <path id="DejaVuSansMono-14" d="M 844 531 
L 1825 531 
L 1825 4097 
L 769 3859 
L 769 4434 
L 1819 4666 
L 2450 4666 
L 2450 531 
L 3419 531 
L 3419 0 
L 844 0 
L 844 531 
z
" transform="scale(0.015625)"/>
       </defs>
       <use xlink:href="#DejaVuSansMono-14"/>
       <use xlink:href="#DejaVuSansMono-13" transform="translate(60.203125 0)"/>
       <use xlink:href="#DejaVuSansMono-13" transform="translate(120.40625 0)"/>
      </g>
     </g>
    </g>
    <g id="ytick_6">
     <g id="line2d_10">
      <g>
       <use xlink:href="#m52dd910778" x="70.56" y="145.371429" style="fill: #444444; stroke: #444444; stroke-width: 0.8"/>
      </g>
     </g>
     <g id="text_10">
      <!-- 125 -->
      <g style="fill: #444444" transform="translate(38.774687 150.689788) scale(0.14 -0.14)">
       <use xlink:href="#DejaVuSansMono-14"/>
       <use xlink:href="#DejaVuSansMono-15" transform="translate(60.203125 0)"/>
       <use xlink:href="#DejaVuSansMono-18" transform="translate(120.40625 0)"/>
      </g>
     </g>
    </g>
    <g id="ytick_7">
     <g id="line2d_11">
      <g>
       <use xlink:href="#m52dd910778" x="70.56" y="111.085714" style="fill: #444444; stroke: #444444; stroke-width: 0.8"/>
      </g>
     </g>
     <g id="text_11">
      <!-- 150 -->
      <g style="fill: #444444" transform="translate(38.774687 116.404074) scale(0.14 -0.14)">
       <use xlink:href="#DejaVuSansMono-14"/>
       <use xlink:href="#DejaVuSansMono-18" transform="translate(60.203125 0)"/>
       <use xlink:href="#DejaVuSansMono-13" transform="translate(120.40625 0)"/>
      </g>
     </g>
    </g>
    <g id="ytick_8">
     <g id="line2d_12">
      <g>
       <use xlink:href="#m52dd910778" x="70.56" y="76.8" style="fill: #444444; stroke: #444444; stroke-width: 0.8"/>
      </g>
     </g>
     <g id="text_12">
      <!-- 175 -->
      <g style="fill: #444444" transform="translate(38.774687 82.118359) scale(0.14 -0.14)">
       <use xlink:href="#DejaVuSansMono-14"/>
       <use xlink:href="#DejaVuSansMono-1a" transform="translate(60.203125 0)"/>
       <use xlink:href="#DejaVuSansMono-18" transform="translate(120.40625 0)"/>
      </g>
     </g>
    </g>
    <g id="ytick_9">
     <g id="line2d_13">
      <g>
       <use xlink:href="#m52dd910778" x="70.56" y="42.514286" style="fill: #444444; stroke: #444444; stroke-width: 0.8"/>
      </g>
     </g>
     <g id="text_13">
      <!-- 200 -->
      <g style="fill: #444444" transform="translate(38.774687 47.832645) scale(0.14 -0.14)">
       <use xlink:href="#DejaVuSansMono-15"/>
       <use xlink:href="#DejaVuSansMono-13" transform="translate(60.203125 0)"/>
       <use xlink:href="#DejaVuSansMono-13" transform="translate(120.40625 0)"/>
      </g>
     </g>
    </g>
    <g id="text_14">
     <!-- Estrelas -->
     <g style="fill: #333333" transform="translate(31.171172 206.105859) rotate(-90) scale(0.15 -0.15)">
      <defs>
       <path id="DejaVuSans-28" d="M 628 4666 
L 3578 4666 
L 3578 4134 
L 1259 4134 
L 1259 2753 
L 3481 2753 
L 3481 2222 
L 1259 2222 
L 1259 531 
L 3634 531 
L 3634 0 
L 628 0 
L 628 4666 
z
" transform="scale(0.015625)"/>
       <path id="DejaVuSans-56" d="M 2834 3397 
L 2834 2853 
Q 2591 2978 2328 3040 
Q 2066 3103 1784 3103 
Q 1356 3103 1142 2972 
Q 928 2841 928 2578 
Q 928 2378 1081 2264 
Q 1234 2150 1697 2047 
L 1894 2003 
Q 2506 1872 2764 1633 
Q 3022 1394 3022 966 
Q 3022 478 2636 193 
Q 2250 -91 1575 -91 
Q 1294 -91 989 -36 
Q 684 19 347 128 
L 347 722 
Q 666 556 975 473 
Q 1284 391 1588 391 
Q 1994 391 2212 530 
Q 2431 669 2431 922 
Q 2431 1156 2273 1281 
Q 2116 1406 1581 1522 
L 1381 1569 
Q 847 1681 609 1914 
Q 372 2147 372 2553 
Q 372 3047 722 3315 
Q 1072 3584 1716 3584 
Q 2034 3584 2315 3537 
Q 2597 3491 2834 3397 
z
" transform="scale(0.015625)"/>
       <path id="DejaVuSans-57" d="M 1172 4494 
L 1172 3500 
L 2356 3500 
L 2356 3053 
L 1172 3053 
L 1172 1153 
Q 1172 725 1289 603 
Q 1406 481 1766 481 
L 2356 481 
L 2356 0 
L 1766 0 
Q 1100 0 847 248 
Q 594 497 594 1153 
L 594 3053 
L 172 3053 
L 172 3500 
L 594 3500 
L 594 4494 
L 1172 4494 
z
" transform="scale(0.015625)"/>
       <path id="DejaVuSans-55" d="M 2631 2963 
Q 2534 3019 2420 3045 
Q 2306 3072 2169 3072 
Q 1681 3072 1420 2755 
Q 1159 2438 1159 1844 
L 1159 0 
L 581 0 
L 581 3500 
L 1159 3500 
L 1159 2956 
Q 1341 3275 1631 3429 
Q 1922 3584 2338 3584 
Q 2397 3584 2469 3576 
Q 2541 3569 2628 3553 
L 2631 2963 
z
" transform="scale(0.015625)"/>
       <path id="DejaVuSans-48" d="M 3597 1894 
L 3597 1613 
L 953 1613 
Q 991 1019 1311 708 
Q 1631 397 2203 397 
Q 2534 397 2845 478 
Q 3156 559 3463 722 
L 3463 178 
Q 3153 47 2828 -22 
Q 2503 -91 2169 -91 
Q 1331 -91 842 396 
Q 353 884 353 1716 
Q 353 2575 817 3079 
Q 1281 3584 2069 3584 
Q 2775 3584 3186 3129 
Q 3597 2675 3597 1894 
z
M 3022 2063 
Q 3016 2534 2758 2815 
Q 2500 3097 2075 3097 
Q 1594 3097 1305 2825 
Q 1016 2553 972 2059 
L 3022 2063 
z
" transform="scale(0.015625)"/>
       <path id="DejaVuSans-4f" d="M 603 4863 
L 1178 4863 
L 1178 0 
L 603 0 
L 603 4863 
z
" transform="scale(0.015625)"/>
       <path id="DejaVuSans-44" d="M 2194 1759 
Q 1497 1759 1228 1600 
Q 959 1441 959 1056 
Q 959 750 1161 570 
Q 1363 391 1709 391 
Q 2188 391 2477 730 
Q 2766 1069 2766 1631 
L 2766 1759 
L 2194 1759 
z
M 3341 1997 
L 3341 0 
L 2766 0 
L 2766 531 
Q 2569 213 2275 61 
Q 1981 -91 1556 -91 
Q 1019 -91 701 211 
Q 384 513 384 1019 
Q 384 1609 779 1909 
Q 1175 2209 1959 2209 
L 2766 2209 
L 2766 2266 
Q 2766 2663 2505 2880 
Q 2244 3097 1772 3097 
Q 1472 3097 1187 3025 
Q 903 2953 641 2809 
L 641 3341 
Q 956 3463 1253 3523 
Q 1550 3584 1831 3584 
Q 2591 3584 2966 3190 
Q 3341 2797 3341 1997 
z
" transform="scale(0.015625)"/>
      </defs>
      <use xlink:href="#DejaVuSans-28"/>
      <use xlink:href="#DejaVuSans-56" transform="translate(63.1875 0)"/>
      <use xlink:href="#DejaVuSans-57" transform="translate(115.28125 0)"/>
      <use xlink:href="#DejaVuSans-55" transform="translate(154.484375 0)"/>
      <use xlink:href="#DejaVuSans-48" transform="translate(193.390625 0)"/>
      <use xlink:href="#DejaVuSans-4f" transform="translate(254.921875 0)"/>
      <use xlink:href="#DejaVuSans-44" transform="translate(282.703125 0)"/>
      <use xlink:href="#DejaVuSans-56" transform="translate(343.984375 0)"/>
     </g>
    </g>
   </g>
   <g id="line2d_14">
    <path d="M 70.56 315.428571 
L 134.652973 314.057143 
L 138.642162 312.685714 
L 176.406486 311.314286 
L 182.257297 309.942857 
L 241.829189 308.571429 
L 250.073514 307.2 
L 263.370811 304.457143 
L 265.232432 303.085714 
L 265.232432 301.714286 
L 269.753514 300.342857 
L 275.072432 298.971429 
L 283.316757 297.6 
L 285.444324 296.228571 
L 287.305946 294.857143 
L 293.156757 293.485714 
L 293.422703 292.114286 
L 296.348108 290.742857 
L 297.677838 289.371429 
L 300.869189 288 
L 303.262703 286.628571 
L 304.592432 285.257143 
L 305.124324 283.885714 
L 305.656216 281.142857 
L 306.985946 279.771429 
L 310.975135 278.4 
L 313.368649 277.028571 
L 313.900541 275.657143 
L 315.496216 274.285714 
L 316.028108 272.914286 
L 320.283243 271.542857 
L 320.549189 270.171429 
L 321.081081 268.8 
L 325.07027 267.428571 
L 326.665946 266.057143 
L 334.112432 264.685714 
L 338.633514 263.314286 
L 340.761081 260.571429 
L 340.761081 259.2 
L 341.292973 257.828571 
L 342.356757 256.457143 
L 343.154595 255.085714 
L 344.75027 253.714286 
L 345.548108 252.342857 
L 348.207568 250.971429 
L 349.537297 249.6 
L 350.601081 248.228571 
L 350.867027 246.857143 
L 351.930811 245.485714 
L 354.324324 244.114286 
L 354.324324 242.742857 
L 356.451892 241.371429 
L 356.451892 240 
L 357.515676 238.628571 
L 359.909189 234.514286 
L 359.909189 233.142857 
L 364.164324 231.771429 
L 366.025946 230.4 
L 368.153514 227.657143 
L 374.536216 226.285714 
L 375.068108 224.914286 
L 378.525405 223.542857 
L 381.450811 222.171429 
L 382.248649 220.8 
L 382.780541 219.428571 
L 382.780541 218.057143 
L 383.312432 216.685714 
L 384.11027 215.314286 
L 384.642162 213.942857 
L 386.237838 212.571429 
L 387.301622 211.2 
L 390.227027 209.828571 
L 391.290811 207.085714 
L 393.418378 205.714286 
L 394.482162 204.342857 
L 400.598919 202.971429 
L 401.662703 201.6 
L 406.44973 200.228571 
L 408.045405 198.857143 
L 410.172973 197.485714 
L 410.970811 196.114286 
L 411.236757 194.742857 
L 412.300541 193.371429 
L 413.098378 192 
L 414.694054 190.628571 
L 421.342703 189.257143 
L 421.342703 187.885714 
L 423.47027 186.514286 
L 424.268108 185.142857 
L 426.395676 182.4 
L 427.991351 181.028571 
L 428.523243 179.657143 
L 429.587027 178.285714 
L 429.852973 176.914286 
L 430.650811 175.542857 
L 431.182703 174.171429 
L 433.044324 172.8 
L 434.108108 171.428571 
L 434.374054 170.057143 
L 436.235676 168.685714 
L 436.501622 167.314286 
L 437.033514 165.942857 
L 437.299459 164.571429 
L 442.352432 163.2 
L 442.352432 161.828571 
L 443.416216 160.457143 
L 443.948108 159.085714 
L 444.214054 157.714286 
L 444.745946 156.342857 
L 445.011892 154.971429 
L 446.075676 153.6 
L 446.607568 152.228571 
L 447.671351 150.857143 
L 448.203243 149.485714 
L 449.001081 148.114286 
L 449.001081 146.742857 
L 449.532973 145.371429 
L 449.798919 144 
L 450.862703 142.628571 
L 451.394595 141.257143 
L 451.660541 139.885714 
L 452.192432 138.514286 
L 452.458378 137.142857 
L 452.458378 135.771429 
L 455.64973 134.4 
L 455.915676 133.028571 
L 456.447568 131.657143 
L 457.245405 130.285714 
L 457.777297 128.914286 
L 458.841081 127.542857 
L 458.841081 126.171429 
L 459.107027 124.8 
L 459.638919 123.428571 
L 460.436757 119.314286 
L 460.436757 117.942857 
L 460.702703 116.571429 
L 462.564324 115.2 
L 463.096216 112.457143 
L 464.691892 109.714286 
L 464.957838 108.342857 
L 465.48973 106.971429 
L 466.287568 102.857143 
L 467.351351 101.485714 
L 467.883243 100.114286 
L 467.883243 98.742857 
L 469.744865 97.371429 
L 469.744865 96 
L 470.808649 94.628571 
L 470.808649 93.257143 
L 471.606486 91.885714 
L 473.202162 87.771429 
L 474 83.657143 
L 474.797838 82.285714 
L 475.063784 80.914286 
L 476.127568 79.542857 
L 476.659459 76.8 
L 477.457297 75.428571 
L 477.723243 74.057143 
L 477.723243 72.685714 
L 478.521081 68.571429 
L 479.584865 67.2 
L 480.116757 64.457143 
L 480.648649 63.085714 
L 480.648649 61.714286 
L 480.914595 60.342857 
L 481.712432 58.971429 
L 481.712432 56.228571 
L 482.244324 53.485714 
L 483.308108 52.114286 
L 483.308108 50.742857 
L 483.84 49.371429 
L 483.84 49.371429 
" clip-path="url(#p26145518b1)" style="fill: none; stroke: #2c5282; stroke-width: 2; stroke-linecap: square"/>
   </g>
   <g id="patch_3">
    <path d="M 70.56 316.8 
L 70.56 36 
" style="fill: none; stroke: #c9c9c9; stroke-width: 0.8; stroke-linejoin: miter; stroke-linecap: square"/>
   </g>
   <g id="patch_4">
    <path d="M 483.84 316.8 
L 483.84 36 
" style="fill: none; stroke: #c9c9c9; stroke-width: 0.8; stroke-linejoin: miter; stroke-linecap: square"/>
   </g>
   <g id="patch_5">
    <path d="M 70.56 316.8 
L 483.84 316.8 
" style="fill: none; stroke: #c9c9c9; stroke-width: 0.8; stroke-linejoin: miter; stroke-linecap: square"/>
   </g>
   <g id="patch_6">
    <path d="M 70.56 36 
L 483.84 36 
" style="fill: none; stroke: #c9c9c9; stroke-width: 0.8; stroke-linejoin: miter; stroke-linecap: square"/>
   </g>
   <g id="text_15">
    <!-- Histórico de estrelas -->
    <g style="fill: #1a1a1a" transform="translate(70.56 24) scale(0.17 -0.17)">
     <defs>
      <path id="DejaVuSans-2b" d="M 628 4666 
L 1259 4666 
L 1259 2753 
L 3553 2753 
L 3553 4666 
L 4184 4666 
L 4184 0 
L 3553 0 
L 3553 2222 
L 1259 2222 
L 1259 0 
L 628 0 
L 628 4666 
z
" transform="scale(0.015625)"/>
      <path id="DejaVuSans-4c" d="M 603 3500 
L 1178 3500 
L 1178 0 
L 603 0 
L 603 3500 
z
M 603 4863 
L 1178 4863 
L 1178 4134 
L 603 4134 
L 603 4863 
z
" transform="scale(0.015625)"/>
      <path id="DejaVuSans-b5" d="M 1959 3097 
Q 1497 3097 1228 2736 
Q 959 2375 959 1747 
Q 959 1119 1226 758 
Q 1494 397 1959 397 
Q 2419 397 2687 759 
Q 2956 1122 2956 1747 
Q 2956 2369 2687 2733 
Q 2419 3097 1959 3097 
z
M 1959 3584 
Q 2709 3584 3137 3096 
Q 3566 2609 3566 1747 
Q 3566 888 3137 398 
Q 2709 -91 1959 -91 
Q 1206 -91 779 398 
Q 353 888 353 1747 
Q 353 2609 779 3096 
Q 1206 3584 1959 3584 
z
M 2393 5119 
L 3015 5119 
L 1997 3944 
L 1518 3944 
L 2393 5119 
z
" transform="scale(0.015625)"/>
      <path id="DejaVuSans-46" d="M 3122 3366 
L 3122 2828 
Q 2878 2963 2633 3030 
Q 2388 3097 2138 3097 
Q 1578 3097 1268 2742 
Q 959 2388 959 1747 
Q 959 1106 1268 751 
Q 1578 397 2138 397 
Q 2388 397 2633 464 
Q 2878 531 3122 666 
L 3122 134 
Q 2881 22 2623 -34 
Q 2366 -91 2075 -91 
Q 1284 -91 818 406 
Q 353 903 353 1747 
Q 353 2603 823 3093 
Q 1294 3584 2113 3584 
Q 2378 3584 2631 3529 
Q 2884 3475 3122 3366 
z
" transform="scale(0.015625)"/>
      <path id="DejaVuSans-52" d="M 1959 3097 
Q 1497 3097 1228 2736 
Q 959 2375 959 1747 
Q 959 1119 1226 758 
Q 1494 397 1959 397 
Q 2419 397 2687 759 
Q 2956 1122 2956 1747 
Q 2956 2369 2687 2733 
Q 2419 3097 1959 3097 
z
M 1959 3584 
Q 2709 3584 3137 3096 
Q 3566 2609 3566 1747 
Q 3566 888 3137 398 
Q 2709 -91 1959 -91 
Q 1206 -91 779 398 
Q 353 888 353 1747 
Q 353 2609 779 3096 
Q 1206 3584 1959 3584 
z
" transform="scale(0.015625)"/>
      <path id="DejaVuSans-3" transform="scale(0.015625)"/>
      <path id="DejaVuSans-47" d="M 2906 2969 
L 2906 4863 
L 3481 4863 
L 3481 0 
L 2906 0 
L 2906 525 
Q 2725 213 2448 61 
Q 2172 -91 1784 -91 
Q 1150 -91 751 415 
Q 353 922 353 1747 
Q 353 2572 751 3078 
Q 1150 3584 1784 3584 
Q 2172 3584 2448 3432 
Q 2725 3281 2906 2969 
z
M 947 1747 
Q 947 1113 1208 752 
Q 1469 391 1925 391 
Q 2381 391 2643 752 
Q 2906 1113 2906 1747 
Q 2906 2381 2643 2742 
Q 2381 3103 1925 3103 
Q 1469 3103 1208 2742 
Q 947 2381 947 1747 
z
" transform="scale(0.015625)"/>
     </defs>
     <use xlink:href="#DejaVuSans-2b"/>
     <use xlink:href="#DejaVuSans-4c" transform="translate(75.203125 0)"/>
     <use xlink:href="#DejaVuSans-56" transform="translate(102.984375 0)"/>
     <use xlink:href="#DejaVuSans-57" transform="translate(155.078125 0)"/>
     <use xlink:href="#DejaVuSans-b5" transform="translate(194.28125 0)"/>
     <use xlink:href="#DejaVuSans-55" transform="translate(255.46875 0)"/>
     <use xlink:href="#DejaVuSans-4c" transform="translate(296.578125 0)"/>
     <use xlink:href="#DejaVuSans-46" transform="translate(324.359375 0)"/>
     <use xlink:href="#DejaVuSans-52" transform="translate(379.34375 0)"/>
     <use xlink:href="#DejaVuSans-3" transform="translate(440.53125 0)"/>
     <use xlink:href="#DejaVuSans-47" transform="translate(472.3125 0)"/>
     <use xlink:href="#DejaVuSans-48" transform="translate(535.796875 0)"/>
     <use xlink:href="#DejaVuSans-3" transform="translate(597.328125 0)"/>
     <use xlink:href="#DejaVuSans-48" transform="translate(629.109375 0)"/>
     <use xlink:href="#DejaVuSans-56" transform="translate(690.640625 0)"/>
     <use xlink:href="#DejaVuSans-57" transform="translate(742.734375 0)"/>
     <use xlink:href="#DejaVuSans-55" transform="translate(781.9375 0)"/>
     <use xlink:href="#DejaVuSans-48" transform="translate(820.84375 0)"/>
     <use xlink:href="#DejaVuSans-4f" transform="translate(882.375 0)"/>
     <use xlink:href="#DejaVuSans-44" transform="translate(910.15625 0)"/>
     <use xlink:href="#DejaVuSans-56" transform="translate(971.4375 0)"/>
    </g>
   </g>
  </g>
 </g>
 <defs>
  <clipPath id="p26145518b1">
   <rect x="70.56" y="36" width="413.28" height="280.8"/>
  </clipPath>
 </defs>
</svg>
