<?xml version="1.0" encoding="utf-8" standalone="no"?>
<!DOCTYPE svg PUBLIC "-//W3C//DTD SVG 1.1//EN"
  "http://www.w3.org/Graphics/SVG/1.1/DTD/svg11.dtd">
<svg xmlns:xlink="http://www.w3.org/1999/xlink" width="504pt" height="360pt" viewBox="0 0 504 360" xmlns="http://www.w3.org/2000/svg" version="1.1">
 <metadata>
  <rdf:RDF xmlns:dc="http://purl.org/dc/elements/1.1/" xmlns:cc="http://creativecommons.org/ns#" xmlns:rdf="http://www.w3.org/1999/02/22-rdf-syntax-ns#">
   <cc:Work>
    <dc:type rdf:resource="http://purl.org/dc/dcmitype/StillImage"/>
    <dc:date>2026-06-13T10:32:35.406545</dc:date>
    <dc:format>image/svg+xml</dc:format>
    <dc:creator>
     <cc:Agent>
      <dc:title>Matplotlib v3.11.0, https://matplotlib.org/</dc:title>
     </cc:Agent>
    </dc:creator>
   </cc:Work>
  </rdf:RDF>
 </metadata>
 <defs>
  <style type="text/css">*{stroke-linejoin: round; stroke-linecap: butt}</style>
 </defs>
 <g id="figure_1">
  <g id="patch_1">
   <path d="M 0 360 
L 504 360 
L 504 0 
L 0 0 
z
" style="fill: #ffffff"/>
  </g>
  <g id="axes_1">
   <g id="patch_2">
    <path d="M 70.56 316.8 
L 483.84 316.8 
L 483.84 36 
L 70.56 36 
z
" style="fill: #ffffff"/>
   </g>
   <g id="FillBetweenPolyCollection_1">
    <defs>
     <path id="m78857f46be" d="M 89.345455 -43.2 
L 89.345455 -44.959398 
L 150.401349 -46.718797 
L 154.201508 -48.478195 
L 190.17635 -50.237594 
L 195.749917 -51.996992 
L 252.498964 -53.756391 
L 260.352627 -55.515789 
L 266.93957 -57.275188 
L 273.019825 -59.034586 
L 274.793232 -60.793985 
L 274.793232 -62.553383 
L 279.10008 -64.312782 
L 284.166959 -66.07218 
L 292.020622 -67.831579 
L 294.047373 -69.590977 
L 295.820781 -71.350376 
L 301.394348 -73.109774 
L 301.647692 -74.869173 
L 304.434476 -76.628571 
L 305.701195 -78.38797 
L 308.741323 -80.147368 
L 311.021419 -81.906767 
L 312.288138 -83.666165 
L 312.794826 -85.425564 
L 313.04817 -87.184962 
L 313.301514 -88.944361 
L 314.568234 -90.703759 
L 318.368393 -92.463158 
L 320.648489 -94.222556 
L 321.155177 -95.981955 
L 322.675241 -97.741353 
L 323.181929 -99.500752 
L 327.235432 -101.26015 
L 327.488776 -103.019549 
L 327.995464 -104.778947 
L 331.795623 -106.538346 
L 333.315687 -108.297744 
L 340.409318 -110.057143 
L 344.716165 -111.816541 
L 345.729541 -113.57594 
L 346.742917 -115.335338 
L 346.742917 -117.094737 
L 347.249605 -118.854135 
L 348.26298 -120.613534 
L 349.023012 -122.372932 
L 350.543076 -124.132331 
L 351.303108 -125.891729 
L 353.836548 -127.651128 
L 355.103267 -129.410526 
L 356.116643 -131.169925 
L 356.369987 -132.929323 
L 357.383363 -134.688722 
L 359.663459 -136.44812 
L 359.663459 -138.207519 
L 361.69021 -139.966917 
L 361.69021 -141.726316 
L 362.703586 -143.485714 
L 363.463618 -145.245113 
L 364.22365 -147.004511 
L 364.983682 -148.76391 
L 364.983682 -150.523308 
L 369.037185 -152.282707 
L 370.810593 -154.042105 
L 371.823969 -155.801504 
L 372.837344 -157.560902 
L 378.917599 -159.320301 
L 379.424287 -161.079699 
L 382.717759 -162.839098 
L 385.504542 -164.598496 
L 386.264574 -166.357895 
L 386.771262 -168.117293 
L 386.771262 -169.876692 
L 387.27795 -171.63609 
L 388.037982 -173.395489 
L 388.54467 -175.154887 
L 390.064734 -176.914286 
L 391.078109 -178.673684 
L 393.864893 -180.433083 
L 394.371581 -182.192481 
L 394.878269 -183.95188 
L 396.905021 -185.711278 
L 397.918396 -187.470677 
L 403.745307 -189.230075 
L 404.758683 -190.989474 
L 409.318875 -192.748872 
L 410.838938 -194.508271 
L 412.86569 -196.267669 
L 413.625722 -198.027068 
L 413.879066 -199.786466 
L 414.892442 -201.545865 
L 415.652473 -203.305263 
L 417.172537 -205.064662 
L 423.506136 -206.82406 
L 423.506136 -208.583459 
L 425.532888 -210.342857 
L 426.29292 -212.102256 
L 427.306296 -213.861654 
L 428.319671 -215.621053 
L 429.839735 -217.380451 
L 430.346423 -219.13985 
L 431.359799 -220.899248 
L 431.613143 -222.658647 
L 432.373175 -224.418045 
L 432.879863 -226.177444 
L 434.65327 -227.936842 
L 435.666646 -229.696241 
L 435.91999 -231.455639 
L 437.693398 -233.215038 
L 437.946742 -234.974436 
L 438.45343 -236.733835 
L 438.706774 -238.493233 
L 443.520309 -240.252632 
L 443.520309 -242.01203 
L 444.533685 -243.771429 
L 445.040373 -245.530827 
L 445.293717 -247.290226 
L 445.800405 -249.049624 
L 446.053749 -250.809023 
L 447.067124 -252.568421 
L 447.573812 -254.32782 
L 448.587188 -256.087218 
L 449.093876 -257.846617 
L 449.853908 -259.606015 
L 449.853908 -261.365414 
L 450.360596 -263.124812 
L 450.61394 -264.884211 
L 451.627316 -266.643609 
L 452.134004 -268.403008 
L 452.387348 -270.162406 
L 452.894035 -271.921805 
L 453.147379 -273.681203 
L 453.147379 -275.440602 
L 456.187507 -277.2 
L 456.440851 -278.959398 
L 456.947539 -280.718797 
L 457.707571 -282.478195 
L 458.214259 -284.237594 
L 459.227634 -285.996992 
L 459.227634 -287.756391 
L 459.480978 -289.515789 
L 459.987666 -291.275188 
L 460.24101 -293.034586 
L 460.494354 -294.793985 
L 460.747698 -296.553383 
L 460.747698 -298.312782 
L 461.001042 -300.07218 
L 462.77445 -301.831579 
L 463.027794 -303.590977 
L 463.281138 -305.350376 
L 464.04117 -307.109774 
L 464.801201 -308.869173 
L 465.054545 -310.628571 
L 465.054545 -43.2 
L 465.054545 -43.2 
L 464.801201 -43.2 
L 464.04117 -43.2 
L 463.281138 -43.2 
L 463.027794 -43.2 
L 462.77445 -43.2 
L 461.001042 -43.2 
L 460.747698 -43.2 
L 460.747698 -43.2 
L 460.494354 -43.2 
L 460.24101 -43.2 
L 459.987666 -43.2 
L 459.480978 -43.2 
L 459.227634 -43.2 
L 459.227634 -43.2 
L 458.214259 -43.2 
L 457.707571 -43.2 
L 456.947539 -43.2 
L 456.440851 -43.2 
L 456.187507 -43.2 
L 453.147379 -43.2 
L 453.147379 -43.2 
L 452.894035 -43.2 
L 452.387348 -43.2 
L 452.134004 -43.2 
L 451.627316 -43.2 
L 450.61394 -43.2 
L 450.360596 -43.2 
L 449.853908 -43.2 
L 449.853908 -43.2 
L 449.093876 -43.2 
L 448.587188 -43.2 
L 447.573812 -43.2 
L 447.067124 -43.2 
L 446.053749 -43.2 
L 445.800405 -43.2 
L 445.293717 -43.2 
L 445.040373 -43.2 
L 444.533685 -43.2 
L 443.520309 -43.2 
L 443.520309 -43.2 
L 438.706774 -43.2 
L 438.45343 -43.2 
L 437.946742 -43.2 
L 437.693398 -43.2 
L 435.91999 -43.2 
L 435.666646 -43.2 
L 434.65327 -43.2 
L 432.879863 -43.2 
L 432.373175 -43.2 
L 431.613143 -43.2 
L 431.359799 -43.2 
L 430.346423 -43.2 
L 429.839735 -43.2 
L 428.319671 -43.2 
L 427.306296 -43.2 
L 426.29292 -43.2 
L 425.532888 -43.2 
L 423.506136 -43.2 
L 423.506136 -43.2 
L 417.172537 -43.2 
L 415.652473 -43.2 
L 414.892442 -43.2 
L 413.879066 -43.2 
L 413.625722 -43.2 
L 412.86569 -43.2 
L 410.838938 -43.2 
L 409.318875 -43.2 
L 404.758683 -43.2 
L 403.745307 -43.2 
L 397.918396 -43.2 
L 396.905021 -43.2 
L 394.878269 -43.2 
L 394.371581 -43.2 
L 393.864893 -43.2 
L 391.078109 -43.2 
L 390.064734 -43.2 
L 388.54467 -43.2 
L 388.037982 -43.2 
L 387.27795 -43.2 
L 386.771262 -43.2 
L 386.771262 -43.2 
L 386.264574 -43.2 
L 385.504542 -43.2 
L 382.717759 -43.2 
L 379.424287 -43.2 
L 378.917599 -43.2 
L 372.837344 -43.2 
L 371.823969 -43.2 
L 370.810593 -43.2 
L 369.037185 -43.2 
L 364.983682 -43.2 
L 364.983682 -43.2 
L 364.22365 -43.2 
L 363.463618 -43.2 
L 362.703586 -43.2 
L 361.69021 -43.2 
L 361.69021 -43.2 
L 359.663459 -43.2 
L 359.663459 -43.2 
L 357.383363 -43.2 
L 356.369987 -43.2 
L 356.116643 -43.2 
L 355.103267 -43.2 
L 353.836548 -43.2 
L 351.303108 -43.2 
L 350.543076 -43.2 
L 349.023012 -43.2 
L 348.26298 -43.2 
L 347.249605 -43.2 
L 346.742917 -43.2 
L 346.742917 -43.2 
L 345.729541 -43.2 
L 344.716165 -43.2 
L 340.409318 -43.2 
L 333.315687 -43.2 
L 331.795623 -43.2 
L 327.995464 -43.2 
L 327.488776 -43.2 
L 327.235432 -43.2 
L 323.181929 -43.2 
L 322.675241 -43.2 
L 321.155177 -43.2 
L 320.648489 -43.2 
L 318.368393 -43.2 
L 314.568234 -43.2 
L 313.301514 -43.2 
L 313.04817 -43.2 
L 312.794826 -43.2 
L 312.288138 -43.2 
L 311.021419 -43.2 
L 308.741323 -43.2 
L 305.701195 -43.2 
L 304.434476 -43.2 
L 301.647692 -43.2 
L 301.394348 -43.2 
L 295.820781 -43.2 
L 294.047373 -43.2 
L 292.020622 -43.2 
L 284.166959 -43.2 
L 279.10008 -43.2 
L 274.793232 -43.2 
L 274.793232 -43.2 
L 273.019825 -43.2 
L 266.93957 -43.2 
L 260.352627 -43.2 
L 252.498964 -43.2 
L 195.749917 -43.2 
L 190.17635 -43.2 
L 154.201508 -43.2 
L 150.401349 -43.2 
L 89.345455 -43.2 
z
" style="stroke: #2c5282; stroke-opacity: 0.1"/>
    </defs>
    <g clip-path="url(#p75fe563f95)">
     <use xlink:href="#m78857f46be" x="0" y="360" style="fill: #2c5282; fill-opacity: 0.1; stroke: #2c5282; stroke-opacity: 0.1"/>
    </g>
   </g>
   <g id="matplotlib.axis_1">
    <g id="xtick_1">
     <g id="line2d_1">
      <defs>
       <path id="m100fd68584" d="M 0 0 
L 0 3 
" style="stroke: #444444; stroke-width: 0.8"/>
      </defs>
      <g>
       <use xlink:href="#m100fd68584" x="146.347845" y="316.8" style="fill: #444444; stroke: #444444; stroke-width: 0.8"/>
      </g>
     </g>
     <g id="text_1">
      <!-- 2023 -->
      <g style="fill: #444444" transform="translate(129.49097 333.936719) scale(0.14 -0.14)">
       <defs>
        <path id="DejaVuSansMono-15" d="M 1166 531 
L 3309 531 
L 3309 0 
L 475 0 
L 475 531 
Q 1059 1147 1496 1619 
Q 1934 2091 2100 2284 
Q 2413 2666 2522 2902 
Q 2631 3138 2631 3384 
Q 2631 3775 2401 3997 
Q 2172 4219 1772 4219 
Q 1488 4219 1175 4116 
Q 863 4013 513 3803 
L 513 4441 
Q 834 4594 1145 4672 
Q 1456 4750 1759 4750 
Q 2444 4750 2861 4386 
Q 3278 4022 3278 3431 
Q 3278 3131 3139 2831 
Q 3000 2531 2688 2169 
Q 2513 1966 2180 1606 
Q 1847 1247 1166 531 
z
" transform="scale(0.015625)"/>
        <path id="DejaVuSansMono-13" d="M 1509 2344 
Q 1509 2516 1629 2641 
Q 1750 2766 1919 2766 
Q 2094 2766 2219 2641 
Q 2344 2516 2344 2344 
Q 2344 2169 2220 2047 
Q 2097 1925 1919 1925 
Q 1744 1925 1626 2044 
Q 1509 2163 1509 2344 
z
M 1925 4250 
Q 1484 4250 1267 3775 
Q 1050 3300 1050 2328 
Q 1050 1359 1267 884 
Q 1484 409 1925 409 
Q 2369 409 2586 884 
Q 2803 1359 2803 2328 
Q 2803 3300 2586 3775 
Q 2369 4250 1925 4250 
z
M 1925 4750 
Q 2672 4750 3055 4137 
Q 3438 3525 3438 2328 
Q 3438 1134 3055 521 
Q 2672 -91 1925 -91 
Q 1178 -91 797 521 
Q 416 1134 416 2328 
Q 416 3525 797 4137 
Q 1178 4750 1925 4750 
z
" transform="scale(0.015625)"/>
        <path id="DejaVuSansMono-16" d="M 2425 2497 
Q 2884 2375 3128 2064 
Q 3372 1753 3372 1288 
Q 3372 644 2939 276 
Q 2506 -91 1741 -91 
Q 1419 -91 1084 -31 
Q 750 28 428 141 
L 428 769 
Q 747 603 1056 522 
Q 1366 441 1672 441 
Q 2191 441 2469 675 
Q 2747 909 2747 1350 
Q 2747 1756 2469 1995 
Q 2191 2234 1716 2234 
L 1234 2234 
L 1234 2753 
L 1716 2753 
Q 2150 2753 2394 2943 
Q 2638 3134 2638 3475 
Q 2638 3834 2411 4026 
Q 2184 4219 1766 4219 
Q 1488 4219 1191 4156 
Q 894 4094 569 3969 
L 569 4550 
Q 947 4650 1242 4700 
Q 1538 4750 1766 4750 
Q 2447 4750 2855 4408 
Q 3263 4066 3263 3500 
Q 3263 3116 3048 2859 
Q 2834 2603 2425 2497 
z
" transform="scale(0.015625)"/>
       </defs>
       <use xlink:href="#DejaVuSansMono-15"/>
       <use xlink:href="#DejaVuSansMono-13" transform="translate(60.203125 0)"/>
       <use xlink:href="#DejaVuSansMono-15" transform="translate(120.40625 0)"/>
       <use xlink:href="#DejaVuSansMono-16" transform="translate(180.609375 0)"/>
      </g>
     </g>
    </g>
    <g id="xtick_2">
     <g id="line2d_2">
      <g>
       <use xlink:href="#m100fd68584" x="238.81839" y="316.8" style="fill: #444444; stroke: #444444; stroke-width: 0.8"/>
      </g>
     </g>
     <g id="text_2">
      <!-- 2024 -->
      <g style="fill: #444444" transform="translate(221.961515 333.936719) scale(0.14 -0.14)">
       <defs>
        <path id="DejaVuSansMono-17" d="M 2297 4091 
L 825 1625 
L 2297 1625 
L 2297 4091 
z
M 2194 4666 
L 2925 4666 
L 2925 1625 
L 3547 1625 
L 3547 1113 
L 2925 1113 
L 2925 0 
L 2297 0 
L 2297 1113 
L 319 1113 
L 319 1709 
L 2194 4666 
z
" transform="scale(0.015625)"/>
       </defs>
       <use xlink:href="#DejaVuSansMono-15"/>
       <use xlink:href="#DejaVuSansMono-13" transform="translate(60.203125 0)"/>
       <use xlink:href="#DejaVuSansMono-15" transform="translate(120.40625 0)"/>
       <use xlink:href="#DejaVuSansMono-17" transform="translate(180.609375 0)"/>
      </g>
     </g>
    </g>
    <g id="xtick_3">
     <g id="line2d_3">
      <g>
       <use xlink:href="#m100fd68584" x="331.542279" y="316.8" style="fill: #444444; stroke: #444444; stroke-width: 0.8"/>
      </g>
     </g>
     <g id="text_3">
      <!-- 2025 -->
      <g style="fill: #444444" transform="translate(314.685404 333.936719) scale(0.14 -0.14)">
       <defs>
        <path id="DejaVuSansMono-18" d="M 647 4666 
L 3009 4666 
L 3009 4134 
L 1222 4134 
L 1222 2988 
Q 1356 3038 1492 3061 
Q 1628 3084 1766 3084 
Q 2491 3084 2916 2656 
Q 3341 2228 3341 1497 
Q 3341 759 2895 334 
Q 2450 -91 1678 -91 
Q 1306 -91 998 -41 
Q 691 9 447 109 
L 447 750 
Q 734 594 1025 517 
Q 1316 441 1619 441 
Q 2141 441 2423 716 
Q 2706 991 2706 1497 
Q 2706 1997 2414 2275 
Q 2122 2553 1600 2553 
Q 1347 2553 1106 2495 
Q 866 2438 647 2322 
L 647 4666 
z
" transform="scale(0.015625)"/>
       </defs>
       <use xlink:href="#DejaVuSansMono-15"/>
       <use xlink:href="#DejaVuSansMono-13" transform="translate(60.203125 0)"/>
       <use xlink:href="#DejaVuSansMono-15" transform="translate(120.40625 0)"/>
       <use xlink:href="#DejaVuSansMono-18" transform="translate(180.609375 0)"/>
      </g>
     </g>
    </g>
    <g id="xtick_4">
     <g id="line2d_4">
      <g>
       <use xlink:href="#m100fd68584" x="424.012824" y="316.8" style="fill: #444444; stroke: #444444; stroke-width: 0.8"/>
      </g>
     </g>
     <g id="text_4">
      <!-- 2026 -->
      <g style="fill: #444444" transform="translate(407.155949 333.936719) scale(0.14 -0.14)">
       <defs>
        <path id="DejaVuSansMono-19" d="M 3097 4563 
L 3097 3981 
Q 2900 4097 2678 4158 
Q 2456 4219 2216 4219 
Q 1616 4219 1306 3767 
Q 997 3316 997 2438 
Q 1147 2750 1412 2917 
Q 1678 3084 2022 3084 
Q 2697 3084 3067 2670 
Q 3438 2256 3438 1497 
Q 3438 741 3056 325 
Q 2675 -91 1984 -91 
Q 1172 -91 794 492 
Q 416 1075 416 2328 
Q 416 3509 870 4129 
Q 1325 4750 2188 4750 
Q 2419 4750 2650 4701 
Q 2881 4653 3097 4563 
z
M 1972 2591 
Q 1569 2591 1337 2300 
Q 1106 2009 1106 1497 
Q 1106 984 1337 693 
Q 1569 403 1972 403 
Q 2391 403 2603 679 
Q 2816 956 2816 1497 
Q 2816 2041 2603 2316 
Q 2391 2591 1972 2591 
z
" transform="scale(0.015625)"/>
       </defs>
       <use xlink:href="#DejaVuSansMono-15"/>
       <use xlink:href="#DejaVuSansMono-13" transform="translate(60.203125 0)"/>
       <use xlink:href="#DejaVuSansMono-15" transform="translate(120.40625 0)"/>
       <use xlink:href="#DejaVuSansMono-19" transform="translate(180.609375 0)"/>
      </g>
     </g>
    </g>
   </g>
   <g id="matplotlib.axis_2">
    <g id="ytick_1">
     <g id="line2d_5">
      <defs>
       <path id="mb0adacebb4" d="M 0 0 
L -3 0 
" style="stroke: #444444; stroke-width: 0.8"/>
      </defs>
      <g>
       <use xlink:href="#mb0adacebb4" x="70.56" y="316.8" style="fill: #444444; stroke: #444444; stroke-width: 0.8"/>
      </g>
     </g>
     <g id="text_5">
      <!-- 0 -->
      <g style="fill: #444444" transform="translate(55.631563 322.118359) scale(0.14 -0.14)">
       <use xlink:href="#DejaVuSansMono-13"/>
      </g>
     </g>
    </g>
    <g id="ytick_2">
     <g id="line2d_6">
      <g>
       <use xlink:href="#mb0adacebb4" x="70.56" y="281.61203" style="fill: #444444; stroke: #444444; stroke-width: 0.8"/>
      </g>
     </g>
     <g id="text_6">
      <!-- 20 -->
      <g style="fill: #444444" transform="translate(47.203125 286.930389) scale(0.14 -0.14)">
       <use xlink:href="#DejaVuSansMono-15"/>
       <use xlink:href="#DejaVuSansMono-13" transform="translate(60.203125 0)"/>
      </g>
     </g>
    </g>
    <g id="ytick_3">
     <g id="line2d_7">
      <g>
       <use xlink:href="#mb0adacebb4" x="70.56" y="246.42406" style="fill: #444444; stroke: #444444; stroke-width: 0.8"/>
      </g>
     </g>
     <g id="text_7">
      <!-- 40 -->
      <g style="fill: #444444" transform="translate(47.203125 251.74242) scale(0.14 -0.14)">
       <use xlink:href="#DejaVuSansMono-17"/>
       <use xlink:href="#DejaVuSansMono-13" transform="translate(60.203125 0)"/>
      </g>
     </g>
    </g>
    <g id="ytick_4">
     <g id="line2d_8">
      <g>
       <use xlink:href="#mb0adacebb4" x="70.56" y="211.23609" style="fill: #444444; stroke: #444444; stroke-width: 0.8"/>
      </g>
     </g>
     <g id="text_8">
      <!-- 60 -->
      <g style="fill: #444444" transform="translate(47.203125 216.55445) scale(0.14 -0.14)">
       <use xlink:href="#DejaVuSansMono-19"/>
       <use xlink:href="#DejaVuSansMono-13" transform="translate(60.203125 0)"/>
      </g>
     </g>
    </g>
    <g id="ytick_5">
     <g id="line2d_9">
      <g>
       <use xlink:href="#mb0adacebb4" x="70.56" y="176.04812" style="fill: #444444; stroke: #444444; stroke-width: 0.8"/>
      </g>
     </g>
     <g id="text_9">
      <!-- 80 -->
      <g style="fill: #444444" transform="translate(47.203125 181.36648) scale(0.14 -0.14)">
       <defs>
        <path id="DejaVuSansMono-1b" d="M 1925 2216 
Q 1503 2216 1273 1980 
Q 1044 1744 1044 1313 
Q 1044 881 1276 642 
Q 1509 403 1925 403 
Q 2350 403 2579 639 
Q 2809 875 2809 1313 
Q 2809 1741 2576 1978 
Q 2344 2216 1925 2216 
z
M 1375 2478 
Q 972 2581 745 2862 
Q 519 3144 519 3541 
Q 519 4097 897 4423 
Q 1275 4750 1925 4750 
Q 2578 4750 2956 4423 
Q 3334 4097 3334 3541 
Q 3334 3144 3107 2862 
Q 2881 2581 2478 2478 
Q 2947 2375 3195 2062 
Q 3444 1750 3444 1253 
Q 3444 622 3041 265 
Q 2638 -91 1925 -91 
Q 1213 -91 811 264 
Q 409 619 409 1247 
Q 409 1747 657 2061 
Q 906 2375 1375 2478 
z
M 1147 3481 
Q 1147 3106 1347 2909 
Q 1547 2713 1925 2713 
Q 2306 2713 2506 2909 
Q 2706 3106 2706 3481 
Q 2706 3863 2507 4063 
Q 2309 4263 1925 4263 
Q 1547 4263 1347 4061 
Q 1147 3859 1147 3481 
z
" transform="scale(0.015625)"/>
       </defs>
       <use xlink:href="#DejaVuSansMono-1b"/>
       <use xlink:href="#DejaVuSansMono-13" transform="translate(60.203125 0)"/>
      </g>
     </g>
    </g>
    <g id="ytick_6">
     <g id="line2d_10">
      <g>
       <use xlink:href="#mb0adacebb4" x="70.56" y="140.86015" style="fill: #444444; stroke: #444444; stroke-width: 0.8"/>
      </g>
     </g>
     <g id="text_10">
      <!-- 100 -->
      <g style="fill: #444444" transform="translate(38.774687 146.17851) scale(0.14 -0.14)">
       <defs>
        <path id="DejaVuSansMono-14" d="M 844 531 
L 1825 531 
L 1825 4097 
L 769 3859 
L 769 4434 
L 1819 4666 
L 2450 4666 
L 2450 531 
L 3419 531 
L 3419 0 
L 844 0 
L 844 531 
z
" transform="scale(0.015625)"/>
       </defs>
       <use xlink:href="#DejaVuSansMono-14"/>
       <use xlink:href="#DejaVuSansMono-13" transform="translate(60.203125 0)"/>
       <use xlink:href="#DejaVuSansMono-13" transform="translate(120.40625 0)"/>
      </g>
     </g>
    </g>
    <g id="ytick_7">
     <g id="line2d_11">
      <g>
       <use xlink:href="#mb0adacebb4" x="70.56" y="105.67218" style="fill: #444444; stroke: #444444; stroke-width: 0.8"/>
      </g>
     </g>
     <g id="text_11">
      <!-- 120 -->
      <g style="fill: #444444" transform="translate(38.774687 110.99054) scale(0.14 -0.14)">
       <use xlink:href="#DejaVuSansMono-14"/>
       <use xlink:href="#DejaVuSansMono-15" transform="translate(60.203125 0)"/>
       <use xlink:href="#DejaVuSansMono-13" transform="translate(120.40625 0)"/>
      </g>
     </g>
    </g>
    <g id="ytick_8">
     <g id="line2d_12">
      <g>
       <use xlink:href="#mb0adacebb4" x="70.56" y="70.484211" style="fill: #444444; stroke: #444444; stroke-width: 0.8"/>
      </g>
     </g>
     <g id="text_12">
      <!-- 140 -->
      <g style="fill: #444444" transform="translate(38.774687 75.80257) scale(0.14 -0.14)">
       <use xlink:href="#DejaVuSansMono-14"/>
       <use xlink:href="#DejaVuSansMono-17" transform="translate(60.203125 0)"/>
       <use xlink:href="#DejaVuSansMono-13" transform="translate(120.40625 0)"/>
      </g>
     </g>
    </g>
    <g id="text_13">
     <!-- Estrelas -->
     <g style="fill: #333333" transform="translate(31.171172 206.105859) rotate(-90) scale(0.15 -0.15)">
      <defs>
       <path id="DejaVuSans-28" d="M 628 4666 
L 3578 4666 
L 3578 4134 
L 1259 4134 
L 1259 2753 
L 3481 2753 
L 3481 2222 
L 1259 2222 
L 1259 531 
L 3634 531 
L 3634 0 
L 628 0 
L 628 4666 
z
" transform="scale(0.015625)"/>
       <path id="DejaVuSans-56" d="M 2834 3397 
L 2834 2853 
Q 2591 2978 2328 3040 
Q 2066 3103 1784 3103 
Q 1356 3103 1142 2972 
Q 928 2841 928 2578 
Q 928 2378 1081 2264 
Q 1234 2150 1697 2047 
L 1894 2003 
Q 2506 1872 2764 1633 
Q 3022 1394 3022 966 
Q 3022 478 2636 193 
Q 2250 -91 1575 -91 
Q 1294 -91 989 -36 
Q 684 19 347 128 
L 347 722 
Q 666 556 975 473 
Q 1284 391 1588 391 
Q 1994 391 2212 530 
Q 2431 669 2431 922 
Q 2431 1156 2273 1281 
Q 2116 1406 1581 1522 
L 1381 1569 
Q 847 1681 609 1914 
Q 372 2147 372 2553 
Q 372 3047 722 3315 
Q 1072 3584 1716 3584 
Q 2034 3584 2315 3537 
Q 2597 3491 2834 3397 
z
" transform="scale(0.015625)"/>
       <path id="DejaVuSans-57" d="M 1172 4494 
L 1172 3500 
L 2356 3500 
L 2356 3053 
L 1172 3053 
L 1172 1153 
Q 1172 725 1289 603 
Q 1406 481 1766 481 
L 2356 481 
L 2356 0 
L 1766 0 
Q 1100 0 847 248 
Q 594 497 594 1153 
L 594 3053 
L 172 3053 
L 172 3500 
L 594 3500 
L 594 4494 
L 1172 4494 
z
" transform="scale(0.015625)"/>
       <path id="DejaVuSans-55" d="M 2631 2963 
Q 2534 3019 2420 3045 
Q 2306 3072 2169 3072 
Q 1681 3072 1420 2755 
Q 1159 2438 1159 1844 
L 1159 0 
L 581 0 
L 581 3500 
L 1159 3500 
L 1159 2956 
Q 1341 3275 1631 3429 
Q 1922 3584 2338 3584 
Q 2397 3584 2469 3576 
Q 2541 3569 2628 3553 
L 2631 2963 
z
" transform="scale(0.015625)"/>
       <path id="DejaVuSans-48" d="M 3597 1894 
L 3597 1613 
L 953 1613 
Q 991 1019 1311 708 
Q 1631 397 2203 397 
Q 2534 397 2845 478 
Q 3156 559 3463 722 
L 3463 178 
Q 3153 47 2828 -22 
Q 2503 -91 2169 -91 
Q 1331 -91 842 396 
Q 353 884 353 1716 
Q 353 2575 817 3079 
Q 1281 3584 2069 3584 
Q 2775 3584 3186 3129 
Q 3597 2675 3597 1894 
z
M 3022 2063 
Q 3016 2534 2758 2815 
Q 2500 3097 2075 3097 
Q 1594 3097 1305 2825 
Q 1016 2553 972 2059 
L 3022 2063 
z
" transform="scale(0.015625)"/>
       <path id="DejaVuSans-4f" d="M 603 4863 
L 1178 4863 
L 1178 0 
L 603 0 
L 603 4863 
z
" transform="scale(0.015625)"/>
       <path id="DejaVuSans-44" d="M 2194 1759 
Q 1497 1759 1228 1600 
Q 959 1441 959 1056 
Q 959 750 1161 570 
Q 1363 391 1709 391 
Q 2188 391 2477 730 
Q 2766 1069 2766 1631 
L 2766 1759 
L 2194 1759 
z
M 3341 1997 
L 3341 0 
L 2766 0 
L 2766 531 
Q 2569 213 2275 61 
Q 1981 -91 1556 -91 
Q 1019 -91 701 211 
Q 384 513 384 1019 
Q 384 1609 779 1909 
Q 1175 2209 1959 2209 
L 2766 2209 
L 2766 2266 
Q 2766 2663 2505 2880 
Q 2244 3097 1772 3097 
Q 1472 3097 1187 3025 
Q 903 2953 641 2809 
L 641 3341 
Q 956 3463 1253 3523 
Q 1550 3584 1831 3584 
Q 2591 3584 2966 3190 
Q 3341 2797 3341 1997 
z
" transform="scale(0.015625)"/>
      </defs>
      <use xlink:href="#DejaVuSans-28"/>
      <use xlink:href="#DejaVuSans-56" transform="translate(63.1875 0)"/>
      <use xlink:href="#DejaVuSans-57" transform="translate(115.28125 0)"/>
      <use xlink:href="#DejaVuSans-55" transform="translate(154.484375 0)"/>
      <use xlink:href="#DejaVuSans-48" transform="translate(193.390625 0)"/>
      <use xlink:href="#DejaVuSans-4f" transform="translate(254.921875 0)"/>
      <use xlink:href="#DejaVuSans-44" transform="translate(282.703125 0)"/>
      <use xlink:href="#DejaVuSans-56" transform="translate(343.984375 0)"/>
     </g>
    </g>
   </g>
   <g id="line2d_13">
    <path d="M 89.345455 315.040602 
L 150.401349 313.281203 
L 154.201508 311.521805 
L 190.17635 309.762406 
L 195.749917 308.003008 
L 252.498964 306.243609 
L 260.352627 304.484211 
L 266.93957 302.724812 
L 273.019825 300.965414 
L 274.793232 299.206015 
L 274.793232 297.446617 
L 279.10008 295.687218 
L 284.166959 293.92782 
L 292.020622 292.168421 
L 294.047373 290.409023 
L 295.820781 288.649624 
L 301.394348 286.890226 
L 301.647692 285.130827 
L 304.434476 283.371429 
L 305.701195 281.61203 
L 308.741323 279.852632 
L 311.021419 278.093233 
L 312.288138 276.333835 
L 312.794826 274.574436 
L 313.301514 271.055639 
L 314.568234 269.296241 
L 318.368393 267.536842 
L 320.648489 265.777444 
L 321.155177 264.018045 
L 322.675241 262.258647 
L 323.181929 260.499248 
L 327.235432 258.73985 
L 327.488776 256.980451 
L 327.995464 255.221053 
L 331.795623 253.461654 
L 333.315687 251.702256 
L 340.409318 249.942857 
L 344.716165 248.183459 
L 346.742917 244.664662 
L 346.742917 242.905263 
L 347.249605 241.145865 
L 348.26298 239.386466 
L 349.023012 237.627068 
L 350.543076 235.867669 
L 351.303108 234.108271 
L 353.836548 232.348872 
L 355.103267 230.589474 
L 356.116643 228.830075 
L 356.369987 227.070677 
L 357.383363 225.311278 
L 359.663459 223.55188 
L 359.663459 221.792481 
L 361.69021 220.033083 
L 361.69021 218.273684 
L 362.703586 216.514286 
L 364.983682 211.23609 
L 364.983682 209.476692 
L 369.037185 207.717293 
L 370.810593 205.957895 
L 372.837344 202.439098 
L 378.917599 200.679699 
L 379.424287 198.920301 
L 382.717759 197.160902 
L 385.504542 195.401504 
L 386.264574 193.642105 
L 386.771262 191.882707 
L 386.771262 190.123308 
L 387.27795 188.36391 
L 388.037982 186.604511 
L 388.54467 184.845113 
L 390.064734 183.085714 
L 391.078109 181.326316 
L 393.864893 179.566917 
L 394.878269 176.04812 
L 396.905021 174.288722 
L 397.918396 172.529323 
L 403.745307 170.769925 
L 404.758683 169.010526 
L 409.318875 167.251128 
L 410.838938 165.491729 
L 412.86569 163.732331 
L 413.625722 161.972932 
L 413.879066 160.213534 
L 414.892442 158.454135 
L 415.652473 156.694737 
L 417.172537 154.935338 
L 423.506136 153.17594 
L 423.506136 151.416541 
L 425.532888 149.657143 
L 426.29292 147.897744 
L 428.319671 144.378947 
L 429.839735 142.619549 
L 430.346423 140.86015 
L 431.359799 139.100752 
L 431.613143 137.341353 
L 432.373175 135.581955 
L 432.879863 133.822556 
L 434.65327 132.063158 
L 435.666646 130.303759 
L 435.91999 128.544361 
L 437.693398 126.784962 
L 437.946742 125.025564 
L 438.45343 123.266165 
L 438.706774 121.506767 
L 443.520309 119.747368 
L 443.520309 117.98797 
L 444.533685 116.228571 
L 445.040373 114.469173 
L 445.293717 112.709774 
L 445.800405 110.950376 
L 446.053749 109.190977 
L 447.067124 107.431579 
L 447.573812 105.67218 
L 448.587188 103.912782 
L 449.093876 102.153383 
L 449.853908 100.393985 
L 449.853908 98.634586 
L 450.360596 96.875188 
L 450.61394 95.115789 
L 451.627316 93.356391 
L 452.134004 91.596992 
L 452.387348 89.837594 
L 452.894035 88.078195 
L 453.147379 86.318797 
L 453.147379 84.559398 
L 456.187507 82.8 
L 456.440851 81.040602 
L 456.947539 79.281203 
L 457.707571 77.521805 
L 458.214259 75.762406 
L 459.227634 74.003008 
L 459.227634 72.243609 
L 459.480978 70.484211 
L 459.987666 68.724812 
L 460.747698 63.446617 
L 460.747698 61.687218 
L 461.001042 59.92782 
L 462.77445 58.168421 
L 463.281138 54.649624 
L 464.801201 51.130827 
L 465.054545 49.371429 
L 465.054545 49.371429 
" clip-path="url(#p75fe563f95)" style="fill: none; stroke: #2c5282; stroke-width: 2; stroke-linecap: square"/>
   </g>
   <g id="patch_3">
    <path d="M 70.56 316.8 
L 70.56 36 
" style="fill: none; stroke: #c9c9c9; stroke-width: 0.8; stroke-linejoin: miter; stroke-linecap: square"/>
   </g>
   <g id="patch_4">
    <path d="M 483.84 316.8 
L 483.84 36 
" style="fill: none; stroke: #c9c9c9; stroke-width: 0.8; stroke-linejoin: miter; stroke-linecap: square"/>
   </g>
   <g id="patch_5">
    <path d="M 70.56 316.8 
L 483.84 316.8 
" style="fill: none; stroke: #c9c9c9; stroke-width: 0.8; stroke-linejoin: miter; stroke-linecap: square"/>
   </g>
   <g id="patch_6">
    <path d="M 70.56 36 
L 483.84 36 
" style="fill: none; stroke: #c9c9c9; stroke-width: 0.8; stroke-linejoin: miter; stroke-linecap: square"/>
   </g>
   <g id="text_14">
    <!-- Estrelas ao longo do tempo -->
    <g style="fill: #1a1a1a" transform="translate(70.56 24) scale(0.17 -0.17)">
     <defs>
      <path id="DejaVuSans-3" transform="scale(0.015625)"/>
      <path id="DejaVuSans-52" d="M 1959 3097 
Q 1497 3097 1228 2736 
Q 959 2375 959 1747 
Q 959 1119 1226 758 
Q 1494 397 1959 397 
Q 2419 397 2687 759 
Q 2956 1122 2956 1747 
Q 2956 2369 2687 2733 
Q 2419 3097 1959 3097 
z
M 1959 3584 
Q 2709 3584 3137 3096 
Q 3566 2609 3566 1747 
Q 3566 888 3137 398 
Q 2709 -91 1959 -91 
Q 1206 -91 779 398 
Q 353 888 353 1747 
Q 353 2609 779 3096 
Q 1206 3584 1959 3584 
z
" transform="scale(0.015625)"/>
      <path id="DejaVuSans-51" d="M 3513 2113 
L 3513 0 
L 2938 0 
L 2938 2094 
Q 2938 2591 2744 2837 
Q 2550 3084 2163 3084 
Q 1697 3084 1428 2787 
Q 1159 2491 1159 1978 
L 1159 0 
L 581 0 
L 581 3500 
L 1159 3500 
L 1159 2956 
Q 1366 3272 1645 3428 
Q 1925 3584 2291 3584 
Q 2894 3584 3203 3211 
Q 3513 2838 3513 2113 
z
" transform="scale(0.015625)"/>
      <path id="DejaVuSans-4a" d="M 2906 1791 
Q 2906 2416 2648 2759 
Q 2391 3103 1925 3103 
Q 1463 3103 1205 2759 
Q 947 2416 947 1791 
Q 947 1169 1205 825 
Q 1463 481 1925 481 
Q 2391 481 2648 825 
Q 2906 1169 2906 1791 
z
M 3481 434 
Q 3481 -459 3084 -895 
Q 2688 -1331 1869 -1331 
Q 1566 -1331 1297 -1286 
Q 1028 -1241 775 -1147 
L 775 -588 
Q 1028 -725 1275 -790 
Q 1522 -856 1778 -856 
Q 2344 -856 2625 -561 
Q 2906 -266 2906 331 
L 2906 616 
Q 2728 306 2450 153 
Q 2172 0 1784 0 
Q 1141 0 747 490 
Q 353 981 353 1791 
Q 353 2603 747 3093 
Q 1141 3584 1784 3584 
Q 2172 3584 2450 3431 
Q 2728 3278 2906 2969 
L 2906 3500 
L 3481 3500 
L 3481 434 
z
" transform="scale(0.015625)"/>
      <path id="DejaVuSans-47" d="M 2906 2969 
L 2906 4863 
L 3481 4863 
L 3481 0 
L 2906 0 
L 2906 525 
Q 2725 213 2448 61 
Q 2172 -91 1784 -91 
Q 1150 -91 751 415 
Q 353 922 353 1747 
Q 353 2572 751 3078 
Q 1150 3584 1784 3584 
Q 2172 3584 2448 3432 
Q 2725 3281 2906 2969 
z
M 947 1747 
Q 947 1113 1208 752 
Q 1469 391 1925 391 
Q 2381 391 2643 752 
Q 2906 1113 2906 1747 
Q 2906 2381 2643 2742 
Q 2381 3103 1925 3103 
Q 1469 3103 1208 2742 
Q 947 2381 947 1747 
z
" transform="scale(0.015625)"/>
      <path id="DejaVuSans-50" d="M 3328 2828 
Q 3544 3216 3844 3400 
Q 4144 3584 4550 3584 
Q 5097 3584 5394 3201 
Q 5691 2819 5691 2113 
L 5691 0 
L 5113 0 
L 5113 2094 
Q 5113 2597 4934 2840 
Q 4756 3084 4391 3084 
Q 3944 3084 3684 2787 
Q 3425 2491 3425 1978 
L 3425 0 
L 2847 0 
L 2847 2094 
Q 2847 2600 2669 2842 
Q 2491 3084 2119 3084 
Q 1678 3084 1418 2786 
Q 1159 2488 1159 1978 
L 1159 0 
L 581 0 
L 581 3500 
L 1159 3500 
L 1159 2956 
Q 1356 3278 1631 3431 
Q 1906 3584 2284 3584 
Q 2666 3584 2933 3390 
Q 3200 3197 3328 2828 
z
" transform="scale(0.015625)"/>
      <path id="DejaVuSans-53" d="M 1159 525 
L 1159 -1331 
L 581 -1331 
L 581 3500 
L 1159 3500 
L 1159 2969 
Q 1341 3281 1617 3432 
Q 1894 3584 2278 3584 
Q 2916 3584 3314 3078 
Q 3713 2572 3713 1747 
Q 3713 922 3314 415 
Q 2916 -91 2278 -91 
Q 1894 -91 1617 61 
Q 1341 213 1159 525 
z
M 3116 1747 
Q 3116 2381 2855 2742 
Q 2594 3103 2138 3103 
Q 1681 3103 1420 2742 
Q 1159 2381 1159 1747 
Q 1159 1113 1420 752 
Q 1681 391 2138 391 
Q 2594 391 2855 752 
Q 3116 1113 3116 1747 
z
" transform="scale(0.015625)"/>
     </defs>
     <use xlink:href="#DejaVuSans-28"/>
     <use xlink:href="#DejaVuSans-56" transform="translate(63.1875 0)"/>
     <use xlink:href="#DejaVuSans-57" transform="translate(115.28125 0)"/>
     <use xlink:href="#DejaVuSans-55" transform="translate(154.484375 0)"/>
     <use xlink:href="#DejaVuSans-48" transform="translate(193.390625 0)"/>
     <use xlink:href="#DejaVuSans-4f" transform="translate(254.921875 0)"/>
     <use xlink:href="#DejaVuSans-44" transform="translate(282.703125 0)"/>
     <use xlink:href="#DejaVuSans-56" transform="translate(343.984375 0)"/>
     <use xlink:href="#DejaVuSans-3" transform="translate(396.078125 0)"/>
     <use xlink:href="#DejaVuSans-44" transform="translate(427.859375 0)"/>
     <use xlink:href="#DejaVuSans-52" transform="translate(489.140625 0)"/>
     <use xlink:href="#DejaVuSans-3" transform="translate(550.328125 0)"/>
     <use xlink:href="#DejaVuSans-4f" transform="translate(582.109375 0)"/>
     <use xlink:href="#DejaVuSans-52" transform="translate(609.890625 0)"/>
     <use xlink:href="#DejaVuSans-51" transform="translate(671.078125 0)"/>
     <use xlink:href="#DejaVuSans-4a" transform="translate(734.453125 0)"/>
     <use xlink:href="#DejaVuSans-52" transform="translate(797.9375 0)"/>
     <use xlink:href="#DejaVuSans-3" transform="translate(859.125 0)"/>
     <use xlink:href="#DejaVuSans-47" transform="translate(890.90625 0)"/>
     <use xlink:href="#DejaVuSans-52" transform="translate(954.390625 0)"/>
     <use xlink:href="#DejaVuSans-3" transform="translate(1015.578125 0)"/>
     <use xlink:href="#DejaVuSans-57" transform="translate(1047.359375 0)"/>
     <use xlink:href="#DejaVuSans-48" transform="translate(1086.5625 0)"/>
     <use xlink:href="#DejaVuSans-50" transform="translate(1148.09375 0)"/>
     <use xlink:href="#DejaVuSans-53" transform="translate(1245.5 0)"/>
     <use xlink:href="#DejaVuSans-52" transform="translate(1308.984375 0)"/>
    </g>
   </g>
  </g>
 </g>
 <defs>
  <clipPath id="p75fe563f95">
   <rect x="70.56" y="36" width="413.28" height="280.8"/>
  </clipPath>
 </defs>
</svg>
